SplineFontDB: 3.0
FontName: Sansita-Black
FullName: Sansita-Black
FamilyName: Sansita
Weight: Black
Copyright: Copyright (c) 2011-2013, Omnibus-Type (www.omnibus-type.com omnibus.type@gmail.com) with Reserved Font Name 'Sansita'
Version: 001.004
ItalicAngle: 0
UnderlinePosition: -49.8047
UnderlineWidth: 49.8047
Ascent: 800
Descent: 200
sfntRevision: 0x00010106
LayerCount: 2
Layer: 0 1 "Back"  1
Layer: 1 1 "Fore"  0
XUID: [1021 809 -2065993493 8391797]
FSType: 8
OS2Version: 3
OS2_WeightWidthSlopeOnly: 0
OS2_UseTypoMetrics: 1
CreationTime: 1387883376
ModificationTime: 1388333762
PfmFamily: 81
TTFWeight: 900
TTFWidth: 5
LineGap: 0
VLineGap: 0
Panose: 0 0 10 0 0 0 0 0 0 0
OS2TypoAscent: 700
OS2TypoAOffset: 0
OS2TypoDescent: -180
OS2TypoDOffset: 0
OS2TypoLinegap: 320
OS2WinAscent: 1020
OS2WinAOffset: 0
OS2WinDescent: 180
OS2WinDOffset: 0
HheadAscent: 1020
HheadAOffset: 0
HheadDescent: -180
HheadDOffset: 0
OS2SubXSize: 650
OS2SubYSize: 600
OS2SubXOff: 0
OS2SubYOff: 75
OS2SupXSize: 650
OS2SupYSize: 600
OS2SupXOff: 0
OS2SupYOff: 350
OS2StrikeYSize: 50
OS2StrikeYPos: 306
OS2Vendor: 'UKWN'
OS2CodePages: 20000093.00000000
OS2UnicodeRanges: 00000007.00000000.00000000.00000000
Lookup: 1 0 0 "'aalt' Access All Alternates lookup 0"  {"'aalt' Access All Alternates lookup 0 subtable"  } ['aalt' ('DFLT' <'dflt' > 'grek' <'dflt' > 'latn' <'AZE ' 'CAT ' 'CRT ' 'ESP ' 'KAZ ' 'MOL ' 'NLD ' 'PLK ' 'ROM ' 'TAT ' 'TRK ' 'dflt' > ) ]
Lookup: 3 0 0 "'aalt' Access All Alternates lookup 1"  {"'aalt' Access All Alternates lookup 1 subtable"  } ['aalt' ('DFLT' <'dflt' > 'grek' <'dflt' > 'latn' <'AZE ' 'CAT ' 'CRT ' 'ESP ' 'KAZ ' 'MOL ' 'NLD ' 'PLK ' 'ROM ' 'TAT ' 'TRK ' 'dflt' > ) ]

StartChar: .notdef
Encoding: 65536 -1 0
Width: 513
Flags: MW
HStem: 0 50<86 426 86 506> 650 50<85 425 85 85>
VStem: 6 49<95 95 95 605> 455 51<95 605 605 605>
LayerCount: 2
UndoRedoHistory
Layer: 0
Undoes
EndUndoes
Redoes
EndRedoes
EndUndoRedoHistory
UndoRedoHistory
Layer: 1
Undoes
EndUndoes
Redoes
EndRedoes
EndUndoRedoHistory
Fore
SplineSet
6 700 m 1,0,-1
 506 700 l 1,1,-1
 506 0 l 1,2,-1
 6 0 l 1,3,-1
 6 700 l 1,0,-1
425 650 m 1,4,-1
 85 650 l 1,5,-1
 256 395 l 1,6,-1
 425 650 l 1,4,-1
55 95 m 1,7,-1
 226 350 l 1,8,-1
 55 605 l 1,9,-1
 55 95 l 1,7,-1
455 95 m 1,10,-1
 455 605 l 1,11,-1
 286 350 l 1,12,-1
 455 95 l 1,10,-1
426 50 m 1,13,-1
 255 305 l 1,14,-1
 86 50 l 1,15,-1
 426 50 l 1,13,-1
EndSplineSet
Validated: 1
EndChar

StartChar: A
Encoding: 65 65 1
Width: 634
Flags: MW
HStem: 153 89<184 306 184 327 164 306> 514 146<244 244> 640 20G<168 468 468 468>
VStem: -11 644<0 0>
LayerCount: 2
UndoRedoHistory
Layer: 0
Undoes
EndUndoes
Redoes
EndRedoes
EndUndoRedoHistory
UndoRedoHistory
Layer: 1
Undoes
EndUndoes
Redoes
EndRedoes
EndUndoRedoHistory
Fore
SplineSet
633 0 m 1,0,-1
 362 0 l 1,1,-1
 327 153 l 1,2,-1
 164 153 l 1,3,-1
 130 0 l 1,4,-1
 -11 0 l 1,5,-1
 168 660 l 1,6,-1
 468 660 l 1,7,-1
 633 0 l 1,0,-1
306 242 m 1,8,-1
 244 514 l 1,9,-1
 184 242 l 1,10,-1
 306 242 l 1,8,-1
EndSplineSet
Validated: 8388609
Substitution2: "Single Substitution lookup 21 subtable" ordfeminine
Substitution2: "'aalt' Access All Alternates lookup 0 subtable" ordfeminine
Position2: "'cpsp' Capital Spacing lookup 3 subtable" dx=5 dy=0 dh=10 dv=0
EndChar

StartChar: Aacute
Encoding: 193 193 2
Width: 634
Flags: MW
HStem: 153 89<184 306 184 327 164 306> 514 146<244 244> 640 20G<168 468 468 468>
VStem: -11 644<0 0>
LayerCount: 2
UndoRedoHistory
Layer: 0
Undoes
EndUndoes
Redoes
EndRedoes
EndUndoRedoHistory
UndoRedoHistory
Layer: 1
Undoes
EndUndoes
Redoes
EndRedoes
EndUndoRedoHistory
Fore
SplineSet
463 905 m 1,0,1
 482 889 482 889 494.5 865.5 c 128,-1,2
 507 842 507 842 507 820 c 0,3,4
 507 802 507 802 499 789 c 128,-1,5
 491 776 491 776 478.5 769 c 128,-1,6
 466 762 466 762 449 758 c 128,-1,7
 432 754 432 754 415.5 752 c 128,-1,8
 399 750 399 750 381 750 c 0,9,10
 374 750 374 750 371 749 c 2,11,-1
 212 738 l 1,12,-1
 199 794 l 1,13,-1
 463 905 l 1,0,1
362 0 m 1,14,-1
 327 153 l 1,15,-1
 164 153 l 1,16,-1
 130 0 l 1,17,-1
 -11 0 l 1,18,-1
 168 660 l 1,19,-1
 468 660 l 1,20,-1
 633 0 l 1,21,-1
 362 0 l 1,14,-1
244 514 m 1,22,-1
 184 242 l 1,23,-1
 306 242 l 1,24,-1
 244 514 l 1,22,-1
EndSplineSet
Validated: 8388609
Position2: "'cpsp' Capital Spacing lookup 3 subtable" dx=5 dy=0 dh=10 dv=0
EndChar

StartChar: Abreve
Encoding: 258 258 3
Width: 634
Flags: MW
HStem: 153 89<184 306 184 327 164 306> 514 146<244 244> 640 20G<168 468 468 468> 730 52<301 338 301 396>
VStem: 115 169<839 866 839 866> 356 168<839 866>
LayerCount: 2
UndoRedoHistory
Layer: 0
Undoes
EndUndoes
Redoes
EndRedoes
EndUndoRedoHistory
UndoRedoHistory
Layer: 1
Undoes
EndUndoes
Redoes
EndRedoes
EndUndoRedoHistory
Fore
SplineSet
524 866 m 1,0,1
 524 730 524 730 320 730 c 0,2,3
 115 730 115 730 115 866 c 1,4,-1
 284 866 l 1,5,6
 284 815 284 815 289 802 c 0,7,8
 297 782 297 782 320 782 c 0,9,10
 337 782 337 782 345.5 793 c 128,-1,11
 354 804 354 804 355 817.5 c 128,-1,12
 356 831 356 831 356 862 c 0,13,14
 356 864 356 864 356 866 c 1,15,-1
 524 866 l 1,0,1
362 0 m 1,16,-1
 327 153 l 1,17,-1
 164 153 l 1,18,-1
 130 0 l 1,19,-1
 -11 0 l 1,20,-1
 168 660 l 1,21,-1
 468 660 l 1,22,-1
 633 0 l 1,23,-1
 362 0 l 1,16,-1
244 514 m 1,24,-1
 184 242 l 1,25,-1
 306 242 l 1,26,-1
 244 514 l 1,24,-1
EndSplineSet
Validated: 8388609
Position2: "'cpsp' Capital Spacing lookup 3 subtable" dx=5 dy=0 dh=10 dv=0
EndChar

StartChar: Acircumflex
Encoding: 194 194 4
Width: 634
Flags: MW
HStem: 153 89<184 306 184 327 164 306> 514 146<244 244> 640 20G<168 468 468 468>
VStem: -11 644<0 0>
LayerCount: 2
UndoRedoHistory
Layer: 0
Undoes
EndUndoes
Redoes
EndRedoes
EndUndoRedoHistory
UndoRedoHistory
Layer: 1
Undoes
EndUndoes
Redoes
EndRedoes
EndUndoRedoHistory
Fore
SplineSet
131 745 m 1,0,-1
 296 857 l 1,1,-1
 339 857 l 1,2,-1
 507 745 l 1,3,-1
 463 693 l 1,4,-1
 319 725 l 1,5,-1
 176 693 l 1,6,-1
 131 745 l 1,0,-1
362 0 m 1,7,-1
 327 153 l 1,8,-1
 164 153 l 1,9,-1
 130 0 l 1,10,-1
 -11 0 l 1,11,-1
 168 660 l 1,12,-1
 468 660 l 1,13,-1
 633 0 l 1,14,-1
 362 0 l 1,7,-1
244 514 m 1,15,-1
 184 242 l 1,16,-1
 306 242 l 1,17,-1
 244 514 l 1,15,-1
EndSplineSet
Validated: 8388609
Position2: "'cpsp' Capital Spacing lookup 3 subtable" dx=5 dy=0 dh=10 dv=0
EndChar

StartChar: Adieresis
Encoding: 196 196 5
Width: 634
Flags: MW
HStem: 153 89<184 306 184 327 164 306> 514 146<244 244> 640 20G<168 468 468 468> 707 170<170 235 420 485>
VStem: -11 644<0 0>
LayerCount: 2
UndoRedoHistory
Layer: 0
Undoes
EndUndoes
Redoes
EndRedoes
EndUndoRedoHistory
UndoRedoHistory
Layer: 1
Undoes
EndUndoes
Redoes
EndRedoes
EndUndoRedoHistory
Fore
SplineSet
205 877 m 0,0,1
 257 877 257 877 289 854 c 128,-1,2
 321 831 321 831 321 791 c 128,-1,3
 321 751 321 751 287.5 729 c 128,-1,4
 254 707 254 707 200 707 c 0,5,6
 147 707 147 707 114 728.5 c 128,-1,7
 81 750 81 750 81 789 c 0,8,9
 81 829 81 829 116 853 c 128,-1,10
 151 877 151 877 205 877 c 0,0,1
455 877 m 0,11,12
 507 877 507 877 539 854 c 128,-1,13
 571 831 571 831 571 791 c 128,-1,14
 571 751 571 751 537.5 729 c 128,-1,15
 504 707 504 707 450 707 c 0,16,17
 397 707 397 707 364 728.5 c 128,-1,18
 331 750 331 750 331 789 c 0,19,20
 331 829 331 829 366 853 c 128,-1,21
 401 877 401 877 455 877 c 0,11,12
362 0 m 1,22,-1
 327 153 l 1,23,-1
 164 153 l 1,24,-1
 130 0 l 1,25,-1
 -11 0 l 1,26,-1
 168 660 l 1,27,-1
 468 660 l 1,28,-1
 633 0 l 1,29,-1
 362 0 l 1,22,-1
244 514 m 1,30,-1
 184 242 l 1,31,-1
 306 242 l 1,32,-1
 244 514 l 1,30,-1
EndSplineSet
Validated: 8388609
Position2: "'cpsp' Capital Spacing lookup 3 subtable" dx=5 dy=0 dh=10 dv=0
EndChar

StartChar: Agrave
Encoding: 192 192 6
Width: 634
Flags: MW
HStem: 153 89<184 306 184 327 164 306> 514 146<244 244> 640 20G<168 468 468 468>
VStem: -11 644<0 0>
LayerCount: 2
UndoRedoHistory
Layer: 0
Undoes
EndUndoes
Redoes
EndRedoes
EndUndoRedoHistory
UndoRedoHistory
Layer: 1
Undoes
EndUndoes
Redoes
EndRedoes
EndUndoRedoHistory
Fore
SplineSet
268 751 m 2,0,1
 207 755 207 755 186 761 c 0,2,3
 132 776 132 776 132 822 c 0,4,5
 132 843 132 843 144.5 867.5 c 128,-1,6
 157 892 157 892 175 907 c 1,7,-1
 440 796 l 1,8,-1
 427 740 l 1,9,-1
 268 751 l 2,0,1
362 0 m 1,10,-1
 327 153 l 1,11,-1
 164 153 l 1,12,-1
 130 0 l 1,13,-1
 -11 0 l 1,14,-1
 168 660 l 1,15,-1
 468 660 l 1,16,-1
 633 0 l 1,17,-1
 362 0 l 1,10,-1
244 514 m 1,18,-1
 184 242 l 1,19,-1
 306 242 l 1,20,-1
 244 514 l 1,18,-1
EndSplineSet
Validated: 8388609
Position2: "'cpsp' Capital Spacing lookup 3 subtable" dx=5 dy=0 dh=10 dv=0
EndChar

StartChar: Amacron
Encoding: 256 256 7
Width: 634
Flags: MW
HStem: 153 89<184 306 184 327 164 306> 514 146<244 244> 640 20G<168 468 468 468> 770 97<216 424 166 471>
VStem: -11 644<0 0>
LayerCount: 2
UndoRedoHistory
Layer: 0
Undoes
EndUndoes
Redoes
EndRedoes
EndUndoRedoHistory
UndoRedoHistory
Layer: 1
Undoes
EndUndoes
Redoes
EndRedoes
EndUndoRedoHistory
Fore
SplineSet
471 867 m 1,0,1
 480 854 480 854 480 828 c 128,-1,2
 480 802 480 802 464 786 c 128,-1,3
 448 770 448 770 424 770 c 2,4,-1
 166 770 l 1,5,6
 156 785 156 785 156 811 c 0,7,8
 156 836 156 836 172.5 851.5 c 128,-1,9
 189 867 189 867 216 867 c 2,10,-1
 471 867 l 1,0,1
362 0 m 1,11,-1
 327 153 l 1,12,-1
 164 153 l 1,13,-1
 130 0 l 1,14,-1
 -11 0 l 1,15,-1
 168 660 l 1,16,-1
 468 660 l 1,17,-1
 633 0 l 1,18,-1
 362 0 l 1,11,-1
244 514 m 1,19,-1
 184 242 l 1,20,-1
 306 242 l 1,21,-1
 244 514 l 1,19,-1
EndSplineSet
Validated: 8388609
Position2: "'cpsp' Capital Spacing lookup 3 subtable" dx=5 dy=0 dh=10 dv=0
EndChar

StartChar: Aogonek
Encoding: 260 260 8
Width: 634
Flags: MW
HStem: -284 102<509 602> -20 20G<-11 130 -11 -11 362 633 362 362 564 633 633 633> 153 89<184 306 184 327 164 306> 514 146<244 244> 640 20G<168 468 468 468>
VStem: 394 138<-154 -127>
LayerCount: 2
UndoRedoHistory
Layer: 0
Undoes
EndUndoes
Redoes
EndRedoes
EndUndoRedoHistory
UndoRedoHistory
Layer: 1
Undoes
EndUndoes
Redoes
EndRedoes
EndUndoRedoHistory
Fore
SplineSet
362 0 m 1,0,-1
 327 153 l 1,1,-1
 164 153 l 1,2,-1
 130 0 l 1,3,-1
 -11 0 l 1,4,-1
 168 660 l 1,5,-1
 468 660 l 1,6,-1
 633 0 l 1,7,8
 532 -66 532 -66 532 -135 c 0,9,10
 532 -162 532 -162 547 -172 c 128,-1,11
 562 -182 562 -182 592 -182 c 0,12,13
 610 -182 610 -182 629 -175 c 128,-1,14
 648 -168 648 -168 655 -155 c 1,15,16
 687 -177 687 -177 687 -210 c 0,17,18
 687 -229 687 -229 671.5 -244 c 128,-1,19
 656 -259 656 -259 633 -267.5 c 128,-1,20
 610 -276 610 -276 587 -280 c 128,-1,21
 564 -284 564 -284 545 -284 c 0,22,23
 523 -284 523 -284 502 -281 c 128,-1,24
 481 -278 481 -278 461 -271 c 128,-1,25
 441 -264 441 -264 426.5 -252.5 c 128,-1,26
 412 -241 412 -241 403 -223 c 128,-1,27
 394 -205 394 -205 394 -181 c 0,28,29
 394 -142 394 -142 407 -112 c 128,-1,30
 420 -82 420 -82 445 -61 c 128,-1,31
 470 -40 470 -40 498 -26 c 128,-1,32
 526 -12 526 -12 564 0 c 1,33,-1
 362 0 l 1,0,-1
244 514 m 1,34,-1
 184 242 l 1,35,-1
 306 242 l 1,36,-1
 244 514 l 1,34,-1
EndSplineSet
Validated: 8388609
Position2: "'cpsp' Capital Spacing lookup 3 subtable" dx=5 dy=0 dh=10 dv=0
EndChar

StartChar: Aring
Encoding: 197 197 9
Width: 634
Flags: MW
HStem: 153 89<184 306 184 327 164 306> 514 146<244 244> 640 20G<168 468 468 468> 728 44<302 335 302 355> 890 43<303 335>
VStem: 196 76<815 849 815 865> 365 77<815 849>
LayerCount: 2
UndoRedoHistory
Layer: 0
Undoes
EndUndoes
Redoes
EndRedoes
EndUndoRedoHistory
UndoRedoHistory
Layer: 1
Undoes
EndUndoes
Redoes
EndRedoes
EndUndoRedoHistory
Fore
SplineSet
319 728 m 128,-1,1
 264 728 264 728 230 756.5 c 128,-1,2
 196 785 196 785 196 832 c 0,3,4
 196 880 196 880 229.5 906.5 c 128,-1,5
 263 933 263 933 319 933 c 128,-1,6
 375 933 375 933 408.5 906.5 c 128,-1,7
 442 880 442 880 442 832 c 0,8,9
 442 785 442 785 408 756.5 c 128,-1,0
 374 728 374 728 319 728 c 128,-1,1
319 772 m 0,10,11
 342 772 342 772 353.5 788.5 c 128,-1,12
 365 805 365 805 365 832 c 0,13,14
 365 858 365 858 353.5 874 c 128,-1,15
 342 890 342 890 319 890 c 0,16,17
 295 890 295 890 283.5 874 c 128,-1,18
 272 858 272 858 272 832 c 0,19,20
 272 772 272 772 319 772 c 0,10,11
362 0 m 1,21,-1
 327 153 l 1,22,-1
 164 153 l 1,23,-1
 130 0 l 1,24,-1
 -11 0 l 1,25,-1
 168 660 l 1,26,-1
 468 660 l 1,27,-1
 633 0 l 1,28,-1
 362 0 l 1,21,-1
244 514 m 1,29,-1
 184 242 l 1,30,-1
 306 242 l 1,31,-1
 244 514 l 1,29,-1
EndSplineSet
Validated: 8388609
Position2: "'cpsp' Capital Spacing lookup 3 subtable" dx=5 dy=0 dh=10 dv=0
EndChar

StartChar: Aringacute
Encoding: 506 506 10
Width: 634
Flags: MW
HStem: 153 89<184 306 184 327 164 306> 640 20G<168 213 213 213 300 333 421 468 468 468> 751 34<300 333>
VStem: 194 76<697 719 693 732> 363 77<697 719>
LayerCount: 2
UndoRedoHistory
Layer: 0
Undoes
EndUndoes
Redoes
EndRedoes
EndUndoRedoHistory
UndoRedoHistory
Layer: 1
Undoes
EndUndoes
Redoes
EndRedoes
EndUndoRedoHistory
Fore
SplineSet
212 792 m 1,0,-1
 199 848 l 1,1,-1
 463 959 l 1,2,3
 482 943 482 943 494.5 919.5 c 128,-1,4
 507 896 507 896 507 874 c 0,5,6
 507 856 507 856 499 843.5 c 128,-1,7
 491 831 491 831 478.5 823.5 c 128,-1,8
 466 816 466 816 449 812 c 128,-1,9
 432 808 432 808 415.5 806.5 c 128,-1,10
 399 805 399 805 381 804 c 0,11,12
 374 804 374 804 371 803 c 2,13,-1
 212 792 l 1,0,-1
633 0 m 1,14,-1
 362 0 l 1,15,-1
 327 153 l 1,16,-1
 164 153 l 1,17,-1
 130 0 l 1,18,-1
 -11 0 l 1,19,-1
 168 660 l 1,20,-1
 213 660 l 1,21,22
 194 681 194 681 194 707 c 0,23,24
 194 744 194 744 227.5 764.5 c 128,-1,25
 261 785 261 785 317 785 c 128,-1,26
 373 785 373 785 406.5 764.5 c 128,-1,27
 440 744 440 744 440 707 c 0,28,29
 440 681 440 681 421 660 c 1,30,-1
 468 660 l 1,31,-1
 633 0 l 1,14,-1
270 707 m 0,32,33
 270 660 270 660 317 660 c 0,34,35
 340 660 340 660 351.5 673 c 128,-1,36
 363 686 363 686 363 707 c 0,37,38
 363 726 363 726 351.5 738.5 c 128,-1,39
 340 751 340 751 317 751 c 128,-1,40
 294 751 294 751 282 739 c 128,-1,41
 270 727 270 727 270 707 c 0,32,33
306 242 m 1,42,-1
 244 514 l 1,43,-1
 184 242 l 1,44,-1
 306 242 l 1,42,-1
EndSplineSet
Validated: 1
Position2: "'cpsp' Capital Spacing lookup 3 subtable" dx=5 dy=0 dh=10 dv=0
EndChar

StartChar: Atilde
Encoding: 195 195 11
Width: 634
Flags: MW
HStem: 153 89<184 306 184 327 164 306> 514 146<244 244> 640 20G<168 468 468 468> 737 114<420 456> 755 114<185 220>
VStem: -11 644<0 0>
LayerCount: 2
UndoRedoHistory
Layer: 0
Undoes
EndUndoes
Redoes
EndRedoes
EndUndoRedoHistory
UndoRedoHistory
Layer: 1
Undoes
EndUndoes
Redoes
EndRedoes
EndUndoRedoHistory
Fore
SplineSet
523 874 m 1,0,1
 544 838 544 838 544 809 c 0,2,3
 544 787 544 787 534.5 771.5 c 128,-1,4
 525 756 525 756 507 749 c 128,-1,5
 489 742 489 742 470 739.5 c 128,-1,6
 451 737 451 737 424 737 c 0,7,8
 394 737 394 737 307 746 c 128,-1,9
 220 755 220 755 188 755 c 0,10,11
 140 755 140 755 118 732 c 1,12,13
 97 768 97 768 97 797 c 0,14,15
 97 819 97 819 106.5 834.5 c 128,-1,16
 116 850 116 850 133.5 857 c 128,-1,17
 151 864 151 864 170.5 866.5 c 128,-1,18
 190 869 190 869 217 869 c 0,19,20
 247 869 247 869 333.5 860 c 128,-1,21
 420 851 420 851 453 851 c 0,22,23
 501 851 501 851 523 874 c 1,0,1
362 0 m 1,24,-1
 327 153 l 1,25,-1
 164 153 l 1,26,-1
 130 0 l 1,27,-1
 -11 0 l 1,28,-1
 168 660 l 1,29,-1
 468 660 l 1,30,-1
 633 0 l 1,31,-1
 362 0 l 1,24,-1
244 514 m 1,32,-1
 184 242 l 1,33,-1
 306 242 l 1,34,-1
 244 514 l 1,32,-1
EndSplineSet
Validated: 8388609
Position2: "'cpsp' Capital Spacing lookup 3 subtable" dx=5 dy=0 dh=10 dv=0
EndChar

StartChar: AE
Encoding: 198 198 12
Width: 765
Flags: MW
HStem: 0 89<633 773> 153 89<256 369 256 369 220 369> 294 90<633 736 633 736> 571 89<633 766 633 633>
VStem: 369 264<89 153 153 153 242 294 384 544 544 544>
LayerCount: 2
UndoRedoHistory
Layer: 0
Undoes
EndUndoes
Redoes
EndRedoes
EndUndoRedoHistory
UndoRedoHistory
Layer: 1
Undoes
EndUndoes
Redoes
EndRedoes
EndUndoRedoHistory
Fore
SplineSet
766 571 m 1,0,-1
 633 571 l 1,1,-1
 633 384 l 1,2,-1
 736 384 l 1,3,-1
 736 294 l 1,4,-1
 633 294 l 1,5,-1
 633 89 l 1,6,-1
 781 89 l 1,7,-1
 773 0 l 1,8,-1
 369 0 l 1,9,-1
 369 153 l 1,10,-1
 220 153 l 1,11,-1
 160 0 l 1,12,-1
 3 0 l 1,13,-1
 287 660 l 1,14,-1
 766 660 l 1,15,-1
 766 571 l 1,0,-1
256 242 m 1,16,-1
 369 242 l 1,17,-1
 369 544 l 1,18,-1
 256 242 l 1,16,-1
EndSplineSet
Validated: 1
Position2: "'cpsp' Capital Spacing lookup 3 subtable" dx=5 dy=0 dh=10 dv=0
EndChar

StartChar: AEacute
Encoding: 508 508 13
Width: 765
Flags: MW
HStem: 0 89<633 773> 153 89<256 369 256 369 220 369> 294 90<633 736 633 736> 571 89<633 633 633 766>
VStem: 369 264<89 153 153 153 242 294 384 544 544 544>
LayerCount: 2
UndoRedoHistory
Layer: 0
Undoes
EndUndoes
Redoes
EndRedoes
EndUndoRedoHistory
UndoRedoHistory
Layer: 1
Undoes
EndUndoes
Redoes
EndRedoes
EndUndoRedoHistory
Fore
SplineSet
595 876 m 1,0,1
 614 860 614 860 626.5 836.5 c 128,-1,2
 639 813 639 813 639 791 c 0,3,4
 639 773 639 773 631 760.5 c 128,-1,5
 623 748 623 748 611 740.5 c 128,-1,6
 599 733 599 733 581.5 729 c 128,-1,7
 564 725 564 725 547.5 723.5 c 128,-1,8
 531 722 531 722 513 721 c 0,9,10
 512 721 512 721 511 721 c 2,11,-1
 508 721 l 2,12,13
 506 721 506 721 505 720.5 c 128,-1,14
 504 720 504 720 503 720 c 2,15,-1
 344 709 l 1,16,-1
 331 765 l 1,17,-1
 595 876 l 1,0,1
633 571 m 1,18,-1
 633 384 l 1,19,-1
 736 384 l 1,20,-1
 736 294 l 1,21,-1
 633 294 l 1,22,-1
 633 89 l 1,23,-1
 781 89 l 1,24,-1
 773 0 l 1,25,-1
 369 0 l 1,26,-1
 369 153 l 1,27,-1
 220 153 l 1,28,-1
 160 0 l 1,29,-1
 3 0 l 1,30,-1
 287 660 l 1,31,-1
 766 660 l 1,32,-1
 766 571 l 1,33,-1
 633 571 l 1,18,-1
369 242 m 1,34,-1
 369 544 l 1,35,-1
 256 242 l 1,36,-1
 369 242 l 1,34,-1
EndSplineSet
Validated: 1
Position2: "'cpsp' Capital Spacing lookup 3 subtable" dx=5 dy=0 dh=10 dv=0
EndChar

StartChar: B
Encoding: 66 66 14
Width: 666
Flags: MW
HStem: -10 76<333 367 333 410> 318 66<324 354 321 361> 589 77<333 364>
VStem: 45 264<72 72 72 317 387 583> 402 202<473 524> 406 254<160 224>
LayerCount: 2
UndoRedoHistory
Layer: 0
Undoes
EndUndoes
Redoes
EndRedoes
EndUndoRedoHistory
UndoRedoHistory
Layer: 1
Undoes
EndUndoes
Redoes
EndRedoes
EndUndoRedoHistory
Fore
SplineSet
45 651 m 1,0,1
 201 666 201 666 335 666 c 0,2,3
 373 666 373 666 403 664 c 128,-1,4
 433 662 433 662 465.5 656 c 128,-1,5
 498 650 498 650 521.5 638.5 c 128,-1,6
 545 627 545 627 564.5 610 c 128,-1,7
 584 593 584 593 594 567 c 128,-1,8
 604 541 604 541 604 508 c 0,9,10
 604 457 604 457 570 421.5 c 128,-1,11
 536 386 536 386 481 375 c 1,12,13
 660 345 660 345 660 193 c 0,14,15
 660 148 660 148 641 112 c 128,-1,16
 622 76 622 76 590 53.5 c 128,-1,17
 558 31 558 31 514.5 16.5 c 128,-1,18
 471 2 471 2 426 -4 c 128,-1,19
 381 -10 381 -10 331 -10 c 0,20,21
 194 -10 194 -10 45 3 c 1,22,-1
 45 651 l 1,0,1
309 387 m 1,23,24
 318 384 318 384 324 384 c 0,25,26
 402 384 402 384 402 498 c 0,27,28
 402 541 402 541 388.5 565 c 128,-1,29
 375 589 375 589 339 589 c 0,30,31
 324 589 324 589 309 583 c 1,32,-1
 309 387 l 1,23,24
309 72 m 1,33,34
 319 66 319 66 337 66 c 0,35,36
 358 66 358 66 372.5 76.5 c 128,-1,37
 387 87 387 87 394 106 c 128,-1,38
 401 125 401 125 403.5 144.5 c 128,-1,39
 406 164 406 164 406 190 c 0,40,41
 406 212 406 212 404 229 c 128,-1,42
 402 246 402 246 397.5 263.5 c 128,-1,43
 393 281 393 281 384.5 292.5 c 128,-1,44
 376 304 376 304 361.5 311 c 128,-1,45
 347 318 347 318 327 318 c 0,46,47
 324 318 324 318 318 317.5 c 128,-1,48
 312 317 312 317 309 317 c 1,49,-1
 309 72 l 1,33,34
EndSplineSet
Validated: 8388609
Position2: "'cpsp' Capital Spacing lookup 3 subtable" dx=5 dy=0 dh=10 dv=0
EndChar

StartChar: C
Encoding: 67 67 15
Width: 627
Flags: MW
HStem: -22 176<397 431> 604 76<329 390>
VStem: 12 284<313 421 313 444> 420 197<508 508>
LayerCount: 2
UndoRedoHistory
Layer: 0
Undoes
EndUndoes
Redoes
EndRedoes
EndUndoRedoHistory
UndoRedoHistory
Layer: 1
Undoes
EndUndoes
Redoes
EndRedoes
EndUndoRedoHistory
Fore
SplineSet
361 604 m 0,0,1
 349 604 349 604 339.5 598 c 128,-1,2
 330 592 330 592 323.5 579.5 c 128,-1,3
 317 567 317 567 312 554 c 128,-1,4
 307 541 307 541 304 521.5 c 128,-1,5
 301 502 301 502 299.5 486.5 c 128,-1,6
 298 471 298 471 297 450 c 128,-1,7
 296 429 296 429 296 417 c 2,8,-1
 296 387 l 2,9,10
 296 272 296 272 333.5 213 c 128,-1,11
 371 154 371 154 454 154 c 0,12,13
 496 154 496 154 527.5 171 c 128,-1,14
 559 188 559 188 587 224 c 1,15,16
 626 191 626 191 626 145 c 0,17,18
 626 103 626 103 603 70 c 128,-1,19
 580 37 580 37 542.5 17.5 c 128,-1,20
 505 -2 505 -2 461.5 -12 c 128,-1,21
 418 -22 418 -22 373 -22 c 0,22,23
 301 -22 301 -22 241 -4.5 c 128,-1,24
 181 13 181 13 139 44.5 c 128,-1,25
 97 76 97 76 68.5 120 c 128,-1,26
 40 164 40 164 26 215.5 c 128,-1,27
 12 267 12 267 12 325 c 0,28,29
 12 502 12 502 105.5 591 c 128,-1,30
 199 680 199 680 378 680 c 0,31,32
 413 680 413 680 444 677 c 128,-1,33
 475 674 475 674 508 665 c 128,-1,34
 541 656 541 656 564 642 c 128,-1,35
 587 628 587 628 602 605 c 128,-1,36
 617 582 617 582 617 551 c 0,37,38
 617 489 617 489 574 455 c 128,-1,39
 531 421 531 421 468 421 c 0,40,41
 450 421 450 421 416 423 c 1,42,43
 420 454 420 454 420 480 c 0,44,45
 420 498 420 498 419.5 509.5 c 128,-1,46
 419 521 419 521 417.5 537 c 128,-1,47
 416 553 416 553 412 563.5 c 128,-1,48
 408 574 408 574 402 584 c 128,-1,49
 396 594 396 594 385.5 599 c 128,-1,50
 375 604 375 604 361 604 c 0,0,1
EndSplineSet
Validated: 1
Position2: "'cpsp' Capital Spacing lookup 3 subtable" dx=5 dy=0 dh=10 dv=0
EndChar

StartChar: Cacute
Encoding: 262 262 16
Width: 627
Flags: MW
HStem: -22 176<397 431> 604 76<329 390>
VStem: 12 284<313 421 313 444> 420 197<508 508>
LayerCount: 2
UndoRedoHistory
Layer: 0
Undoes
EndUndoes
Redoes
EndRedoes
EndUndoRedoHistory
UndoRedoHistory
Layer: 1
Undoes
EndUndoes
Redoes
EndRedoes
EndUndoRedoHistory
Fore
SplineSet
504 874 m 1,0,1
 523 858 523 858 535.5 834.5 c 128,-1,2
 548 811 548 811 548 789 c 0,3,4
 548 771 548 771 539.5 758 c 128,-1,5
 531 745 531 745 519.5 738 c 128,-1,6
 508 731 508 731 489.5 727 c 0,7,8
 471 724 471 724 456 722 c 2,9,-1
 421 718 l 1,10,-1
 412 718 l 1,11,-1
 253 707 l 1,12,-1
 240 763 l 1,13,-1
 504 874 l 1,0,1
361 604 m 0,14,15
 349 604 349 604 339.5 598 c 128,-1,16
 330 592 330 592 323.5 579.5 c 128,-1,17
 317 567 317 567 312 554 c 128,-1,18
 307 541 307 541 304 521.5 c 128,-1,19
 301 502 301 502 299.5 486.5 c 128,-1,20
 298 471 298 471 297 450 c 128,-1,21
 296 429 296 429 296 417 c 2,22,-1
 296 387 l 2,23,24
 296 272 296 272 333.5 213 c 128,-1,25
 371 154 371 154 454 154 c 0,26,27
 496 154 496 154 527.5 171 c 128,-1,28
 559 188 559 188 587 224 c 1,29,30
 626 191 626 191 626 145 c 0,31,32
 626 103 626 103 603 70 c 128,-1,33
 580 37 580 37 542.5 17.5 c 128,-1,34
 505 -2 505 -2 461.5 -12 c 128,-1,35
 418 -22 418 -22 373 -22 c 0,36,37
 301 -22 301 -22 241 -4.5 c 128,-1,38
 181 13 181 13 139 44.5 c 128,-1,39
 97 76 97 76 68.5 120 c 128,-1,40
 40 164 40 164 26 215.5 c 128,-1,41
 12 267 12 267 12 325 c 0,42,43
 12 502 12 502 105.5 591 c 128,-1,44
 199 680 199 680 378 680 c 0,45,46
 413 680 413 680 444 677 c 128,-1,47
 475 674 475 674 508 665 c 128,-1,48
 541 656 541 656 564 642 c 128,-1,49
 587 628 587 628 602 605 c 128,-1,50
 617 582 617 582 617 551 c 0,51,52
 617 489 617 489 574 455 c 128,-1,53
 531 421 531 421 468 421 c 0,54,55
 450 421 450 421 416 423 c 1,56,57
 420 454 420 454 420 480 c 0,58,59
 420 498 420 498 419.5 509.5 c 128,-1,60
 419 521 419 521 417.5 537 c 128,-1,61
 416 553 416 553 412 563.5 c 128,-1,62
 408 574 408 574 402 584 c 128,-1,63
 396 594 396 594 385.5 599 c 128,-1,64
 375 604 375 604 361 604 c 0,14,15
EndSplineSet
Validated: 524289
Substitution2: "'locl' Localized Forms in Latin lookup 13 subtable" Cacute.loclPLK
Substitution2: "'aalt' Access All Alternates lookup 0 subtable" Cacute.loclPLK
Position2: "'cpsp' Capital Spacing lookup 3 subtable" dx=5 dy=0 dh=10 dv=0
EndChar

StartChar: Ccaron
Encoding: 268 268 17
Width: 627
Flags: MW
HStem: -22 176<397 431> 604 76<329 390>
VStem: 12 284<313 421 313 444> 420 197<508 508>
LayerCount: 2
UndoRedoHistory
Layer: 0
Undoes
EndUndoes
Redoes
EndRedoes
EndUndoRedoHistory
UndoRedoHistory
Layer: 1
Undoes
EndUndoes
Redoes
EndRedoes
EndUndoRedoHistory
Fore
SplineSet
560 812 m 1,0,-1
 415 690 l 1,1,-1
 312 690 l 1,2,-1
 164 812 l 1,3,-1
 208 864 l 1,4,-1
 362 812 l 1,5,-1
 515 864 l 1,6,-1
 560 812 l 1,0,-1
361 604 m 0,7,8
 349 604 349 604 339.5 598 c 128,-1,9
 330 592 330 592 323.5 579.5 c 128,-1,10
 317 567 317 567 312 554 c 128,-1,11
 307 541 307 541 304 521.5 c 128,-1,12
 301 502 301 502 299.5 486.5 c 128,-1,13
 298 471 298 471 297 450 c 128,-1,14
 296 429 296 429 296 417 c 2,15,-1
 296 387 l 2,16,17
 296 272 296 272 333.5 213 c 128,-1,18
 371 154 371 154 454 154 c 0,19,20
 496 154 496 154 527.5 171 c 128,-1,21
 559 188 559 188 587 224 c 1,22,23
 626 191 626 191 626 145 c 0,24,25
 626 103 626 103 603 70 c 128,-1,26
 580 37 580 37 542.5 17.5 c 128,-1,27
 505 -2 505 -2 461.5 -12 c 128,-1,28
 418 -22 418 -22 373 -22 c 0,29,30
 301 -22 301 -22 241 -4.5 c 128,-1,31
 181 13 181 13 139 44.5 c 128,-1,32
 97 76 97 76 68.5 120 c 128,-1,33
 40 164 40 164 26 215.5 c 128,-1,34
 12 267 12 267 12 325 c 0,35,36
 12 502 12 502 105.5 591 c 128,-1,37
 199 680 199 680 378 680 c 0,38,39
 413 680 413 680 444 677 c 128,-1,40
 475 674 475 674 508 665 c 128,-1,41
 541 656 541 656 564 642 c 128,-1,42
 587 628 587 628 602 605 c 128,-1,43
 617 582 617 582 617 551 c 0,44,45
 617 489 617 489 574 455 c 128,-1,46
 531 421 531 421 468 421 c 0,47,48
 450 421 450 421 416 423 c 1,49,50
 420 454 420 454 420 480 c 0,51,52
 420 498 420 498 419.5 509.5 c 128,-1,53
 419 521 419 521 417.5 537 c 128,-1,54
 416 553 416 553 412 563.5 c 128,-1,55
 408 574 408 574 402 584 c 128,-1,56
 396 594 396 594 385.5 599 c 128,-1,57
 375 604 375 604 361 604 c 0,7,8
EndSplineSet
Validated: 1
Position2: "'cpsp' Capital Spacing lookup 3 subtable" dx=5 dy=0 dh=10 dv=0
EndChar

StartChar: Ccedilla
Encoding: 199 199 18
Width: 627
Flags: MW
HStem: -261 81<333 334 305 389> -109 56 604 76<329 390>
VStem: 12 284<313 421 313 444> 359 146<-157 -130> 420 197<508 508>
LayerCount: 2
UndoRedoHistory
Layer: 0
Undoes
EndUndoes
Redoes
EndRedoes
EndUndoRedoHistory
UndoRedoHistory
Layer: 1
Undoes
EndUndoes
Redoes
EndRedoes
EndUndoRedoHistory
Fore
SplineSet
298 -17 m 1,0,1
 227 -6 227 -6 171.5 24.5 c 128,-1,2
 116 55 116 55 81.5 100.5 c 128,-1,3
 47 146 47 146 29.5 203 c 128,-1,4
 12 260 12 260 12 325 c 0,5,6
 12 502 12 502 105.5 591 c 128,-1,7
 199 680 199 680 378 680 c 0,8,9
 413 680 413 680 444 677 c 128,-1,10
 475 674 475 674 508 665 c 128,-1,11
 541 656 541 656 564 642 c 128,-1,12
 587 628 587 628 602 605 c 128,-1,13
 617 582 617 582 617 551 c 0,14,15
 617 489 617 489 574 455 c 128,-1,16
 531 421 531 421 468 421 c 0,17,18
 450 421 450 421 416 423 c 1,19,20
 420 454 420 454 420 480 c 0,21,22
 420 498 420 498 419.5 509.5 c 128,-1,23
 419 521 419 521 417.5 537 c 128,-1,24
 416 553 416 553 412 563.5 c 128,-1,25
 408 574 408 574 402 584 c 128,-1,26
 396 594 396 594 385.5 599 c 128,-1,27
 375 604 375 604 361 604 c 0,28,29
 349 604 349 604 339.5 598 c 128,-1,30
 330 592 330 592 323.5 579.5 c 128,-1,31
 317 567 317 567 312 554 c 128,-1,32
 307 541 307 541 304 521.5 c 128,-1,33
 301 502 301 502 299.5 486.5 c 128,-1,34
 298 471 298 471 297 450 c 128,-1,35
 296 429 296 429 296 417 c 2,36,-1
 296 387 l 2,37,38
 296 272 296 272 333.5 213 c 128,-1,39
 371 154 371 154 454 154 c 0,40,41
 496 154 496 154 527.5 171 c 128,-1,42
 559 188 559 188 587 224 c 1,43,44
 626 191 626 191 626 145 c 0,45,46
 626 113 626 113 612 86 c 128,-1,47
 598 59 598 59 575 40 c 128,-1,48
 552 21 552 21 521.5 7.5 c 128,-1,49
 491 -6 491 -6 458 -13.5 c 128,-1,50
 425 -21 425 -21 390 -22 c 1,51,-1
 378 -53 l 1,52,53
 436 -54 436 -54 470.5 -78 c 128,-1,54
 505 -102 505 -102 505 -154 c 0,55,56
 505 -188 505 -188 481.5 -213 c 128,-1,57
 458 -238 458 -238 424 -249.5 c 128,-1,58
 390 -261 390 -261 352 -261 c 0,59,60
 334 -261 334 -261 317.5 -258.5 c 128,-1,61
 301 -256 301 -256 281.5 -250 c 128,-1,62
 262 -244 262 -244 250.5 -230 c 128,-1,63
 239 -216 239 -216 239 -197 c 0,64,65
 239 -165 239 -165 252 -146 c 1,66,67
 274 -180 274 -180 326 -180 c 0,68,69
 340 -180 340 -180 349.5 -171 c 128,-1,70
 359 -162 359 -162 359 -145 c 0,71,72
 359 -125 359 -125 342.5 -117 c 128,-1,73
 326 -109 326 -109 303 -109 c 0,74,75
 290 -109 290 -109 264 -111 c 1,76,-1
 298 -17 l 1,0,1
EndSplineSet
Validated: 8388609
Position2: "'cpsp' Capital Spacing lookup 3 subtable" dx=5 dy=0 dh=10 dv=0
EndChar

StartChar: Ccircumflex
Encoding: 264 264 19
Width: 627
Flags: MW
HStem: -22 176<397 431> 604 76<329 390>
VStem: 12 284<313 421 313 444> 420 197<508 508>
LayerCount: 2
UndoRedoHistory
Layer: 0
Undoes
EndUndoes
Redoes
EndRedoes
EndUndoRedoHistory
UndoRedoHistory
Layer: 1
Undoes
EndUndoes
Redoes
EndRedoes
EndUndoRedoHistory
Fore
SplineSet
177 745 m 1,0,-1
 342 857 l 1,1,-1
 385 857 l 1,2,-1
 553 745 l 1,3,-1
 509 693 l 1,4,-1
 365 725 l 1,5,-1
 222 693 l 1,6,-1
 177 745 l 1,0,-1
361 604 m 0,7,8
 349 604 349 604 339.5 598 c 128,-1,9
 330 592 330 592 323.5 579.5 c 128,-1,10
 317 567 317 567 312 554 c 128,-1,11
 307 541 307 541 304 521.5 c 128,-1,12
 301 502 301 502 299.5 486.5 c 128,-1,13
 298 471 298 471 297 450 c 128,-1,14
 296 429 296 429 296 417 c 2,15,-1
 296 387 l 2,16,17
 296 272 296 272 333.5 213 c 128,-1,18
 371 154 371 154 454 154 c 0,19,20
 496 154 496 154 527.5 171 c 128,-1,21
 559 188 559 188 587 224 c 1,22,23
 626 191 626 191 626 145 c 0,24,25
 626 103 626 103 603 70 c 128,-1,26
 580 37 580 37 542.5 17.5 c 128,-1,27
 505 -2 505 -2 461.5 -12 c 128,-1,28
 418 -22 418 -22 373 -22 c 0,29,30
 301 -22 301 -22 241 -4.5 c 128,-1,31
 181 13 181 13 139 44.5 c 128,-1,32
 97 76 97 76 68.5 120 c 128,-1,33
 40 164 40 164 26 215.5 c 128,-1,34
 12 267 12 267 12 325 c 0,35,36
 12 502 12 502 105.5 591 c 128,-1,37
 199 680 199 680 378 680 c 0,38,39
 413 680 413 680 444 677 c 128,-1,40
 475 674 475 674 508 665 c 128,-1,41
 541 656 541 656 564 642 c 128,-1,42
 587 628 587 628 602 605 c 128,-1,43
 617 582 617 582 617 551 c 0,44,45
 617 489 617 489 574 455 c 128,-1,46
 531 421 531 421 468 421 c 0,47,48
 450 421 450 421 416 423 c 1,49,50
 420 454 420 454 420 480 c 0,51,52
 420 498 420 498 419.5 509.5 c 128,-1,53
 419 521 419 521 417.5 537 c 128,-1,54
 416 553 416 553 412 563.5 c 128,-1,55
 408 574 408 574 402 584 c 128,-1,56
 396 594 396 594 385.5 599 c 128,-1,57
 375 604 375 604 361 604 c 0,7,8
EndSplineSet
Validated: 1
Position2: "'cpsp' Capital Spacing lookup 3 subtable" dx=5 dy=0 dh=10 dv=0
EndChar

StartChar: Cdotaccent
Encoding: 266 266 20
Width: 627
Flags: MW
HStem: -22 176<397 431> 604 76<329 390> 735 170<319 384>
VStem: 12 284<313 421 313 444> 420 197<508 508>
LayerCount: 2
UndoRedoHistory
Layer: 0
Undoes
EndUndoes
Redoes
EndRedoes
EndUndoRedoHistory
UndoRedoHistory
Layer: 1
Undoes
EndUndoes
Redoes
EndRedoes
EndUndoRedoHistory
Fore
SplineSet
354 905 m 0,0,1
 406 905 406 905 438 882 c 128,-1,2
 470 859 470 859 470 819 c 128,-1,3
 470 779 470 779 436.5 757 c 128,-1,4
 403 735 403 735 349 735 c 0,5,6
 296 735 296 735 263 756.5 c 128,-1,7
 230 778 230 778 230 817 c 0,8,9
 230 857 230 857 265 881 c 128,-1,10
 300 905 300 905 354 905 c 0,0,1
361 604 m 0,11,12
 349 604 349 604 339.5 598 c 128,-1,13
 330 592 330 592 323.5 579.5 c 128,-1,14
 317 567 317 567 312 554 c 128,-1,15
 307 541 307 541 304 521.5 c 128,-1,16
 301 502 301 502 299.5 486.5 c 128,-1,17
 298 471 298 471 297 450 c 128,-1,18
 296 429 296 429 296 417 c 2,19,-1
 296 387 l 2,20,21
 296 272 296 272 333.5 213 c 128,-1,22
 371 154 371 154 454 154 c 0,23,24
 496 154 496 154 527.5 171 c 128,-1,25
 559 188 559 188 587 224 c 1,26,27
 626 191 626 191 626 145 c 0,28,29
 626 103 626 103 603 70 c 128,-1,30
 580 37 580 37 542.5 17.5 c 128,-1,31
 505 -2 505 -2 461.5 -12 c 128,-1,32
 418 -22 418 -22 373 -22 c 0,33,34
 301 -22 301 -22 241 -4.5 c 128,-1,35
 181 13 181 13 139 44.5 c 128,-1,36
 97 76 97 76 68.5 120 c 128,-1,37
 40 164 40 164 26 215.5 c 128,-1,38
 12 267 12 267 12 325 c 0,39,40
 12 502 12 502 105.5 591 c 128,-1,41
 199 680 199 680 378 680 c 0,42,43
 413 680 413 680 444 677 c 128,-1,44
 475 674 475 674 508 665 c 128,-1,45
 541 656 541 656 564 642 c 128,-1,46
 587 628 587 628 602 605 c 128,-1,47
 617 582 617 582 617 551 c 0,48,49
 617 489 617 489 574 455 c 128,-1,50
 531 421 531 421 468 421 c 0,51,52
 450 421 450 421 416 423 c 1,53,54
 420 454 420 454 420 480 c 0,55,56
 420 498 420 498 419.5 509.5 c 128,-1,57
 419 521 419 521 417.5 537 c 128,-1,58
 416 553 416 553 412 563.5 c 128,-1,59
 408 574 408 574 402 584 c 128,-1,60
 396 594 396 594 385.5 599 c 128,-1,61
 375 604 375 604 361 604 c 0,11,12
EndSplineSet
Validated: 1
Position2: "'cpsp' Capital Spacing lookup 3 subtable" dx=5 dy=0 dh=10 dv=0
EndChar

StartChar: D
Encoding: 68 68 21
Width: 715
Flags: MW
HStem: -10 76<345 379 345 448> 589 77<334 377>
VStem: 45 264<74 74 74 580> 417 286<281 393>
LayerCount: 2
UndoRedoHistory
Layer: 0
Undoes
EndUndoes
Redoes
EndRedoes
EndUndoRedoHistory
UndoRedoHistory
Layer: 1
Undoes
EndUndoes
Redoes
EndRedoes
EndUndoRedoHistory
Fore
SplineSet
45 651 m 1,0,1
 201 666 201 666 339 666 c 0,2,3
 430 666 430 666 496.5 647.5 c 128,-1,4
 563 629 563 629 610 590 c 128,-1,5
 657 551 657 551 680 487.5 c 128,-1,6
 703 424 703 424 703 335 c 0,7,8
 703 163 703 163 606.5 76.5 c 128,-1,9
 510 -10 510 -10 331 -10 c 0,10,11
 194 -10 194 -10 45 3 c 1,12,-1
 45 651 l 1,0,1
309 74 m 1,13,14
 329 66 329 66 352 66 c 0,15,16
 372 66 372 66 385.5 92 c 128,-1,17
 399 118 399 118 405.5 161.5 c 128,-1,18
 412 205 412 205 414.5 246.5 c 128,-1,19
 417 288 417 288 417 334 c 0,20,21
 417 368 417 368 416.5 394 c 128,-1,22
 416 420 416 420 413.5 451.5 c 128,-1,23
 411 483 411 483 405.5 506 c 128,-1,24
 400 529 400 529 392 548.5 c 128,-1,25
 384 568 384 568 371.5 578.5 c 128,-1,26
 359 589 359 589 343 589 c 0,27,28
 337 589 337 589 332.5 588.5 c 128,-1,29
 328 588 328 588 326.5 587.5 c 128,-1,30
 325 587 325 587 319 584.5 c 128,-1,31
 313 582 313 582 309 580 c 1,32,-1
 309 74 l 1,13,14
EndSplineSet
Validated: 1
Position2: "'cpsp' Capital Spacing lookup 3 subtable" dx=5 dy=0 dh=10 dv=0
EndChar

StartChar: DZ
Encoding: 497 497 22
Width: 1225
Flags: MW
HStem: -10 76<345 379 345 448> 0 99<1007 1221> 561 99<746 936 746 746> 589 77<334 377>
VStem: 45 264<74 74 74 580> 417 286<281 393>
LayerCount: 2
UndoRedoHistory
Layer: 0
Undoes
EndUndoes
Redoes
EndRedoes
EndUndoRedoHistory
UndoRedoHistory
Layer: 1
Undoes
EndUndoes
Redoes
EndRedoes
EndUndoRedoHistory
Fore
SplineSet
45 651 m 1,0,1
 201 666 201 666 339 666 c 0,2,3
 430 666 430 666 496.5 647.5 c 128,-1,4
 563 629 563 629 610 590 c 128,-1,5
 657 551 657 551 680 487.5 c 128,-1,6
 703 424 703 424 703 335 c 0,7,8
 703 163 703 163 606.5 76.5 c 128,-1,9
 510 -10 510 -10 331 -10 c 0,10,11
 194 -10 194 -10 45 3 c 1,12,-1
 45 651 l 1,0,1
1219 582 m 1,13,-1
 1007 99 l 1,14,-1
 1233 99 l 1,15,-1
 1221 0 l 1,16,-1
 732 0 l 1,17,-1
 725 78 l 1,18,-1
 936 561 l 1,19,-1
 746 561 l 1,20,-1
 742 660 l 1,21,-1
 1212 660 l 1,22,-1
 1219 582 l 1,13,-1
309 74 m 1,23,24
 329 66 329 66 352 66 c 0,25,26
 372 66 372 66 385.5 92 c 128,-1,27
 399 118 399 118 405.5 161.5 c 128,-1,28
 412 205 412 205 414.5 246.5 c 128,-1,29
 417 288 417 288 417 334 c 0,30,31
 417 368 417 368 416.5 394 c 128,-1,32
 416 420 416 420 413.5 451.5 c 128,-1,33
 411 483 411 483 405.5 506 c 128,-1,34
 400 529 400 529 392 548.5 c 128,-1,35
 384 568 384 568 371.5 578.5 c 128,-1,36
 359 589 359 589 343 589 c 0,37,38
 337 589 337 589 332.5 588.5 c 128,-1,39
 328 588 328 588 326.5 587.5 c 128,-1,40
 325 587 325 587 319 584.5 c 128,-1,41
 313 582 313 582 309 580 c 1,42,-1
 309 74 l 1,23,24
EndSplineSet
Validated: 8388609
Position2: "'cpsp' Capital Spacing lookup 3 subtable" dx=5 dy=0 dh=10 dv=0
EndChar

StartChar: DZcaron
Encoding: 452 452 23
Width: 1225
Flags: MW
HStem: -10 76<345 379 345 448> 0 99<1007 1221> 561 99<746 936 746 746> 589 77<334 377>
VStem: 45 264<74 74 74 580> 417 286<281 393>
LayerCount: 2
UndoRedoHistory
Layer: 0
Undoes
EndUndoes
Redoes
EndRedoes
EndUndoRedoHistory
UndoRedoHistory
Layer: 1
Undoes
EndUndoes
Redoes
EndRedoes
EndUndoRedoHistory
Fore
SplineSet
1168 811 m 1,0,-1
 1023 689 l 1,1,-1
 920 689 l 1,2,-1
 772 811 l 1,3,-1
 816 863 l 1,4,-1
 970 811 l 1,5,-1
 1123 863 l 1,6,-1
 1168 811 l 1,0,-1
45 651 m 1,7,8
 201 666 201 666 339 666 c 0,9,10
 430 666 430 666 496.5 647.5 c 128,-1,11
 563 629 563 629 610 590 c 128,-1,12
 657 551 657 551 680 487.5 c 128,-1,13
 703 424 703 424 703 335 c 0,14,15
 703 163 703 163 606.5 76.5 c 128,-1,16
 510 -10 510 -10 331 -10 c 0,17,18
 194 -10 194 -10 45 3 c 1,19,-1
 45 651 l 1,7,8
1219 582 m 1,20,-1
 1007 99 l 1,21,-1
 1233 99 l 1,22,-1
 1221 0 l 1,23,-1
 732 0 l 1,24,-1
 725 78 l 1,25,-1
 936 561 l 1,26,-1
 746 561 l 1,27,-1
 742 660 l 1,28,-1
 1212 660 l 1,29,-1
 1219 582 l 1,20,-1
309 74 m 1,30,31
 329 66 329 66 352 66 c 0,32,33
 372 66 372 66 385.5 92 c 128,-1,34
 399 118 399 118 405.5 161.5 c 128,-1,35
 412 205 412 205 414.5 246.5 c 128,-1,36
 417 288 417 288 417 334 c 0,37,38
 417 368 417 368 416.5 394 c 128,-1,39
 416 420 416 420 413.5 451.5 c 128,-1,40
 411 483 411 483 405.5 506 c 128,-1,41
 400 529 400 529 392 548.5 c 128,-1,42
 384 568 384 568 371.5 578.5 c 128,-1,43
 359 589 359 589 343 589 c 0,44,45
 337 589 337 589 332.5 588.5 c 128,-1,46
 328 588 328 588 326.5 587.5 c 128,-1,47
 325 587 325 587 319 584.5 c 128,-1,48
 313 582 313 582 309 580 c 1,49,-1
 309 74 l 1,30,31
EndSplineSet
Validated: 8388609
Position2: "'cpsp' Capital Spacing lookup 3 subtable" dx=5 dy=0 dh=10 dv=0
EndChar

StartChar: Eth
Encoding: 208 208 24
Width: 709
Flags: MW
HStem: -10 76<340 375 340 443> 589 77<330 372>
VStem: 40 264<74 74 74 286 74 286 385 580> 412 286<281 393>
LayerCount: 2
UndoRedoHistory
Layer: 0
Undoes
EndUndoes
Redoes
EndRedoes
EndUndoRedoHistory
UndoRedoHistory
Layer: 1
Undoes
EndUndoes
Redoes
EndRedoes
EndUndoRedoHistory
Fore
SplineSet
40 651 m 1,0,1
 196 666 196 666 334 666 c 0,2,3
 425 666 425 666 492 647.5 c 128,-1,4
 559 629 559 629 605.5 590 c 128,-1,5
 652 551 652 551 675 487.5 c 128,-1,6
 698 424 698 424 698 335 c 0,7,8
 698 163 698 163 601.5 76.5 c 128,-1,9
 505 -10 505 -10 326 -10 c 0,10,11
 189 -10 189 -10 40 3 c 1,12,-1
 40 286 l 1,13,-1
 -1 286 l 1,14,15
 -3 295 -3 295 -3 312 c 0,16,17
 -3 366 -3 366 40 380 c 1,18,-1
 40 651 l 1,0,1
304 74 m 1,19,20
 324 66 324 66 347 66 c 0,21,22
 367 66 367 66 380.5 92 c 128,-1,23
 394 118 394 118 400.5 161.5 c 128,-1,24
 407 205 407 205 409.5 246.5 c 128,-1,25
 412 288 412 288 412 334 c 0,26,27
 412 368 412 368 411.5 394 c 128,-1,28
 411 420 411 420 408.5 451.5 c 128,-1,29
 406 483 406 483 400.5 506 c 128,-1,30
 395 529 395 529 387 548.5 c 128,-1,31
 379 568 379 568 366.5 578.5 c 128,-1,32
 354 589 354 589 338 589 c 0,33,34
 332 589 332 589 327.5 588.5 c 128,-1,35
 323 588 323 588 321.5 587.5 c 128,-1,36
 320 587 320 587 314 584.5 c 128,-1,37
 308 582 308 582 304 580 c 1,38,-1
 304 385 l 1,39,-1
 372 385 l 1,40,41
 374 376 374 376 374 358 c 0,42,43
 374 325 374 325 355.5 306.5 c 128,-1,44
 337 288 337 288 304 286 c 1,45,-1
 304 74 l 1,19,20
EndSplineSet
Validated: 1
Position2: "'cpsp' Capital Spacing lookup 3 subtable" dx=5 dy=0 dh=10 dv=0
EndChar

StartChar: Dcaron
Encoding: 270 270 25
Width: 715
Flags: MW
HStem: -10 76<345 379 345 448> 589 77<334 377>
VStem: 45 264<74 74 74 580> 417 286<281 393>
LayerCount: 2
UndoRedoHistory
Layer: 0
Undoes
EndUndoes
Redoes
EndRedoes
EndUndoRedoHistory
UndoRedoHistory
Layer: 1
Undoes
EndUndoes
Redoes
EndRedoes
EndUndoRedoHistory
Fore
SplineSet
538 812 m 1,0,-1
 393 690 l 1,1,-1
 290 690 l 1,2,-1
 142 812 l 1,3,-1
 186 864 l 1,4,-1
 340 812 l 1,5,-1
 493 864 l 1,6,-1
 538 812 l 1,0,-1
45 651 m 1,7,8
 201 666 201 666 339 666 c 0,9,10
 430 666 430 666 496.5 647.5 c 128,-1,11
 563 629 563 629 610 590 c 128,-1,12
 657 551 657 551 680 487.5 c 128,-1,13
 703 424 703 424 703 335 c 0,14,15
 703 163 703 163 606.5 76.5 c 128,-1,16
 510 -10 510 -10 331 -10 c 0,17,18
 194 -10 194 -10 45 3 c 1,19,-1
 45 651 l 1,7,8
309 74 m 1,20,21
 329 66 329 66 352 66 c 0,22,23
 372 66 372 66 385.5 92 c 128,-1,24
 399 118 399 118 405.5 161.5 c 128,-1,25
 412 205 412 205 414.5 246.5 c 128,-1,26
 417 288 417 288 417 334 c 0,27,28
 417 368 417 368 416.5 394 c 128,-1,29
 416 420 416 420 413.5 451.5 c 128,-1,30
 411 483 411 483 405.5 506 c 128,-1,31
 400 529 400 529 392 548.5 c 128,-1,32
 384 568 384 568 371.5 578.5 c 128,-1,33
 359 589 359 589 343 589 c 0,34,35
 337 589 337 589 332.5 588.5 c 128,-1,36
 328 588 328 588 326.5 587.5 c 128,-1,37
 325 587 325 587 319 584.5 c 128,-1,38
 313 582 313 582 309 580 c 1,39,-1
 309 74 l 1,20,21
EndSplineSet
Validated: 1
Position2: "'cpsp' Capital Spacing lookup 3 subtable" dx=5 dy=0 dh=10 dv=0
EndChar

StartChar: Dcroat
Encoding: 272 272 26
Width: 709
Flags: MW
HStem: -10 76<340 375 340 443> 589 77<330 372>
VStem: 40 264<74 74 74 286 74 286 385 580> 412 286<281 393>
LayerCount: 2
UndoRedoHistory
Layer: 0
Undoes
EndUndoes
Redoes
EndRedoes
EndUndoRedoHistory
UndoRedoHistory
Layer: 1
Undoes
EndUndoes
Redoes
EndRedoes
EndUndoRedoHistory
Fore
SplineSet
40 651 m 1,0,1
 196 666 196 666 334 666 c 0,2,3
 425 666 425 666 492 647.5 c 128,-1,4
 559 629 559 629 605.5 590 c 128,-1,5
 652 551 652 551 675 487.5 c 128,-1,6
 698 424 698 424 698 335 c 0,7,8
 698 163 698 163 601.5 76.5 c 128,-1,9
 505 -10 505 -10 326 -10 c 0,10,11
 189 -10 189 -10 40 3 c 1,12,-1
 40 286 l 1,13,-1
 -1 286 l 1,14,15
 -3 295 -3 295 -3 312 c 0,16,17
 -3 366 -3 366 40 380 c 1,18,-1
 40 651 l 1,0,1
304 74 m 1,19,20
 324 66 324 66 347 66 c 0,21,22
 367 66 367 66 380.5 92 c 128,-1,23
 394 118 394 118 400.5 161.5 c 128,-1,24
 407 205 407 205 409.5 246.5 c 128,-1,25
 412 288 412 288 412 334 c 0,26,27
 412 368 412 368 411.5 394 c 128,-1,28
 411 420 411 420 408.5 451.5 c 128,-1,29
 406 483 406 483 400.5 506 c 128,-1,30
 395 529 395 529 387 548.5 c 128,-1,31
 379 568 379 568 366.5 578.5 c 128,-1,32
 354 589 354 589 338 589 c 0,33,34
 332 589 332 589 327.5 588.5 c 128,-1,35
 323 588 323 588 321.5 587.5 c 128,-1,36
 320 587 320 587 314 584.5 c 128,-1,37
 308 582 308 582 304 580 c 1,38,-1
 304 385 l 1,39,-1
 371 385 l 1,40,41
 374 359 374 359 374 358 c 0,42,43
 374 325 374 325 355.5 306.5 c 128,-1,44
 337 288 337 288 304 286 c 1,45,-1
 304 74 l 1,19,20
EndSplineSet
Validated: 1
Position2: "'cpsp' Capital Spacing lookup 3 subtable" dx=5 dy=0 dh=10 dv=0
EndChar

StartChar: Ddotbelow
Encoding: 7692 7692 27
Width: 715
Flags: MW
HStem: -202 170<298 363> -10 76<345 379 345 448> 589 77<334 377>
VStem: 45 264<74 74 74 580> 417 286<281 393>
LayerCount: 2
UndoRedoHistory
Layer: 0
Undoes
EndUndoes
Redoes
EndRedoes
EndUndoRedoHistory
UndoRedoHistory
Layer: 1
Undoes
EndUndoes
Redoes
EndRedoes
EndUndoRedoHistory
Fore
SplineSet
45 651 m 1,0,1
 201 666 201 666 339 666 c 0,2,3
 430 666 430 666 496.5 647.5 c 128,-1,4
 563 629 563 629 610 590 c 128,-1,5
 657 551 657 551 680 487.5 c 128,-1,6
 703 424 703 424 703 335 c 0,7,8
 703 163 703 163 606.5 76.5 c 128,-1,9
 510 -10 510 -10 331 -10 c 0,10,11
 194 -10 194 -10 45 3 c 1,12,-1
 45 651 l 1,0,1
309 74 m 1,13,14
 329 66 329 66 352 66 c 0,15,16
 372 66 372 66 385.5 92 c 128,-1,17
 399 118 399 118 405.5 161.5 c 128,-1,18
 412 205 412 205 414.5 246.5 c 128,-1,19
 417 288 417 288 417 334 c 0,20,21
 417 368 417 368 416.5 394 c 128,-1,22
 416 420 416 420 413.5 451.5 c 128,-1,23
 411 483 411 483 405.5 506 c 128,-1,24
 400 529 400 529 392 548.5 c 128,-1,25
 384 568 384 568 371.5 578.5 c 128,-1,26
 359 589 359 589 343 589 c 0,27,28
 337 589 337 589 332.5 588.5 c 128,-1,29
 328 588 328 588 326.5 587.5 c 128,-1,30
 325 587 325 587 319 584.5 c 128,-1,31
 313 582 313 582 309 580 c 1,32,-1
 309 74 l 1,13,14
333 -32 m 0,33,34
 385 -32 385 -32 417 -55 c 128,-1,35
 449 -78 449 -78 449 -118 c 128,-1,36
 449 -158 449 -158 415.5 -180 c 128,-1,37
 382 -202 382 -202 328 -202 c 0,38,39
 275 -202 275 -202 242 -180.5 c 128,-1,40
 209 -159 209 -159 209 -120 c 0,41,42
 209 -80 209 -80 244 -56 c 128,-1,43
 279 -32 279 -32 333 -32 c 0,33,34
EndSplineSet
Validated: 1
Position2: "'cpsp' Capital Spacing lookup 3 subtable" dx=5 dy=0 dh=10 dv=0
EndChar

StartChar: Dz
Encoding: 498 498 28
Width: 1174
Flags: MW
HStem: -10 76<345 379 345 448> 0 93<989 989 989 1149> 410 101 589 77<334 377>
VStem: 45 264<74 74 74 580> 417 286<281 393>
LayerCount: 2
UndoRedoHistory
Layer: 0
Undoes
EndUndoes
Redoes
EndRedoes
EndUndoRedoHistory
UndoRedoHistory
Layer: 1
Undoes
EndUndoes
Redoes
EndRedoes
EndUndoRedoHistory
Fore
SplineSet
45 651 m 1,0,1
 201 666 201 666 339 666 c 0,2,3
 430 666 430 666 496.5 647.5 c 128,-1,4
 563 629 563 629 610 590 c 128,-1,5
 657 551 657 551 680 487.5 c 128,-1,6
 703 424 703 424 703 335 c 0,7,8
 703 163 703 163 606.5 76.5 c 128,-1,9
 510 -10 510 -10 331 -10 c 0,10,11
 194 -10 194 -10 45 3 c 1,12,-1
 45 651 l 1,0,1
309 74 m 1,13,14
 329 66 329 66 352 66 c 0,15,16
 372 66 372 66 385.5 92 c 128,-1,17
 399 118 399 118 405.5 161.5 c 128,-1,18
 412 205 412 205 414.5 246.5 c 128,-1,19
 417 288 417 288 417 334 c 0,20,21
 417 368 417 368 416.5 394 c 128,-1,22
 416 420 416 420 413.5 451.5 c 128,-1,23
 411 483 411 483 405.5 506 c 128,-1,24
 400 529 400 529 392 548.5 c 128,-1,25
 384 568 384 568 371.5 578.5 c 128,-1,26
 359 589 359 589 343 589 c 0,27,28
 337 589 337 589 332.5 588.5 c 128,-1,29
 328 588 328 588 326.5 587.5 c 128,-1,30
 325 587 325 587 319 584.5 c 128,-1,31
 313 582 313 582 309 580 c 1,32,-1
 309 74 l 1,13,14
1161 451 m 1,33,-1
 989 93 l 1,34,-1
 1161 110 l 1,35,-1
 1149 0 l 1,36,-1
 718 0 l 1,37,-1
 712 58 l 1,38,-1
 884 416 l 1,39,-1
 737 403 l 1,40,-1
 748 510 l 1,41,-1
 1156 510 l 1,42,-1
 1161 451 l 1,33,-1
EndSplineSet
Validated: 8388609
Position2: "'cpsp' Capital Spacing lookup 3 subtable" dx=5 dy=0 dh=10 dv=0
EndChar

StartChar: Dzcaron
Encoding: 453 453 29
Width: 1174
Flags: MW
HStem: -10 76<345 379 345 448> 0 93<989 989 989 1149> 410 101 589 77<334 377> 683 20G<794 794 1101 1101>
VStem: 45 264<74 74 74 580> 417 286<281 393>
LayerCount: 2
UndoRedoHistory
Layer: 0
Undoes
EndUndoes
Redoes
EndRedoes
EndUndoRedoHistory
UndoRedoHistory
Layer: 1
Undoes
EndUndoes
Redoes
EndRedoes
EndUndoRedoHistory
Fore
SplineSet
1146 651 m 1,0,-1
 1001 529 l 1,1,-1
 898 529 l 1,2,-1
 750 651 l 1,3,-1
 794 703 l 1,4,-1
 948 651 l 1,5,-1
 1101 703 l 1,6,-1
 1146 651 l 1,0,-1
45 651 m 1,7,8
 201 666 201 666 339 666 c 0,9,10
 430 666 430 666 496.5 647.5 c 128,-1,11
 563 629 563 629 610 590 c 128,-1,12
 657 551 657 551 680 487.5 c 128,-1,13
 703 424 703 424 703 335 c 0,14,15
 703 163 703 163 606.5 76.5 c 128,-1,16
 510 -10 510 -10 331 -10 c 0,17,18
 194 -10 194 -10 45 3 c 1,19,-1
 45 651 l 1,7,8
309 74 m 1,20,21
 329 66 329 66 352 66 c 0,22,23
 372 66 372 66 385.5 92 c 128,-1,24
 399 118 399 118 405.5 161.5 c 128,-1,25
 412 205 412 205 414.5 246.5 c 128,-1,26
 417 288 417 288 417 334 c 0,27,28
 417 368 417 368 416.5 394 c 128,-1,29
 416 420 416 420 413.5 451.5 c 128,-1,30
 411 483 411 483 405.5 506 c 128,-1,31
 400 529 400 529 392 548.5 c 128,-1,32
 384 568 384 568 371.5 578.5 c 128,-1,33
 359 589 359 589 343 589 c 0,34,35
 337 589 337 589 332.5 588.5 c 128,-1,36
 328 588 328 588 326.5 587.5 c 128,-1,37
 325 587 325 587 319 584.5 c 128,-1,38
 313 582 313 582 309 580 c 1,39,-1
 309 74 l 1,20,21
1161 451 m 1,40,-1
 989 93 l 1,41,-1
 1161 110 l 1,42,-1
 1149 0 l 1,43,-1
 718 0 l 1,44,-1
 712 58 l 1,45,-1
 884 416 l 1,46,-1
 737 403 l 1,47,-1
 748 510 l 1,48,-1
 1156 510 l 1,49,-1
 1161 451 l 1,40,-1
EndSplineSet
Validated: 8388609
Position2: "'cpsp' Capital Spacing lookup 3 subtable" dx=5 dy=0 dh=10 dv=0
EndChar

StartChar: E
Encoding: 69 69 30
Width: 465
Flags: MW
HStem: 0 89<309 472> 294 90<309 435 309 435> 571 89<309 465 309 309>
VStem: 45 264<89 294 384 571>
LayerCount: 2
UndoRedoHistory
Layer: 0
Undoes
EndUndoes
Redoes
EndRedoes
EndUndoRedoHistory
UndoRedoHistory
Layer: 1
Undoes
EndUndoes
Redoes
EndRedoes
EndUndoRedoHistory
Fore
SplineSet
465 571 m 1,0,-1
 309 571 l 1,1,-1
 309 384 l 1,2,-1
 435 384 l 1,3,-1
 435 294 l 1,4,-1
 309 294 l 1,5,-1
 309 89 l 1,6,-1
 480 89 l 1,7,-1
 472 0 l 1,8,-1
 45 0 l 1,9,-1
 45 660 l 1,10,-1
 465 660 l 1,11,-1
 465 571 l 1,0,-1
EndSplineSet
Validated: 1
Position2: "'cpsp' Capital Spacing lookup 3 subtable" dx=5 dy=0 dh=10 dv=0
EndChar

StartChar: Eacute
Encoding: 201 201 31
Width: 465
Flags: MW
HStem: 0 89<309 472> 294 90<309 435 309 435> 571 89<309 309 309 465>
VStem: 45 264<89 294 384 571>
LayerCount: 2
UndoRedoHistory
Layer: 0
Undoes
EndUndoes
Redoes
EndRedoes
EndUndoRedoHistory
UndoRedoHistory
Layer: 1
Undoes
EndUndoes
Redoes
EndRedoes
EndUndoRedoHistory
Fore
SplineSet
398 874 m 1,0,1
 417 858 417 858 429.5 834.5 c 128,-1,2
 442 811 442 811 442 789 c 0,3,4
 442 771 442 771 433.5 758 c 128,-1,5
 425 745 425 745 413.5 738 c 128,-1,6
 402 731 402 731 383.5 727 c 0,7,8
 365 724 365 724 350 722 c 2,9,-1
 315 718 l 1,10,-1
 306 718 l 1,11,-1
 147 707 l 1,12,-1
 134 763 l 1,13,-1
 398 874 l 1,0,1
309 571 m 1,14,-1
 309 384 l 1,15,-1
 435 384 l 1,16,-1
 435 294 l 1,17,-1
 309 294 l 1,18,-1
 309 89 l 1,19,-1
 480 89 l 1,20,-1
 472 0 l 1,21,-1
 45 0 l 1,22,-1
 45 660 l 1,23,-1
 465 660 l 1,24,-1
 465 571 l 1,25,-1
 309 571 l 1,14,-1
EndSplineSet
Validated: 524289
Position2: "'cpsp' Capital Spacing lookup 3 subtable" dx=5 dy=0 dh=10 dv=0
EndChar

StartChar: Ebreve
Encoding: 276 276 32
Width: 465
Flags: MW
HStem: 0 89<309 472> 294 90<309 435 309 435> 571 89<309 309 309 465> 699 52<236 273 236 331>
VStem: 45 264<89 294 384 571> 50 169<809 835 809 835> 291 168<809 835>
LayerCount: 2
UndoRedoHistory
Layer: 0
Undoes
EndUndoes
Redoes
EndRedoes
EndUndoRedoHistory
UndoRedoHistory
Layer: 1
Undoes
EndUndoes
Redoes
EndRedoes
EndUndoRedoHistory
Fore
SplineSet
459 835 m 1,0,1
 459 699 459 699 255 699 c 0,2,3
 50 699 50 699 50 835 c 1,4,-1
 219 835 l 1,5,6
 219 784 219 784 224 771 c 0,7,8
 232 751 232 751 255 751 c 0,9,10
 272 751 272 751 280.5 762 c 128,-1,11
 289 773 289 773 290 786 c 128,-1,12
 291 799 291 799 291 831 c 0,13,14
 291 833 291 833 291 835 c 1,15,-1
 459 835 l 1,0,1
309 571 m 1,16,-1
 309 384 l 1,17,-1
 435 384 l 1,18,-1
 435 294 l 1,19,-1
 309 294 l 1,20,-1
 309 89 l 1,21,-1
 480 89 l 1,22,-1
 472 0 l 1,23,-1
 45 0 l 1,24,-1
 45 660 l 1,25,-1
 465 660 l 1,26,-1
 465 571 l 1,27,-1
 309 571 l 1,16,-1
EndSplineSet
Validated: 8388609
Position2: "'cpsp' Capital Spacing lookup 3 subtable" dx=5 dy=0 dh=10 dv=0
EndChar

StartChar: Ecaron
Encoding: 282 282 33
Width: 465
Flags: MW
HStem: 0 89<309 472> 294 90<309 435 309 435> 571 89<309 309 309 465>
VStem: 45 264<89 294 384 571>
LayerCount: 2
UndoRedoHistory
Layer: 0
Undoes
EndUndoes
Redoes
EndRedoes
EndUndoRedoHistory
UndoRedoHistory
Layer: 1
Undoes
EndUndoes
Redoes
EndRedoes
EndUndoRedoHistory
Fore
SplineSet
453 812 m 1,0,-1
 308 690 l 1,1,-1
 205 690 l 1,2,-1
 57 812 l 1,3,-1
 101 864 l 1,4,-1
 255 812 l 1,5,-1
 408 864 l 1,6,-1
 453 812 l 1,0,-1
309 571 m 1,7,-1
 309 384 l 1,8,-1
 435 384 l 1,9,-1
 435 294 l 1,10,-1
 309 294 l 1,11,-1
 309 89 l 1,12,-1
 480 89 l 1,13,-1
 472 0 l 1,14,-1
 45 0 l 1,15,-1
 45 660 l 1,16,-1
 465 660 l 1,17,-1
 465 571 l 1,18,-1
 309 571 l 1,7,-1
EndSplineSet
Validated: 1
Position2: "'cpsp' Capital Spacing lookup 3 subtable" dx=5 dy=0 dh=10 dv=0
EndChar

StartChar: Ecircumflex
Encoding: 202 202 34
Width: 465
Flags: MW
HStem: 0 89<309 472> 294 90<309 435 309 435> 571 89<309 309 309 465>
VStem: 45 264<89 294 384 571>
LayerCount: 2
UndoRedoHistory
Layer: 0
Undoes
EndUndoes
Redoes
EndRedoes
EndUndoRedoHistory
UndoRedoHistory
Layer: 1
Undoes
EndUndoes
Redoes
EndRedoes
EndUndoRedoHistory
Fore
SplineSet
70 745 m 1,0,-1
 235 857 l 1,1,-1
 278 857 l 1,2,-1
 446 745 l 1,3,-1
 402 693 l 1,4,-1
 258 725 l 1,5,-1
 115 693 l 1,6,-1
 70 745 l 1,0,-1
309 571 m 1,7,-1
 309 384 l 1,8,-1
 435 384 l 1,9,-1
 435 294 l 1,10,-1
 309 294 l 1,11,-1
 309 89 l 1,12,-1
 480 89 l 1,13,-1
 472 0 l 1,14,-1
 45 0 l 1,15,-1
 45 660 l 1,16,-1
 465 660 l 1,17,-1
 465 571 l 1,18,-1
 309 571 l 1,7,-1
EndSplineSet
Validated: 1
Position2: "'cpsp' Capital Spacing lookup 3 subtable" dx=5 dy=0 dh=10 dv=0
EndChar

StartChar: Edieresis
Encoding: 203 203 35
Width: 465
Flags: MW
HStem: 0 89<309 472> 294 90<309 435 309 435> 571 89<309 309 309 465> 707 170<109 174 359 424>
VStem: 45 264<89 294 384 571>
LayerCount: 2
UndoRedoHistory
Layer: 0
Undoes
EndUndoes
Redoes
EndRedoes
EndUndoRedoHistory
UndoRedoHistory
Layer: 1
Undoes
EndUndoes
Redoes
EndRedoes
EndUndoRedoHistory
Fore
SplineSet
144 877 m 0,0,1
 196 877 196 877 228 854 c 128,-1,2
 260 831 260 831 260 791 c 128,-1,3
 260 751 260 751 226.5 729 c 128,-1,4
 193 707 193 707 139 707 c 0,5,6
 86 707 86 707 53 728.5 c 128,-1,7
 20 750 20 750 20 789 c 0,8,9
 20 829 20 829 55 853 c 128,-1,10
 90 877 90 877 144 877 c 0,0,1
394 877 m 0,11,12
 446 877 446 877 478 854 c 128,-1,13
 510 831 510 831 510 791 c 128,-1,14
 510 751 510 751 476.5 729 c 128,-1,15
 443 707 443 707 389 707 c 0,16,17
 336 707 336 707 303 728.5 c 128,-1,18
 270 750 270 750 270 789 c 0,19,20
 270 829 270 829 305 853 c 128,-1,21
 340 877 340 877 394 877 c 0,11,12
309 571 m 1,22,-1
 309 384 l 1,23,-1
 435 384 l 1,24,-1
 435 294 l 1,25,-1
 309 294 l 1,26,-1
 309 89 l 1,27,-1
 480 89 l 1,28,-1
 472 0 l 1,29,-1
 45 0 l 1,30,-1
 45 660 l 1,31,-1
 465 660 l 1,32,-1
 465 571 l 1,33,-1
 309 571 l 1,22,-1
EndSplineSet
Validated: 1
Position2: "'cpsp' Capital Spacing lookup 3 subtable" dx=5 dy=0 dh=10 dv=0
EndChar

StartChar: Edotaccent
Encoding: 278 278 36
Width: 465
Flags: MW
HStem: 0 89<309 472> 294 90<309 435 309 435> 571 89<309 309 309 465> 706 170<209 274>
VStem: 45 264<89 294 384 571>
LayerCount: 2
UndoRedoHistory
Layer: 0
Undoes
EndUndoes
Redoes
EndRedoes
EndUndoRedoHistory
UndoRedoHistory
Layer: 1
Undoes
EndUndoes
Redoes
EndRedoes
EndUndoRedoHistory
Fore
SplineSet
244 876 m 0,0,1
 296 876 296 876 328 853 c 128,-1,2
 360 830 360 830 360 790 c 128,-1,3
 360 750 360 750 326.5 728 c 128,-1,4
 293 706 293 706 239 706 c 0,5,6
 186 706 186 706 153 727.5 c 128,-1,7
 120 749 120 749 120 788 c 0,8,9
 120 828 120 828 155 852 c 128,-1,10
 190 876 190 876 244 876 c 0,0,1
309 571 m 1,11,-1
 309 384 l 1,12,-1
 435 384 l 1,13,-1
 435 294 l 1,14,-1
 309 294 l 1,15,-1
 309 89 l 1,16,-1
 480 89 l 1,17,-1
 472 0 l 1,18,-1
 45 0 l 1,19,-1
 45 660 l 1,20,-1
 465 660 l 1,21,-1
 465 571 l 1,22,-1
 309 571 l 1,11,-1
EndSplineSet
Validated: 1
Position2: "'cpsp' Capital Spacing lookup 3 subtable" dx=5 dy=0 dh=10 dv=0
EndChar

StartChar: Edotbelow
Encoding: 7864 7864 37
Width: 465
Flags: MW
HStem: -202 170<211 276> 0 89<309 472> 294 90<309 435 309 435> 571 89<309 309 309 465>
VStem: 45 264<89 294 384 571>
LayerCount: 2
UndoRedoHistory
Layer: 0
Undoes
EndUndoes
Redoes
EndRedoes
EndUndoRedoHistory
UndoRedoHistory
Layer: 1
Undoes
EndUndoes
Redoes
EndRedoes
EndUndoRedoHistory
Fore
SplineSet
309 571 m 1,0,-1
 309 384 l 1,1,-1
 435 384 l 1,2,-1
 435 294 l 1,3,-1
 309 294 l 1,4,-1
 309 89 l 1,5,-1
 480 89 l 1,6,-1
 472 0 l 1,7,-1
 45 0 l 1,8,-1
 45 660 l 1,9,-1
 465 660 l 1,10,-1
 465 571 l 1,11,-1
 309 571 l 1,0,-1
246 -32 m 0,12,13
 298 -32 298 -32 330 -55 c 128,-1,14
 362 -78 362 -78 362 -118 c 128,-1,15
 362 -158 362 -158 328.5 -180 c 128,-1,16
 295 -202 295 -202 241 -202 c 0,17,18
 188 -202 188 -202 155 -180.5 c 128,-1,19
 122 -159 122 -159 122 -120 c 0,20,21
 122 -80 122 -80 157 -56 c 128,-1,22
 192 -32 192 -32 246 -32 c 0,12,13
EndSplineSet
Validated: 1
Position2: "'cpsp' Capital Spacing lookup 3 subtable" dx=5 dy=0 dh=10 dv=0
EndChar

StartChar: Egrave
Encoding: 200 200 38
Width: 465
Flags: MW
HStem: 0 89<309 472> 294 90<309 435 309 435> 571 89<309 309 309 465>
VStem: 45 264<89 294 384 571>
LayerCount: 2
UndoRedoHistory
Layer: 0
Undoes
EndUndoes
Redoes
EndRedoes
EndUndoRedoHistory
UndoRedoHistory
Layer: 1
Undoes
EndUndoes
Redoes
EndRedoes
EndUndoRedoHistory
Fore
SplineSet
204 720 m 2,0,1
 143 724 143 724 122 730 c 0,2,3
 68 745 68 745 68 791 c 0,4,5
 68 812 68 812 80.5 836 c 128,-1,6
 93 860 93 860 111 876 c 1,7,-1
 376 765 l 1,8,-1
 363 709 l 1,9,-1
 204 720 l 2,0,1
309 571 m 1,10,-1
 309 384 l 1,11,-1
 435 384 l 1,12,-1
 435 294 l 1,13,-1
 309 294 l 1,14,-1
 309 89 l 1,15,-1
 480 89 l 1,16,-1
 472 0 l 1,17,-1
 45 0 l 1,18,-1
 45 660 l 1,19,-1
 465 660 l 1,20,-1
 465 571 l 1,21,-1
 309 571 l 1,10,-1
EndSplineSet
Validated: 1
Position2: "'cpsp' Capital Spacing lookup 3 subtable" dx=5 dy=0 dh=10 dv=0
EndChar

StartChar: Emacron
Encoding: 274 274 39
Width: 465
Flags: MW
HStem: 0 89<309 472> 294 90<309 435 309 435> 571 89<309 309 309 465> 747 97<171 379 121 426>
VStem: 45 264<89 294 384 571>
LayerCount: 2
UndoRedoHistory
Layer: 0
Undoes
EndUndoes
Redoes
EndRedoes
EndUndoRedoHistory
UndoRedoHistory
Layer: 1
Undoes
EndUndoes
Redoes
EndRedoes
EndUndoRedoHistory
Fore
SplineSet
426 844 m 1,0,1
 435 831 435 831 435 805 c 128,-1,2
 435 779 435 779 419 763 c 128,-1,3
 403 747 403 747 379 747 c 2,4,-1
 121 747 l 1,5,6
 111 762 111 762 111 788 c 0,7,8
 111 813 111 813 127.5 828.5 c 128,-1,9
 144 844 144 844 171 844 c 2,10,-1
 426 844 l 1,0,1
309 571 m 1,11,-1
 309 384 l 1,12,-1
 435 384 l 1,13,-1
 435 294 l 1,14,-1
 309 294 l 1,15,-1
 309 89 l 1,16,-1
 480 89 l 1,17,-1
 472 0 l 1,18,-1
 45 0 l 1,19,-1
 45 660 l 1,20,-1
 465 660 l 1,21,-1
 465 571 l 1,22,-1
 309 571 l 1,11,-1
EndSplineSet
Validated: 1
Position2: "'cpsp' Capital Spacing lookup 3 subtable" dx=5 dy=0 dh=10 dv=0
EndChar

StartChar: Eogonek
Encoding: 280 280 40
Width: 465
Flags: MW
HStem: -274 102<358 451> 0 89<309 385 467 472 467 467> 294 90<309 435 309 435> 571 89<309 465 309 309>
VStem: 45 264<89 294 384 571> 243 138<-144 -123>
LayerCount: 2
UndoRedoHistory
Layer: 0
Undoes
EndUndoes
Redoes
EndRedoes
EndUndoRedoHistory
UndoRedoHistory
Layer: 1
Undoes
EndUndoes
Redoes
EndRedoes
EndUndoRedoHistory
Fore
SplineSet
467 0 m 1,0,1
 381 -62 381 -62 381 -125 c 0,2,3
 381 -152 381 -152 396 -162 c 128,-1,4
 411 -172 411 -172 441 -172 c 0,5,6
 459 -172 459 -172 478.5 -165.5 c 128,-1,7
 498 -159 498 -159 504 -145 c 1,8,9
 536 -167 536 -167 536 -200 c 0,10,11
 536 -219 536 -219 520.5 -234.5 c 128,-1,12
 505 -250 505 -250 482 -258 c 128,-1,13
 459 -266 459 -266 436 -270 c 128,-1,14
 413 -274 413 -274 394 -274 c 0,15,16
 372 -274 372 -274 351.5 -271 c 128,-1,17
 331 -268 331 -268 311 -260.5 c 128,-1,18
 291 -253 291 -253 276 -242 c 128,-1,19
 261 -231 261 -231 252 -212.5 c 128,-1,20
 243 -194 243 -194 243 -171 c 0,21,22
 243 -136 243 -136 253.5 -108 c 128,-1,23
 264 -80 264 -80 284.5 -60 c 128,-1,24
 305 -40 305 -40 329 -26 c 128,-1,25
 353 -12 353 -12 385 0 c 1,26,-1
 45 0 l 1,27,-1
 45 660 l 1,28,-1
 465 660 l 1,29,-1
 465 571 l 1,30,-1
 309 571 l 1,31,-1
 309 384 l 1,32,-1
 435 384 l 1,33,-1
 435 294 l 1,34,-1
 309 294 l 1,35,-1
 309 89 l 1,36,-1
 480 89 l 1,37,-1
 473 10 l 1,38,-1
 482 10 l 1,39,-1
 472 4 l 1,40,-1
 472 0 l 1,41,-1
 467 0 l 1,0,1
EndSplineSet
Validated: 8388609
Position2: "'cpsp' Capital Spacing lookup 3 subtable" dx=5 dy=0 dh=10 dv=0
EndChar

StartChar: Etilde
Encoding: 7868 7868 41
Width: 465
Flags: MW
HStem: 0 89<309 472> 294 90<309 435 309 435> 571 89<309 309 309 465> 706 114<356 392> 724 114<121 156>
VStem: 45 264<89 294 384 571>
LayerCount: 2
UndoRedoHistory
Layer: 0
Undoes
EndUndoes
Redoes
EndRedoes
EndUndoRedoHistory
UndoRedoHistory
Layer: 1
Undoes
EndUndoes
Redoes
EndRedoes
EndUndoRedoHistory
Fore
SplineSet
459 843 m 1,0,1
 480 807 480 807 480 778 c 0,2,3
 480 756 480 756 470.5 740.5 c 128,-1,4
 461 725 461 725 443 718 c 128,-1,5
 425 711 425 711 406 708.5 c 128,-1,6
 387 706 387 706 360 706 c 0,7,8
 330 706 330 706 243 715 c 128,-1,9
 156 724 156 724 124 724 c 0,10,11
 76 724 76 724 54 701 c 1,12,13
 33 737 33 737 33 766 c 0,14,15
 33 788 33 788 42.5 803.5 c 128,-1,16
 52 819 52 819 69.5 826 c 128,-1,17
 87 833 87 833 106 835.5 c 128,-1,18
 125 838 125 838 153 838 c 0,19,20
 183 838 183 838 269.5 829 c 128,-1,21
 356 820 356 820 389 820 c 0,22,23
 437 820 437 820 459 843 c 1,0,1
309 571 m 1,24,-1
 309 384 l 1,25,-1
 435 384 l 1,26,-1
 435 294 l 1,27,-1
 309 294 l 1,28,-1
 309 89 l 1,29,-1
 480 89 l 1,30,-1
 472 0 l 1,31,-1
 45 0 l 1,32,-1
 45 660 l 1,33,-1
 465 660 l 1,34,-1
 465 571 l 1,35,-1
 309 571 l 1,24,-1
EndSplineSet
Validated: 8388609
Position2: "'cpsp' Capital Spacing lookup 3 subtable" dx=5 dy=0 dh=10 dv=0
EndChar

StartChar: F
Encoding: 70 70 42
Width: 453
Flags: MW
HStem: 280 90<309 435 309 435> 571 89<309 465 309 309>
VStem: 45 264<0 280 370 571>
LayerCount: 2
UndoRedoHistory
Layer: 0
Undoes
EndUndoes
Redoes
EndRedoes
EndUndoRedoHistory
UndoRedoHistory
Layer: 1
Undoes
EndUndoes
Redoes
EndRedoes
EndUndoRedoHistory
Fore
SplineSet
465 571 m 1,0,-1
 309 571 l 1,1,-1
 309 370 l 1,2,-1
 435 370 l 1,3,-1
 435 280 l 1,4,-1
 309 280 l 1,5,-1
 309 0 l 1,6,-1
 45 0 l 1,7,-1
 45 660 l 1,8,-1
 465 660 l 1,9,-1
 465 571 l 1,0,-1
EndSplineSet
Validated: 1
Position2: "'cpsp' Capital Spacing lookup 3 subtable" dx=5 dy=0 dh=10 dv=0
EndChar

StartChar: G
Encoding: 71 71 43
Width: 643
Flags: MW
HStem: -22 151<363 413> 604 76<335 401>
VStem: 12 284<317 416 317 446> 442 197<508 511> 447 176
LayerCount: 2
UndoRedoHistory
Layer: 0
Undoes
EndUndoes
Redoes
EndRedoes
EndUndoRedoHistory
UndoRedoHistory
Layer: 1
Undoes
EndUndoes
Redoes
EndRedoes
EndUndoRedoHistory
Fore
SplineSet
624 19 m 1,0,1
 561 -4 561 -4 500.5 -13 c 128,-1,2
 440 -22 440 -22 366 -22 c 0,3,4
 295 -22 295 -22 236 -4 c 128,-1,5
 177 14 177 14 136 46 c 128,-1,6
 95 78 95 78 67 122 c 128,-1,7
 39 166 39 166 25.5 217 c 128,-1,8
 12 268 12 268 12 325 c 0,9,10
 12 504 12 504 108 592 c 128,-1,11
 204 680 204 680 387 680 c 0,12,13
 419 680 419 680 445.5 678.5 c 128,-1,14
 472 677 472 677 502.5 672 c 128,-1,15
 533 667 533 667 556 658 c 128,-1,16
 579 649 579 649 598.5 635 c 128,-1,17
 618 621 618 621 628.5 599.5 c 128,-1,18
 639 578 639 578 639 551 c 0,19,20
 639 489 639 489 595.5 455 c 128,-1,21
 552 421 552 421 489 421 c 0,22,23
 473 421 473 421 437 423 c 1,24,25
 442 452 442 452 442 480 c 0,26,27
 442 506 442 506 439.5 525.5 c 128,-1,28
 437 545 437 545 429.5 564 c 128,-1,29
 422 583 422 583 407.5 593.5 c 128,-1,30
 393 604 393 604 371 604 c 0,31,32
 296 604 296 604 296 381 c 0,33,34
 296 350 296 350 297 326.5 c 128,-1,35
 298 303 298 303 301 275.5 c 128,-1,36
 304 248 304 248 309 228 c 128,-1,37
 314 208 314 208 323.5 188.5 c 128,-1,38
 333 169 333 169 345.5 156.5 c 128,-1,39
 358 144 358 144 377 136.5 c 128,-1,40
 396 129 396 129 419 129 c 0,41,42
 439 129 439 129 452 134 c 1,43,-1
 443 303 l 1,44,-1
 624 317 l 1,45,-1
 624 19 l 1,0,1
EndSplineSet
Validated: 8388609
Position2: "'cpsp' Capital Spacing lookup 3 subtable" dx=5 dy=0 dh=10 dv=0
EndChar

StartChar: Gbreve
Encoding: 286 286 44
Width: 643
Flags: MW
HStem: -22 151<363 413> 604 76<335 401> 699 52<354 391 354 448>
VStem: 12 284<317 416 317 446> 167 169<809 835 809 835> 408 168<809 835> 442 197<508 511> 447 176
LayerCount: 2
UndoRedoHistory
Layer: 0
Undoes
EndUndoes
Redoes
EndRedoes
EndUndoRedoHistory
UndoRedoHistory
Layer: 1
Undoes
EndUndoes
Redoes
EndRedoes
EndUndoRedoHistory
Fore
SplineSet
576 835 m 1,0,1
 576 699 576 699 372 699 c 0,2,3
 167 699 167 699 167 835 c 1,4,-1
 336 835 l 1,5,-1
 336 831 l 1,6,-1
 336 802 l 2,7,8
 336 794 336 794 338 781.5 c 128,-1,9
 340 769 340 769 344 764 c 128,-1,10
 348 759 348 759 354.5 755 c 128,-1,11
 361 751 361 751 372 751 c 0,12,13
 389 751 389 751 397.5 762 c 128,-1,14
 406 773 406 773 407 786 c 128,-1,15
 408 799 408 799 408 831 c 0,16,17
 408 833 408 833 408 835 c 1,18,-1
 576 835 l 1,0,1
624 19 m 1,19,20
 561 -4 561 -4 500.5 -13 c 128,-1,21
 440 -22 440 -22 366 -22 c 0,22,23
 295 -22 295 -22 236 -4 c 128,-1,24
 177 14 177 14 136 46 c 128,-1,25
 95 78 95 78 67 122 c 128,-1,26
 39 166 39 166 25.5 217 c 128,-1,27
 12 268 12 268 12 325 c 0,28,29
 12 504 12 504 108 592 c 128,-1,30
 204 680 204 680 387 680 c 0,31,32
 419 680 419 680 445.5 678.5 c 128,-1,33
 472 677 472 677 502.5 672 c 128,-1,34
 533 667 533 667 556 658 c 128,-1,35
 579 649 579 649 598.5 635 c 128,-1,36
 618 621 618 621 628.5 599.5 c 128,-1,37
 639 578 639 578 639 551 c 0,38,39
 639 489 639 489 595.5 455 c 128,-1,40
 552 421 552 421 489 421 c 0,41,42
 473 421 473 421 437 423 c 1,43,44
 442 452 442 452 442 480 c 0,45,46
 442 506 442 506 439.5 525.5 c 128,-1,47
 437 545 437 545 429.5 564 c 128,-1,48
 422 583 422 583 407.5 593.5 c 128,-1,49
 393 604 393 604 371 604 c 0,50,51
 296 604 296 604 296 381 c 0,52,53
 296 350 296 350 297 326.5 c 128,-1,54
 298 303 298 303 301 275.5 c 128,-1,55
 304 248 304 248 309 228 c 128,-1,56
 314 208 314 208 323.5 188.5 c 128,-1,57
 333 169 333 169 345.5 156.5 c 128,-1,58
 358 144 358 144 377 136.5 c 128,-1,59
 396 129 396 129 419 129 c 0,60,61
 439 129 439 129 452 134 c 1,62,-1
 443 303 l 1,63,-1
 624 317 l 1,64,-1
 624 19 l 1,19,20
EndSplineSet
Validated: 8388609
Position2: "'cpsp' Capital Spacing lookup 3 subtable" dx=5 dy=0 dh=10 dv=0
EndChar

StartChar: Gcircumflex
Encoding: 284 284 45
Width: 643
Flags: MW
HStem: -22 151<363 413> 604 76<335 401>
VStem: 12 284<317 416 317 446> 442 197<508 511> 447 176
LayerCount: 2
UndoRedoHistory
Layer: 0
Undoes
EndUndoes
Redoes
EndRedoes
EndUndoRedoHistory
UndoRedoHistory
Layer: 1
Undoes
EndUndoes
Redoes
EndRedoes
EndUndoRedoHistory
Fore
SplineSet
188 745 m 1,0,-1
 353 857 l 1,1,-1
 396 857 l 1,2,-1
 564 745 l 1,3,-1
 520 693 l 1,4,-1
 376 725 l 1,5,-1
 233 693 l 1,6,-1
 188 745 l 1,0,-1
624 19 m 1,7,8
 561 -4 561 -4 500.5 -13 c 128,-1,9
 440 -22 440 -22 366 -22 c 0,10,11
 295 -22 295 -22 236 -4 c 128,-1,12
 177 14 177 14 136 46 c 128,-1,13
 95 78 95 78 67 122 c 128,-1,14
 39 166 39 166 25.5 217 c 128,-1,15
 12 268 12 268 12 325 c 0,16,17
 12 504 12 504 108 592 c 128,-1,18
 204 680 204 680 387 680 c 0,19,20
 419 680 419 680 445.5 678.5 c 128,-1,21
 472 677 472 677 502.5 672 c 128,-1,22
 533 667 533 667 556 658 c 128,-1,23
 579 649 579 649 598.5 635 c 128,-1,24
 618 621 618 621 628.5 599.5 c 128,-1,25
 639 578 639 578 639 551 c 0,26,27
 639 489 639 489 595.5 455 c 128,-1,28
 552 421 552 421 489 421 c 0,29,30
 473 421 473 421 437 423 c 1,31,32
 442 452 442 452 442 480 c 0,33,34
 442 506 442 506 439.5 525.5 c 128,-1,35
 437 545 437 545 429.5 564 c 128,-1,36
 422 583 422 583 407.5 593.5 c 128,-1,37
 393 604 393 604 371 604 c 0,38,39
 296 604 296 604 296 381 c 0,40,41
 296 350 296 350 297 326.5 c 128,-1,42
 298 303 298 303 301 275.5 c 128,-1,43
 304 248 304 248 309 228 c 128,-1,44
 314 208 314 208 323.5 188.5 c 128,-1,45
 333 169 333 169 345.5 156.5 c 128,-1,46
 358 144 358 144 377 136.5 c 128,-1,47
 396 129 396 129 419 129 c 0,48,49
 439 129 439 129 452 134 c 1,50,-1
 443 303 l 1,51,-1
 624 317 l 1,52,-1
 624 19 l 1,7,8
EndSplineSet
Validated: 8388609
Position2: "'cpsp' Capital Spacing lookup 3 subtable" dx=5 dy=0 dh=10 dv=0
EndChar

StartChar: Gcommaaccent
Encoding: 290 290 46
Width: 643
Flags: MW
HStem: -22 151<363 413> 604 76<335 401>
VStem: 12 284<317 416 317 446> 332 155<-172 -145> 442 197<508 511> 447 176
LayerCount: 2
UndoRedoHistory
Layer: 0
Undoes
EndUndoes
Redoes
EndRedoes
EndUndoRedoHistory
UndoRedoHistory
Layer: 1
Undoes
EndUndoes
Redoes
EndRedoes
EndUndoRedoHistory
Fore
SplineSet
624 19 m 1,0,1
 561 -4 561 -4 500.5 -13 c 128,-1,2
 440 -22 440 -22 366 -22 c 0,3,4
 295 -22 295 -22 236 -4 c 128,-1,5
 177 14 177 14 136 46 c 128,-1,6
 95 78 95 78 67 122 c 128,-1,7
 39 166 39 166 25.5 217 c 128,-1,8
 12 268 12 268 12 325 c 0,9,10
 12 504 12 504 108 592 c 128,-1,11
 204 680 204 680 387 680 c 0,12,13
 419 680 419 680 445.5 678.5 c 128,-1,14
 472 677 472 677 502.5 672 c 128,-1,15
 533 667 533 667 556 658 c 128,-1,16
 579 649 579 649 598.5 635 c 128,-1,17
 618 621 618 621 628.5 599.5 c 128,-1,18
 639 578 639 578 639 551 c 0,19,20
 639 489 639 489 595.5 455 c 128,-1,21
 552 421 552 421 489 421 c 0,22,23
 473 421 473 421 437 423 c 1,24,25
 442 452 442 452 442 480 c 0,26,27
 442 506 442 506 439.5 525.5 c 128,-1,28
 437 545 437 545 429.5 564 c 128,-1,29
 422 583 422 583 407.5 593.5 c 128,-1,30
 393 604 393 604 371 604 c 0,31,32
 296 604 296 604 296 381 c 0,33,34
 296 350 296 350 297 326.5 c 128,-1,35
 298 303 298 303 301 275.5 c 128,-1,36
 304 248 304 248 309 228 c 128,-1,37
 314 208 314 208 323.5 188.5 c 128,-1,38
 333 169 333 169 345.5 156.5 c 128,-1,39
 358 144 358 144 377 136.5 c 128,-1,40
 396 129 396 129 419 129 c 0,41,42
 439 129 439 129 452 134 c 1,43,-1
 443 303 l 1,44,-1
 624 317 l 1,45,-1
 624 19 l 1,0,1
381 -52 m 0,46,47
 438 -52 438 -52 462.5 -71.5 c 128,-1,48
 487 -91 487 -91 487 -136 c 0,49,50
 487 -191 487 -191 441.5 -230 c 128,-1,51
 396 -269 396 -269 330 -269 c 0,52,53
 324 -269 324 -269 287 -266 c 1,54,55
 332 -212 332 -212 332 -161 c 128,-1,56
 332 -110 332 -110 307 -68 c 1,57,58
 315 -62 315 -62 337.5 -57 c 128,-1,59
 360 -52 360 -52 381 -52 c 0,46,47
EndSplineSet
Validated: 8388609
Position2: "'cpsp' Capital Spacing lookup 3 subtable" dx=5 dy=0 dh=10 dv=0
EndChar

StartChar: Gdotaccent
Encoding: 288 288 47
Width: 643
Flags: MW
HStem: -22 151<363 413> 604 76<335 401> 735 170<328 393>
VStem: 12 284<317 416 317 446> 442 197<508 511> 447 176
LayerCount: 2
UndoRedoHistory
Layer: 0
Undoes
EndUndoes
Redoes
EndRedoes
EndUndoRedoHistory
UndoRedoHistory
Layer: 1
Undoes
EndUndoes
Redoes
EndRedoes
EndUndoRedoHistory
Fore
SplineSet
363 905 m 0,0,1
 415 905 415 905 447 882 c 128,-1,2
 479 859 479 859 479 819 c 128,-1,3
 479 779 479 779 445.5 757 c 128,-1,4
 412 735 412 735 358 735 c 0,5,6
 305 735 305 735 272 756.5 c 128,-1,7
 239 778 239 778 239 817 c 0,8,9
 239 857 239 857 274 881 c 128,-1,10
 309 905 309 905 363 905 c 0,0,1
624 19 m 1,11,12
 561 -4 561 -4 500.5 -13 c 128,-1,13
 440 -22 440 -22 366 -22 c 0,14,15
 295 -22 295 -22 236 -4 c 128,-1,16
 177 14 177 14 136 46 c 128,-1,17
 95 78 95 78 67 122 c 128,-1,18
 39 166 39 166 25.5 217 c 128,-1,19
 12 268 12 268 12 325 c 0,20,21
 12 504 12 504 108 592 c 128,-1,22
 204 680 204 680 387 680 c 0,23,24
 419 680 419 680 445.5 678.5 c 128,-1,25
 472 677 472 677 502.5 672 c 128,-1,26
 533 667 533 667 556 658 c 128,-1,27
 579 649 579 649 598.5 635 c 128,-1,28
 618 621 618 621 628.5 599.5 c 128,-1,29
 639 578 639 578 639 551 c 0,30,31
 639 489 639 489 595.5 455 c 128,-1,32
 552 421 552 421 489 421 c 0,33,34
 473 421 473 421 437 423 c 1,35,36
 442 452 442 452 442 480 c 0,37,38
 442 506 442 506 439.5 525.5 c 128,-1,39
 437 545 437 545 429.5 564 c 128,-1,40
 422 583 422 583 407.5 593.5 c 128,-1,41
 393 604 393 604 371 604 c 0,42,43
 296 604 296 604 296 381 c 0,44,45
 296 350 296 350 297 326.5 c 128,-1,46
 298 303 298 303 301 275.5 c 128,-1,47
 304 248 304 248 309 228 c 128,-1,48
 314 208 314 208 323.5 188.5 c 128,-1,49
 333 169 333 169 345.5 156.5 c 128,-1,50
 358 144 358 144 377 136.5 c 128,-1,51
 396 129 396 129 419 129 c 0,52,53
 439 129 439 129 452 134 c 1,54,-1
 443 303 l 1,55,-1
 624 317 l 1,56,-1
 624 19 l 1,11,12
EndSplineSet
Validated: 8388609
Position2: "'cpsp' Capital Spacing lookup 3 subtable" dx=5 dy=0 dh=10 dv=0
EndChar

StartChar: H
Encoding: 72 72 48
Width: 722
Flags: MW
HStem: 289 90<309 415 309 415> 640 20G<45 309 309 309 415 679 679 679>
VStem: 45 264<0 289 0 379 379 660> 415 264<0 289 289 289 379 660>
LayerCount: 2
UndoRedoHistory
Layer: 0
Undoes
EndUndoes
Redoes
EndRedoes
EndUndoRedoHistory
UndoRedoHistory
Layer: 1
Undoes
EndUndoes
Redoes
EndRedoes
EndUndoRedoHistory
Fore
SplineSet
679 0 m 1,0,-1
 415 0 l 1,1,-1
 415 289 l 1,2,-1
 309 289 l 1,3,-1
 309 0 l 1,4,-1
 45 0 l 1,5,-1
 45 660 l 1,6,-1
 309 660 l 1,7,-1
 309 379 l 1,8,-1
 415 379 l 1,9,-1
 415 660 l 1,10,-1
 679 660 l 1,11,-1
 679 0 l 1,0,-1
EndSplineSet
Validated: 1
Position2: "'cpsp' Capital Spacing lookup 3 subtable" dx=5 dy=0 dh=10 dv=0
EndChar

StartChar: Hbar
Encoding: 294 294 49
Width: 772
Flags: MW
HStem: 289 90<334 440 334 440> 502 103<6 70 6 70 334 440> 502 158<6 334 6 334 70 334 70 440>
VStem: 70 264<0 289 0 379 379 502 0 502 605 660> 440 264<0 289 289 289 379 502 0 502 605 660 0 660>
LayerCount: 2
UndoRedoHistory
Layer: 0
Undoes
EndUndoes
Redoes
EndRedoes
EndUndoRedoHistory
UndoRedoHistory
Layer: 1
Undoes
EndUndoes
Redoes
EndRedoes
EndUndoRedoHistory
Fore
SplineSet
769 605 m 1,0,1
 770 596 770 596 770 578 c 0,2,3
 770 543 770 543 752 524 c 128,-1,4
 734 505 734 505 704 502 c 1,5,-1
 704 0 l 1,6,-1
 440 0 l 1,7,-1
 440 289 l 1,8,-1
 334 289 l 1,9,-1
 334 0 l 1,10,-1
 70 0 l 1,11,-1
 70 502 l 1,12,-1
 6 502 l 1,13,14
 4 508 4 508 4 530 c 0,15,16
 4 565 4 565 21.5 583.5 c 128,-1,17
 39 602 39 602 70 605 c 1,18,-1
 70 660 l 1,19,-1
 334 660 l 1,20,-1
 334 605 l 1,21,-1
 440 605 l 1,22,-1
 440 660 l 1,23,-1
 704 660 l 1,24,-1
 704 605 l 1,25,-1
 769 605 l 1,0,1
440 502 m 1,26,-1
 334 502 l 1,27,-1
 334 379 l 1,28,-1
 440 379 l 1,29,-1
 440 502 l 1,26,-1
EndSplineSet
Validated: 8388609
Position2: "'cpsp' Capital Spacing lookup 3 subtable" dx=5 dy=0 dh=10 dv=0
EndChar

StartChar: Hcircumflex
Encoding: 292 292 50
Width: 722
Flags: MW
HStem: 289 90<309 415 309 415> 640 20G<45 309 309 309 415 679 679 679>
VStem: 45 264<0 289 0 379 379 660> 415 264<0 289 289 289 379 660 0 660>
LayerCount: 2
UndoRedoHistory
Layer: 0
Undoes
EndUndoes
Redoes
EndRedoes
EndUndoRedoHistory
UndoRedoHistory
Layer: 1
Undoes
EndUndoes
Redoes
EndRedoes
EndUndoRedoHistory
Fore
SplineSet
177 745 m 1,0,-1
 342 857 l 1,1,-1
 385 857 l 1,2,-1
 553 745 l 1,3,-1
 509 693 l 1,4,-1
 365 725 l 1,5,-1
 222 693 l 1,6,-1
 177 745 l 1,0,-1
415 0 m 1,7,-1
 415 289 l 1,8,-1
 309 289 l 1,9,-1
 309 0 l 1,10,-1
 45 0 l 1,11,-1
 45 660 l 1,12,-1
 309 660 l 1,13,-1
 309 379 l 1,14,-1
 415 379 l 1,15,-1
 415 660 l 1,16,-1
 679 660 l 1,17,-1
 679 0 l 1,18,-1
 415 0 l 1,7,-1
EndSplineSet
Validated: 1
Position2: "'cpsp' Capital Spacing lookup 3 subtable" dx=5 dy=0 dh=10 dv=0
EndChar

StartChar: Hdotbelow
Encoding: 7716 7716 51
Width: 722
Flags: MW
HStem: -202 170<338 403> 289 90<309 415 309 415> 640 20G<45 309 309 309 415 679 679 679>
VStem: 45 264<0 289 0 379 379 660> 415 264<0 289 289 289 379 660 0 660>
LayerCount: 2
UndoRedoHistory
Layer: 0
Undoes
EndUndoes
Redoes
EndRedoes
EndUndoRedoHistory
UndoRedoHistory
Layer: 1
Undoes
EndUndoes
Redoes
EndRedoes
EndUndoRedoHistory
Fore
SplineSet
415 0 m 1,0,-1
 415 289 l 1,1,-1
 309 289 l 1,2,-1
 309 0 l 1,3,-1
 45 0 l 1,4,-1
 45 660 l 1,5,-1
 309 660 l 1,6,-1
 309 379 l 1,7,-1
 415 379 l 1,8,-1
 415 660 l 1,9,-1
 679 660 l 1,10,-1
 679 0 l 1,11,-1
 415 0 l 1,0,-1
373 -32 m 0,12,13
 425 -32 425 -32 457 -55 c 128,-1,14
 489 -78 489 -78 489 -118 c 128,-1,15
 489 -158 489 -158 455.5 -180 c 128,-1,16
 422 -202 422 -202 368 -202 c 0,17,18
 315 -202 315 -202 282 -180.5 c 128,-1,19
 249 -159 249 -159 249 -120 c 0,20,21
 249 -80 249 -80 284 -56 c 128,-1,22
 319 -32 319 -32 373 -32 c 0,12,13
EndSplineSet
Validated: 1
Position2: "'cpsp' Capital Spacing lookup 3 subtable" dx=5 dy=0 dh=10 dv=0
EndChar

StartChar: I
Encoding: 73 73 52
Width: 352
Flags: MW
HStem: 640 20G<45 309 309 309>
VStem: 45 264<0 660>
LayerCount: 2
UndoRedoHistory
Layer: 0
Undoes
EndUndoes
Redoes
EndRedoes
EndUndoRedoHistory
UndoRedoHistory
Layer: 1
Undoes
EndUndoes
Redoes
EndRedoes
EndUndoRedoHistory
Fore
SplineSet
309 0 m 1,0,-1
 45 0 l 1,1,-1
 45 660 l 1,2,-1
 309 660 l 1,3,-1
 309 0 l 1,0,-1
EndSplineSet
Validated: 1
Position2: "'cpsp' Capital Spacing lookup 3 subtable" dx=5 dy=0 dh=10 dv=0
EndChar

StartChar: IJ
Encoding: 306 306 53
Width: 705
Flags: MW
HStem: 640 20G<45 309 309 309 398 662 662 662>
VStem: 45 264<0 660 0 660> 398 264<48 70 70 660>
LayerCount: 2
UndoRedoHistory
Layer: 0
Undoes
EndUndoes
Redoes
EndRedoes
EndUndoRedoHistory
UndoRedoHistory
Layer: 1
Undoes
EndUndoes
Redoes
EndRedoes
EndUndoRedoHistory
Fore
SplineSet
45 0 m 1,0,-1
 45 660 l 1,1,-1
 309 660 l 1,2,-1
 309 0 l 1,3,-1
 45 0 l 1,0,-1
662 70 m 2,4,5
 662 8 662 8 652.5 -39.5 c 128,-1,6
 643 -87 643 -87 621.5 -126 c 128,-1,7
 600 -165 600 -165 560 -185.5 c 128,-1,8
 520 -206 520 -206 464 -206 c 0,9,10
 350 -206 350 -206 312 -147 c 1,11,12
 326 -145 326 -145 337.5 -139.5 c 128,-1,13
 349 -134 349 -134 357.5 -128 c 128,-1,14
 366 -122 366 -122 372.5 -111 c 128,-1,15
 379 -100 379 -100 383.5 -92 c 128,-1,16
 388 -84 388 -84 391 -69 c 128,-1,17
 394 -54 394 -54 395 -45.5 c 128,-1,18
 396 -37 396 -37 397 -18.5 c 128,-1,19
 398 0 398 0 398 8 c 2,20,-1
 398 37 l 1,21,-1
 398 48 l 1,22,-1
 398 660 l 1,23,-1
 662 660 l 1,24,-1
 662 70 l 2,4,5
EndSplineSet
Validated: 1
Position2: "'cpsp' Capital Spacing lookup 3 subtable" dx=5 dy=0 dh=10 dv=0
EndChar

StartChar: Iacute
Encoding: 205 205 54
Width: 352
Flags: MW
HStem: 640 20G<45 309 309 309>
VStem: 45 264<0 660 0 660>
LayerCount: 2
UndoRedoHistory
Layer: 0
Undoes
EndUndoes
Redoes
EndRedoes
EndUndoRedoHistory
UndoRedoHistory
Layer: 1
Undoes
EndUndoes
Redoes
EndRedoes
EndUndoRedoHistory
Fore
SplineSet
320 874 m 1,0,1
 339 858 339 858 351.5 834.5 c 128,-1,2
 364 811 364 811 364 789 c 0,3,4
 364 771 364 771 355.5 758 c 128,-1,5
 347 745 347 745 335.5 738 c 128,-1,6
 324 731 324 731 305.5 727 c 0,7,8
 287 724 287 724 272 722 c 2,9,-1
 237 718 l 1,10,-1
 234 718 l 1,11,-1
 231 718 l 1,12,-1
 228 718 l 1,13,-1
 69 707 l 1,14,-1
 56 763 l 1,15,-1
 320 874 l 1,0,1
45 0 m 1,16,-1
 45 660 l 1,17,-1
 309 660 l 1,18,-1
 309 0 l 1,19,-1
 45 0 l 1,16,-1
EndSplineSet
Validated: 524289
Position2: "'cpsp' Capital Spacing lookup 3 subtable" dx=5 dy=0 dh=10 dv=0
EndChar

StartChar: Ibreve
Encoding: 300 300 55
Width: 352
Flags: MW
HStem: 640 20G<45 309 309 309> 699 52<159 195 159 253>
VStem: -28 169<809 835 809 835> 45 264<0 660 0 660> 213 168<809 835>
LayerCount: 2
UndoRedoHistory
Layer: 0
Undoes
EndUndoes
Redoes
EndRedoes
EndUndoRedoHistory
UndoRedoHistory
Layer: 1
Undoes
EndUndoes
Redoes
EndRedoes
EndUndoRedoHistory
Fore
SplineSet
381 835 m 1,0,1
 381 699 381 699 177 699 c 0,2,3
 -28 699 -28 699 -28 835 c 1,4,-1
 141 835 l 1,5,6
 141 784 141 784 146 771 c 0,7,8
 154 751 154 751 177 751 c 0,9,10
 194 751 194 751 202 762 c 128,-1,11
 210 773 210 773 211.5 786 c 128,-1,12
 213 799 213 799 213 831 c 0,13,14
 213 833 213 833 213 835 c 1,15,-1
 381 835 l 1,0,1
45 0 m 1,16,-1
 45 660 l 1,17,-1
 309 660 l 1,18,-1
 309 0 l 1,19,-1
 45 0 l 1,16,-1
EndSplineSet
Validated: 8388609
Position2: "'cpsp' Capital Spacing lookup 3 subtable" dx=5 dy=0 dh=10 dv=0
EndChar

StartChar: Icircumflex
Encoding: 206 206 56
Width: 352
Flags: MW
HStem: 640 20G<45 309 309 309>
VStem: 45 264<0 660 0 660>
LayerCount: 2
UndoRedoHistory
Layer: 0
Undoes
EndUndoes
Redoes
EndRedoes
EndUndoRedoHistory
UndoRedoHistory
Layer: 1
Undoes
EndUndoes
Redoes
EndRedoes
EndUndoRedoHistory
Fore
SplineSet
-8 745 m 1,0,-1
 157 857 l 1,1,-1
 200 857 l 1,2,-1
 368 745 l 1,3,-1
 324 693 l 1,4,-1
 180 725 l 1,5,-1
 37 693 l 1,6,-1
 -8 745 l 1,0,-1
45 0 m 1,7,-1
 45 660 l 1,8,-1
 309 660 l 1,9,-1
 309 0 l 1,10,-1
 45 0 l 1,7,-1
EndSplineSet
Validated: 1
Position2: "'cpsp' Capital Spacing lookup 3 subtable" dx=5 dy=0 dh=10 dv=0
EndChar

StartChar: Idieresis
Encoding: 207 207 57
Width: 352
Flags: MW
HStem: 640 20G<45 309 309 309> 707 170<31 96 281 346>
VStem: 45 264<0 660 0 660>
LayerCount: 2
UndoRedoHistory
Layer: 0
Undoes
EndUndoes
Redoes
EndRedoes
EndUndoRedoHistory
UndoRedoHistory
Layer: 1
Undoes
EndUndoes
Redoes
EndRedoes
EndUndoRedoHistory
Fore
SplineSet
66 877 m 0,0,1
 118 877 118 877 150 854 c 128,-1,2
 182 831 182 831 182 791 c 128,-1,3
 182 751 182 751 148.5 729 c 128,-1,4
 115 707 115 707 61 707 c 0,5,6
 8 707 8 707 -25 728.5 c 128,-1,7
 -58 750 -58 750 -58 789 c 0,8,9
 -58 829 -58 829 -23 853 c 128,-1,10
 12 877 12 877 66 877 c 0,0,1
316 877 m 0,11,12
 368 877 368 877 400 854 c 128,-1,13
 432 831 432 831 432 791 c 128,-1,14
 432 751 432 751 398.5 729 c 128,-1,15
 365 707 365 707 311 707 c 0,16,17
 258 707 258 707 225 728.5 c 128,-1,18
 192 750 192 750 192 789 c 0,19,20
 192 829 192 829 227 853 c 128,-1,21
 262 877 262 877 316 877 c 0,11,12
45 0 m 1,22,-1
 45 660 l 1,23,-1
 309 660 l 1,24,-1
 309 0 l 1,25,-1
 45 0 l 1,22,-1
EndSplineSet
Validated: 1
Position2: "'cpsp' Capital Spacing lookup 3 subtable" dx=5 dy=0 dh=10 dv=0
EndChar

StartChar: Idotaccent
Encoding: 304 304 58
Width: 352
Flags: MW
HStem: 640 20G<45 309 309 309> 735 170<140 205>
VStem: 45 264<0 660 0 660>
LayerCount: 2
UndoRedoHistory
Layer: 0
Undoes
EndUndoes
Redoes
EndRedoes
EndUndoRedoHistory
UndoRedoHistory
Layer: 1
Undoes
EndUndoes
Redoes
EndRedoes
EndUndoRedoHistory
Fore
SplineSet
175 905 m 0,0,1
 227 905 227 905 259 882 c 128,-1,2
 291 859 291 859 291 819 c 128,-1,3
 291 779 291 779 257.5 757 c 128,-1,4
 224 735 224 735 170 735 c 0,5,6
 117 735 117 735 84 756.5 c 128,-1,7
 51 778 51 778 51 817 c 0,8,9
 51 857 51 857 86 881 c 128,-1,10
 121 905 121 905 175 905 c 0,0,1
45 0 m 1,11,-1
 45 660 l 1,12,-1
 309 660 l 1,13,-1
 309 0 l 1,14,-1
 45 0 l 1,11,-1
EndSplineSet
Validated: 1
Position2: "'cpsp' Capital Spacing lookup 3 subtable" dx=5 dy=0 dh=10 dv=0
EndChar

StartChar: Idotbelow
Encoding: 7882 7882 59
Width: 352
Flags: MW
HStem: -202 170<146 211> 640 20G<45 309 309 309>
VStem: 45 264<0 660 0 660>
LayerCount: 2
UndoRedoHistory
Layer: 0
Undoes
EndUndoes
Redoes
EndRedoes
EndUndoRedoHistory
UndoRedoHistory
Layer: 1
Undoes
EndUndoes
Redoes
EndRedoes
EndUndoRedoHistory
Fore
SplineSet
45 0 m 1,0,-1
 45 660 l 1,1,-1
 309 660 l 1,2,-1
 309 0 l 1,3,-1
 45 0 l 1,0,-1
181 -32 m 0,4,5
 233 -32 233 -32 265 -55 c 128,-1,6
 297 -78 297 -78 297 -118 c 128,-1,7
 297 -158 297 -158 263.5 -180 c 128,-1,8
 230 -202 230 -202 176 -202 c 0,9,10
 123 -202 123 -202 90 -180.5 c 128,-1,11
 57 -159 57 -159 57 -120 c 0,12,13
 57 -80 57 -80 92 -56 c 128,-1,14
 127 -32 127 -32 181 -32 c 0,4,5
EndSplineSet
Validated: 1
Position2: "'cpsp' Capital Spacing lookup 3 subtable" dx=5 dy=0 dh=10 dv=0
EndChar

StartChar: Igrave
Encoding: 204 204 60
Width: 352
Flags: MW
HStem: 640 20G<45 309 309 309>
VStem: 45 264<0 660 0 660>
LayerCount: 2
UndoRedoHistory
Layer: 0
Undoes
EndUndoes
Redoes
EndRedoes
EndUndoRedoHistory
UndoRedoHistory
Layer: 1
Undoes
EndUndoes
Redoes
EndRedoes
EndUndoRedoHistory
Fore
SplineSet
125 720 m 2,0,1
 64 724 64 724 42 730 c 0,2,3
 -11.0181818182 744.727272727 -11.0181818182 744.727272727 -11.0181818182 789.337520661 c 0,4,5
 -11.0181818182 811.965090909 -11.0181818182 811.965090909 1.5 836 c 128,-1,6
 14 860 14 860 32 876 c 1,7,-1
 297 765 l 1,8,-1
 284 709 l 1,9,-1
 125 720 l 2,0,1
45 0 m 1,10,-1
 45 660 l 1,11,-1
 309 660 l 1,12,-1
 309 0 l 1,13,-1
 45 0 l 1,10,-1
EndSplineSet
Validated: 524289
Position2: "'cpsp' Capital Spacing lookup 3 subtable" dx=5 dy=0 dh=10 dv=0
EndChar

StartChar: Imacron
Encoding: 298 298 61
Width: 352
Flags: MW
HStem: 640 20G<45 309 309 309> 770 97<77 285 27 332>
VStem: 45 264<0 660 0 660>
LayerCount: 2
UndoRedoHistory
Layer: 0
Undoes
EndUndoes
Redoes
EndRedoes
EndUndoRedoHistory
UndoRedoHistory
Layer: 1
Undoes
EndUndoes
Redoes
EndRedoes
EndUndoRedoHistory
Fore
SplineSet
332 867 m 1,0,1
 341 854 341 854 341 828 c 128,-1,2
 341 802 341 802 325.5 786 c 128,-1,3
 310 770 310 770 285 770 c 2,4,-1
 27 770 l 1,5,6
 17 784 17 784 17 811 c 0,7,8
 17 836 17 836 33.5 851.5 c 128,-1,9
 50 867 50 867 77 867 c 2,10,-1
 332 867 l 1,0,1
45 0 m 1,11,-1
 45 660 l 1,12,-1
 309 660 l 1,13,-1
 309 0 l 1,14,-1
 45 0 l 1,11,-1
EndSplineSet
Validated: 1
Position2: "'cpsp' Capital Spacing lookup 3 subtable" dx=5 dy=0 dh=10 dv=0
EndChar

StartChar: Iogonek
Encoding: 302 302 62
Width: 352
Flags: MW
HStem: -274 102<189 282> 0 10<298 313> 640 20G<45 309 309 309>
VStem: 45 264<0 7 10 660> 74 138<-144 -123>
LayerCount: 2
UndoRedoHistory
Layer: 0
Undoes
EndUndoes
Redoes
EndRedoes
EndUndoRedoHistory
UndoRedoHistory
Layer: 1
Undoes
EndUndoes
Redoes
EndRedoes
EndUndoRedoHistory
Fore
SplineSet
298 0 m 1,0,1
 212 -62 212 -62 212 -125 c 0,2,3
 212 -152 212 -152 227 -162 c 128,-1,4
 242 -172 242 -172 272 -172 c 0,5,6
 290 -172 290 -172 309.5 -165.5 c 128,-1,7
 329 -159 329 -159 335 -145 c 1,8,9
 367 -167 367 -167 367 -200 c 0,10,11
 367 -219 367 -219 351.5 -234.5 c 128,-1,12
 336 -250 336 -250 313 -258 c 128,-1,13
 290 -266 290 -266 267 -270 c 128,-1,14
 244 -274 244 -274 225 -274 c 0,15,16
 203 -274 203 -274 182.5 -271 c 128,-1,17
 162 -268 162 -268 142 -260.5 c 128,-1,18
 122 -253 122 -253 107 -242 c 128,-1,19
 92 -231 92 -231 83 -212.5 c 128,-1,20
 74 -194 74 -194 74 -171 c 0,21,22
 74 -136 74 -136 84.5 -108 c 128,-1,23
 95 -80 95 -80 115.5 -60 c 128,-1,24
 136 -40 136 -40 160 -26 c 128,-1,25
 184 -12 184 -12 216 0 c 1,26,-1
 45 0 l 1,27,-1
 45 660 l 1,28,-1
 309 660 l 1,29,-1
 309 10 l 1,30,-1
 313 10 l 1,31,-1
 309 7 l 1,32,-1
 309 0 l 1,33,-1
 298 0 l 1,0,1
EndSplineSet
Validated: 8388609
Position2: "'cpsp' Capital Spacing lookup 3 subtable" dx=5 dy=0 dh=10 dv=0
EndChar

StartChar: Itilde
Encoding: 296 296 63
Width: 352
Flags: MW
HStem: 640 20G<45 309 309 309> 706 114<278 314> 724 114<43 78>
VStem: 45 264<0 660 0 660>
LayerCount: 2
UndoRedoHistory
Layer: 0
Undoes
EndUndoes
Redoes
EndRedoes
EndUndoRedoHistory
UndoRedoHistory
Layer: 1
Undoes
EndUndoes
Redoes
EndRedoes
EndUndoRedoHistory
Fore
SplineSet
381 843 m 1,0,1
 402 807 402 807 402 778 c 0,2,3
 402 756 402 756 392.5 740.5 c 128,-1,4
 383 725 383 725 365.5 718 c 128,-1,5
 348 711 348 711 329 708.5 c 128,-1,6
 310 706 310 706 282 706 c 0,7,8
 252 706 252 706 165 715 c 128,-1,9
 78 724 78 724 46 724 c 0,10,11
 -2 724 -2 724 -24 701 c 1,12,13
 -45 737 -45 737 -45 766 c 0,14,15
 -45 788 -45 788 -35.5 803.5 c 128,-1,16
 -26 819 -26 819 -8 826 c 128,-1,17
 10 833 10 833 29 835.5 c 128,-1,18
 48 838 48 838 75 838 c 0,19,20
 105 838 105 838 191.5 829 c 128,-1,21
 278 820 278 820 311 820 c 0,22,23
 359 820 359 820 381 843 c 1,0,1
45 0 m 1,24,-1
 45 660 l 1,25,-1
 309 660 l 1,26,-1
 309 0 l 1,27,-1
 45 0 l 1,24,-1
EndSplineSet
Validated: 8388609
Position2: "'cpsp' Capital Spacing lookup 3 subtable" dx=5 dy=0 dh=10 dv=0
EndChar

StartChar: J
Encoding: 74 74 64
Width: 352
Flags: MW
HStem: 640 20G<45 309 309 309>
VStem: 45 264<48 70 70 660>
LayerCount: 2
UndoRedoHistory
Layer: 0
Undoes
EndUndoes
Redoes
EndRedoes
EndUndoRedoHistory
UndoRedoHistory
Layer: 1
Undoes
EndUndoes
Redoes
EndRedoes
EndUndoRedoHistory
Fore
SplineSet
309 70 m 2,0,1
 309 8 309 8 299.5 -39.5 c 128,-1,2
 290 -87 290 -87 268.5 -126 c 128,-1,3
 247 -165 247 -165 207 -185.5 c 128,-1,4
 167 -206 167 -206 111 -206 c 0,5,6
 -3 -206 -3 -206 -41 -147 c 1,7,8
 -27 -145 -27 -145 -15.5 -139.5 c 128,-1,9
 -4 -134 -4 -134 4.5 -128 c 128,-1,10
 13 -122 13 -122 19.5 -111 c 128,-1,11
 26 -100 26 -100 30.5 -92 c 128,-1,12
 35 -84 35 -84 38 -69 c 128,-1,13
 41 -54 41 -54 42 -45.5 c 128,-1,14
 43 -37 43 -37 44 -18.5 c 128,-1,15
 45 0 45 0 45 8 c 2,16,-1
 45 37 l 1,17,-1
 45 48 l 1,18,-1
 45 660 l 1,19,-1
 309 660 l 1,20,-1
 309 70 l 2,0,1
EndSplineSet
Validated: 1
Position2: "'cpsp' Capital Spacing lookup 3 subtable" dx=5 dy=0 dh=10 dv=0
EndChar

StartChar: Jcircumflex
Encoding: 308 308 65
Width: 352
Flags: MW
HStem: 640 20G<45 309 309 309>
VStem: 45 264<48 70 70 660>
LayerCount: 2
UndoRedoHistory
Layer: 0
Undoes
EndUndoes
Redoes
EndRedoes
EndUndoRedoHistory
UndoRedoHistory
Layer: 1
Undoes
EndUndoes
Redoes
EndRedoes
EndUndoRedoHistory
Fore
SplineSet
-8 745 m 1,0,-1
 157 857 l 1,1,-1
 200 857 l 1,2,-1
 368 745 l 1,3,-1
 324 693 l 1,4,-1
 180 725 l 1,5,-1
 37 693 l 1,6,-1
 -8 745 l 1,0,-1
309 70 m 2,7,8
 309 8 309 8 299.5 -39.5 c 128,-1,9
 290 -87 290 -87 268.5 -126 c 128,-1,10
 247 -165 247 -165 207 -185.5 c 128,-1,11
 167 -206 167 -206 111 -206 c 0,12,13
 -3 -206 -3 -206 -41 -147 c 1,14,15
 -27 -145 -27 -145 -15.5 -139.5 c 128,-1,16
 -4 -134 -4 -134 4.5 -128 c 128,-1,17
 13 -122 13 -122 19.5 -111 c 128,-1,18
 26 -100 26 -100 30.5 -92 c 128,-1,19
 35 -84 35 -84 38 -69 c 128,-1,20
 41 -54 41 -54 42 -45.5 c 128,-1,21
 43 -37 43 -37 44 -18.5 c 128,-1,22
 45 0 45 0 45 8 c 2,23,-1
 45 37 l 1,24,-1
 45 48 l 1,25,-1
 45 660 l 1,26,-1
 309 660 l 1,27,-1
 309 70 l 2,7,8
EndSplineSet
Validated: 1
Position2: "'cpsp' Capital Spacing lookup 3 subtable" dx=5 dy=0 dh=10 dv=0
EndChar

StartChar: K
Encoding: 75 75 66
Width: 720
Flags: MW
HStem: 640 20G<45 309 309 309 459 717 717 717>
VStem: 45 264<0 660 0 660>
LayerCount: 2
UndoRedoHistory
Layer: 0
Undoes
EndUndoes
Redoes
EndRedoes
EndUndoRedoHistory
UndoRedoHistory
Layer: 1
Undoes
EndUndoes
Redoes
EndRedoes
EndUndoRedoHistory
Fore
SplineSet
45 0 m 1,0,-1
 45 660 l 1,1,-1
 309 660 l 1,2,-1
 309 0 l 1,3,-1
 45 0 l 1,0,-1
717 660 m 1,4,-1
 578 353 l 1,5,-1
 731 0 l 1,6,-1
 466 0 l 1,7,-1
 328 334 l 1,8,-1
 459 660 l 1,9,-1
 717 660 l 1,4,-1
EndSplineSet
Validated: 1
Position2: "'cpsp' Capital Spacing lookup 3 subtable" dx=5 dy=0 dh=10 dv=0
EndChar

StartChar: Kcommaaccent
Encoding: 310 310 67
Width: 720
Flags: MW
HStem: 640 20G<45 309 309 309 459 717 717 717>
VStem: 45 264<0 660 0 660> 307 155<-172 -145>
LayerCount: 2
UndoRedoHistory
Layer: 0
Undoes
EndUndoes
Redoes
EndRedoes
EndUndoRedoHistory
UndoRedoHistory
Layer: 1
Undoes
EndUndoes
Redoes
EndRedoes
EndUndoRedoHistory
Fore
SplineSet
45 660 m 1,0,-1
 309 660 l 1,1,-1
 309 0 l 1,2,-1
 45 0 l 1,3,-1
 45 660 l 1,0,-1
578 353 m 1,4,-1
 731 0 l 1,5,-1
 466 0 l 1,6,-1
 328 334 l 1,7,-1
 459 660 l 1,8,-1
 717 660 l 1,9,-1
 578 353 l 1,4,-1
356 -52 m 0,10,11
 413 -52 413 -52 437.5 -71.5 c 128,-1,12
 462 -91 462 -91 462 -136 c 0,13,14
 462 -191 462 -191 417 -230 c 128,-1,15
 372 -269 372 -269 305 -269 c 0,16,17
 299 -269 299 -269 262 -266 c 1,18,19
 307 -212 307 -212 307 -161 c 128,-1,20
 307 -110 307 -110 282 -68 c 1,21,22
 290 -62 290 -62 312.5 -57 c 128,-1,23
 335 -52 335 -52 356 -52 c 0,10,11
EndSplineSet
Validated: 8388609
Position2: "'cpsp' Capital Spacing lookup 3 subtable" dx=5 dy=0 dh=10 dv=0
EndChar

StartChar: L
Encoding: 76 76 68
Width: 474
Flags: MW
HStem: 0 99<309 458> 640 20G<45 309 309 309>
VStem: 45 264<99 660 99 660 99 660>
LayerCount: 2
UndoRedoHistory
Layer: 0
Undoes
EndUndoes
Redoes
EndRedoes
EndUndoRedoHistory
UndoRedoHistory
Layer: 1
Undoes
EndUndoes
Redoes
EndRedoes
EndUndoRedoHistory
Fore
SplineSet
309 660 m 1,0,-1
 309 99 l 1,1,-1
 470 99 l 1,2,-1
 458 0 l 1,3,-1
 45 0 l 1,4,-1
 45 660 l 1,5,-1
 309 660 l 1,0,-1
EndSplineSet
Validated: 1
Position2: "'cpsp' Capital Spacing lookup 3 subtable" dx=5 dy=0 dh=10 dv=0
EndChar

StartChar: LJ
Encoding: 455 455 69
Width: 827
Flags: MW
HStem: 0 99<309 458> 640 20G<45 309 309 309 520 784 784 784>
VStem: 45 264<99 99 99 660> 520 264<48 70 70 660>
LayerCount: 2
UndoRedoHistory
Layer: 0
Undoes
EndUndoes
Redoes
EndRedoes
EndUndoRedoHistory
UndoRedoHistory
Layer: 1
Undoes
EndUndoes
Redoes
EndRedoes
EndUndoRedoHistory
Fore
SplineSet
309 99 m 1,0,-1
 470 99 l 1,1,-1
 458 0 l 1,2,-1
 45 0 l 1,3,-1
 45 660 l 1,4,-1
 309 660 l 1,5,-1
 309 99 l 1,0,-1
784 70 m 2,6,7
 784 8 784 8 774.5 -39.5 c 128,-1,8
 765 -87 765 -87 743.5 -126 c 128,-1,9
 722 -165 722 -165 682 -185.5 c 128,-1,10
 642 -206 642 -206 586 -206 c 0,11,12
 472 -206 472 -206 434 -147 c 1,13,14
 448 -145 448 -145 459.5 -139.5 c 128,-1,15
 471 -134 471 -134 479.5 -128 c 128,-1,16
 488 -122 488 -122 494.5 -111 c 128,-1,17
 501 -100 501 -100 505.5 -92 c 128,-1,18
 510 -84 510 -84 513 -69 c 128,-1,19
 516 -54 516 -54 517.5 -45.5 c 128,-1,20
 519 -37 519 -37 519.5 -18.5 c 128,-1,21
 520 0 520 0 520 8 c 2,22,-1
 520 37 l 1,23,-1
 520 48 l 1,24,-1
 520 660 l 1,25,-1
 784 660 l 1,26,-1
 784 70 l 2,6,7
EndSplineSet
Validated: 1
Position2: "'cpsp' Capital Spacing lookup 3 subtable" dx=5 dy=0 dh=10 dv=0
EndChar

StartChar: Lacute
Encoding: 313 313 70
Width: 474
Flags: MW
HStem: 0 99<309 458> 640 20G<45 309 309 309>
VStem: 45 264<99 99 99 660>
LayerCount: 2
UndoRedoHistory
Layer: 0
Undoes
EndUndoes
Redoes
EndRedoes
EndUndoRedoHistory
UndoRedoHistory
Layer: 1
Undoes
EndUndoes
Redoes
EndRedoes
EndUndoRedoHistory
Fore
SplineSet
319 874 m 1,0,1
 338 858 338 858 350.5 834.5 c 128,-1,2
 363 811 363 811 363 789 c 0,3,4
 363 771 363 771 354.5 758 c 128,-1,5
 346 745 346 745 334.5 738 c 128,-1,6
 323 731 323 731 304.5 727 c 0,7,8
 286 724 286 724 271 722 c 2,9,-1
 236 718 l 1,10,-1
 233 718 l 1,11,-1
 230 718 l 1,12,-1
 227 718 l 1,13,-1
 68 707 l 1,14,-1
 55 763 l 1,15,-1
 319 874 l 1,0,1
309 99 m 1,16,-1
 470 99 l 1,17,-1
 458 0 l 1,18,-1
 45 0 l 1,19,-1
 45 660 l 1,20,-1
 309 660 l 1,21,-1
 309 99 l 1,16,-1
EndSplineSet
Validated: 524289
Position2: "'cpsp' Capital Spacing lookup 3 subtable" dx=5 dy=0 dh=10 dv=0
EndChar

StartChar: Lcaron
Encoding: 317 317 71
Width: 474
Flags: MW
HStem: 0 99<309 458> 508 20G 522 138<45 412> 700 20G<416 453>
VStem: 45 264<99 99 99 660> 373 136<609 639>
LayerCount: 2
UndoRedoHistory
Layer: 0
Undoes
EndUndoes
Redoes
EndRedoes
EndUndoRedoHistory
UndoRedoHistory
Layer: 1
Undoes
EndUndoes
Redoes
EndRedoes
EndUndoRedoHistory
Fore
SplineSet
353 703 m 1,0,1
 361 710 361 710 384.5 715 c 128,-1,2
 408 720 408 720 430 720 c 0,3,4
 466 720 466 720 487.5 700 c 128,-1,5
 509 680 509 680 509 637 c 128,-1,6
 509 594 509 594 469 558 c 128,-1,7
 429 522 429 522 376 522 c 0,8,9
 341 522 341 522 324 528 c 1,10,11
 342 549 342 549 350.5 560.5 c 128,-1,12
 359 572 359 572 366 589.5 c 128,-1,13
 373 607 373 607 373 626 c 0,14,15
 373 670 373 670 353 703 c 1,0,1
309 99 m 1,16,-1
 470 99 l 1,17,-1
 458 0 l 1,18,-1
 45 0 l 1,19,-1
 45 660 l 1,20,-1
 309 660 l 1,21,-1
 309 99 l 1,16,-1
EndSplineSet
Validated: 8388609
Position2: "'cpsp' Capital Spacing lookup 3 subtable" dx=5 dy=0 dh=10 dv=0
EndChar

StartChar: Lcommaaccent
Encoding: 315 315 72
Width: 474
Flags: MW
HStem: 0 99<309 458> 640 20G<45 309 309 309>
VStem: 45 264<99 99 99 660> 182 155<-172 -145>
LayerCount: 2
UndoRedoHistory
Layer: 0
Undoes
EndUndoes
Redoes
EndRedoes
EndUndoRedoHistory
UndoRedoHistory
Layer: 1
Undoes
EndUndoes
Redoes
EndRedoes
EndUndoRedoHistory
Fore
SplineSet
309 99 m 1,0,-1
 470 99 l 1,1,-1
 458 0 l 1,2,-1
 45 0 l 1,3,-1
 45 660 l 1,4,-1
 309 660 l 1,5,-1
 309 99 l 1,0,-1
231 -52 m 0,6,7
 288 -52 288 -52 312.5 -71.5 c 128,-1,8
 337 -91 337 -91 337 -136 c 0,9,10
 337 -191 337 -191 292 -230 c 128,-1,11
 247 -269 247 -269 180 -269 c 0,12,13
 174 -269 174 -269 137 -266 c 1,14,15
 182 -212 182 -212 182 -161 c 128,-1,16
 182 -110 182 -110 157 -68 c 1,17,18
 165 -62 165 -62 187.5 -57 c 128,-1,19
 210 -52 210 -52 231 -52 c 0,6,7
EndSplineSet
Validated: 8388609
Position2: "'cpsp' Capital Spacing lookup 3 subtable" dx=5 dy=0 dh=10 dv=0
EndChar

StartChar: Ldot
Encoding: 319 319 73
Width: 531
Flags: MW
HStem: 0 99<309 458> 240 147<407 448> 640 20G<45 309 309 309>
VStem: 45 264<99 99 99 660> 351 149<293 332>
LayerCount: 2
UndoRedoHistory
Layer: 0
Undoes
EndUndoes
Redoes
EndRedoes
EndUndoRedoHistory
UndoRedoHistory
Layer: 1
Undoes
EndUndoes
Redoes
EndRedoes
EndUndoRedoHistory
Fore
SplineSet
309 99 m 1,0,-1
 470 99 l 1,1,-1
 458 0 l 1,2,-1
 45 0 l 1,3,-1
 45 660 l 1,4,-1
 309 660 l 1,5,-1
 309 99 l 1,0,-1
429 387 m 0,6,7
 461 387 461 387 480.5 366 c 128,-1,8
 500 345 500 345 500 314 c 0,9,10
 500 282 500 282 479 261 c 128,-1,11
 458 240 458 240 425 240 c 128,-1,12
 392 240 392 240 371.5 260 c 128,-1,13
 351 280 351 280 351 310 c 0,14,15
 351 343 351 343 373 365 c 128,-1,16
 395 387 395 387 429 387 c 0,6,7
EndSplineSet
Validated: 1
Ligature2: "Ligature Substitution lookup 20 subtable" L periodcentered
Position2: "'cpsp' Capital Spacing lookup 3 subtable" dx=5 dy=0 dh=10 dv=0
EndChar

StartChar: Lj
Encoding: 456 456 74
Width: 806
Flags: MW
HStem: 0 99<309 458> 490 20G<520 760 760 760> 585 170<608 673> 640 20G<45 309 309 309>
VStem: 45 264<99 99 99 660> 520 240<-3 29 29 52 52 510>
LayerCount: 2
UndoRedoHistory
Layer: 0
Undoes
EndUndoes
Redoes
EndRedoes
EndUndoRedoHistory
UndoRedoHistory
Layer: 1
Undoes
EndUndoes
Redoes
EndRedoes
EndUndoRedoHistory
Fore
SplineSet
643 755 m 0,0,1
 695 755 695 755 727 732 c 128,-1,2
 759 709 759 709 759 669 c 128,-1,3
 759 629 759 629 725.5 607 c 128,-1,4
 692 585 692 585 638 585 c 0,5,6
 585 585 585 585 552 606.5 c 128,-1,7
 519 628 519 628 519 667 c 0,8,9
 519 707 519 707 554 731 c 128,-1,10
 589 755 589 755 643 755 c 0,0,1
309 99 m 1,11,-1
 470 99 l 1,12,-1
 458 0 l 1,13,-1
 45 0 l 1,14,-1
 45 660 l 1,15,-1
 309 660 l 1,16,-1
 309 99 l 1,11,-1
760 52 m 2,17,18
 760 8 760 8 755 -28 c 128,-1,19
 750 -64 750 -64 738.5 -97 c 128,-1,20
 727 -130 727 -130 707.5 -152 c 128,-1,21
 688 -174 688 -174 657.5 -187 c 128,-1,22
 627 -200 627 -200 586 -200 c 0,23,24
 482 -200 482 -200 448 -147 c 1,25,26
 468 -143 468 -143 482 -132.5 c 128,-1,27
 496 -122 496 -122 503 -110 c 128,-1,28
 510 -98 510 -98 514 -78.5 c 128,-1,29
 518 -59 518 -59 519 -43 c 128,-1,30
 520 -27 520 -27 520 -3 c 2,31,-1
 520 29 l 1,32,-1
 520 510 l 1,33,-1
 760 510 l 1,34,-1
 760 52 l 2,17,18
EndSplineSet
Validated: 8388609
Position2: "'cpsp' Capital Spacing lookup 3 subtable" dx=5 dy=0 dh=10 dv=0
EndChar

StartChar: Lslash
Encoding: 321 321 75
Width: 544
Flags: MW
HStem: 0 99<379 529> 640 20G<115 379 379 379>
VStem: 115 264<99 212 212 212 410 660>
LayerCount: 2
UndoRedoHistory
Layer: 0
Undoes
EndUndoes
Redoes
EndRedoes
EndUndoRedoHistory
UndoRedoHistory
Layer: 1
Undoes
EndUndoes
Redoes
EndRedoes
EndUndoRedoHistory
Fore
SplineSet
31 183 m 1,0,1
 16 204 16 204 16 238 c 0,2,3
 16 263 16 263 30 277 c 128,-1,4
 44 291 44 291 73 301 c 2,5,-1
 115 315 l 1,6,-1
 115 660 l 1,7,-1
 379 660 l 1,8,-1
 379 410 l 1,9,-1
 474 442 l 1,10,11
 477 437 477 437 480 431.5 c 128,-1,12
 483 426 483 426 484.5 421.5 c 128,-1,13
 486 417 486 417 487 413 c 128,-1,14
 488 409 488 409 488.5 404 c 128,-1,15
 489 399 489 399 489 397 c 2,16,-1
 489 391 l 1,17,-1
 489 387 l 2,18,19
 489 362 489 362 475 347 c 128,-1,20
 461 332 461 332 433 322 c 1,21,-1
 379 305 l 1,22,-1
 379 99 l 1,23,-1
 540 99 l 1,24,-1
 529 0 l 1,25,-1
 115 0 l 1,26,-1
 115 212 l 1,27,-1
 31 183 l 1,0,1
EndSplineSet
Validated: 1
Position2: "'cpsp' Capital Spacing lookup 3 subtable" dx=5 dy=0 dh=10 dv=0
EndChar

StartChar: M
Encoding: 77 77 76
Width: 937
Flags: MW
HStem: 491 169<630 630> 640 20G<45 372 372 372 564 894 894 894>
VStem: 45 123<0 490 0 660> 630 264<0 491 491 491>
LayerCount: 2
UndoRedoHistory
Layer: 0
Undoes
EndUndoes
Redoes
EndRedoes
EndUndoRedoHistory
UndoRedoHistory
Layer: 1
Undoes
EndUndoes
Redoes
EndRedoes
EndUndoRedoHistory
Fore
SplineSet
894 0 m 1,0,-1
 630 0 l 1,1,-1
 630 491 l 1,2,-1
 467 0 l 1,3,-1
 331 0 l 1,4,-1
 168 490 l 1,5,-1
 168 0 l 1,6,-1
 45 0 l 1,7,-1
 45 660 l 1,8,-1
 372 660 l 1,9,-1
 468 347 l 1,10,-1
 564 660 l 1,11,-1
 894 660 l 1,12,-1
 894 0 l 1,0,-1
EndSplineSet
Validated: 8388609
Position2: "'cpsp' Capital Spacing lookup 3 subtable" dx=5 dy=0 dh=10 dv=0
EndChar

StartChar: N
Encoding: 78 78 77
Width: 719
Flags: MW
HStem: 507 153<168 168>
VStem: 45 123<0 507 0 660> 552 123<153 660 0 660>
LayerCount: 2
UndoRedoHistory
Layer: 0
Undoes
EndUndoes
Redoes
EndRedoes
EndUndoRedoHistory
UndoRedoHistory
Layer: 1
Undoes
EndUndoes
Redoes
EndRedoes
EndUndoRedoHistory
Fore
SplineSet
168 507 m 1,0,-1
 168 0 l 1,1,-1
 45 0 l 1,2,-1
 45 660 l 1,3,-1
 378 660 l 1,4,-1
 552 153 l 1,5,-1
 552 660 l 1,6,-1
 675 660 l 1,7,-1
 675 0 l 1,8,-1
 341 0 l 1,9,-1
 168 507 l 1,0,-1
EndSplineSet
Validated: 1
Position2: "'cpsp' Capital Spacing lookup 3 subtable" dx=5 dy=0 dh=10 dv=0
EndChar

StartChar: NJ
Encoding: 458 458 78
Width: 1072
Flags: MW
HStem: 507 153<168 168> 640 20G<45 378 378 378 552 675 675 675 765 1029 1029 1029>
VStem: 45 123<0 507> 552 123<153 660 0 660> 765 264<48 70 70 660>
LayerCount: 2
UndoRedoHistory
Layer: 0
Undoes
EndUndoes
Redoes
EndRedoes
EndUndoRedoHistory
UndoRedoHistory
Layer: 1
Undoes
EndUndoes
Redoes
EndRedoes
EndUndoRedoHistory
Fore
SplineSet
168 0 m 1,0,-1
 45 0 l 1,1,-1
 45 660 l 1,2,-1
 378 660 l 1,3,-1
 552 153 l 1,4,-1
 552 660 l 1,5,-1
 675 660 l 1,6,-1
 675 0 l 1,7,-1
 341 0 l 1,8,-1
 168 507 l 1,9,-1
 168 0 l 1,0,-1
1029 70 m 2,10,11
 1029 21 1029 21 1023.5 -19 c 128,-1,12
 1018 -59 1018 -59 1004 -94.5 c 128,-1,13
 990 -130 990 -130 967.5 -154 c 128,-1,14
 945 -178 945 -178 910.5 -192 c 128,-1,15
 876 -206 876 -206 831 -206 c 0,16,17
 717 -206 717 -206 679 -147 c 1,18,19
 693 -145 693 -145 704.5 -139.5 c 128,-1,20
 716 -134 716 -134 724.5 -128 c 128,-1,21
 733 -122 733 -122 740 -111 c 128,-1,22
 747 -100 747 -100 751 -92 c 128,-1,23
 755 -84 755 -84 758 -69 c 128,-1,24
 761 -54 761 -54 762.5 -45.5 c 128,-1,25
 764 -37 764 -37 764.5 -18.5 c 128,-1,26
 765 0 765 0 765 8 c 2,27,-1
 765 37 l 1,28,-1
 765 48 l 1,29,-1
 765 660 l 1,30,-1
 1029 660 l 1,31,-1
 1029 70 l 2,10,11
EndSplineSet
Validated: 8388609
Position2: "'cpsp' Capital Spacing lookup 3 subtable" dx=5 dy=0 dh=10 dv=0
EndChar

StartChar: Nacute
Encoding: 323 323 79
Width: 719
Flags: MW
HStem: 507 153<168 168> 640 20G<45 378 378 378 552 675 675 675>
VStem: 45 123<0 507> 552 123<153 660 0 660>
LayerCount: 2
UndoRedoHistory
Layer: 0
Undoes
EndUndoes
Redoes
EndRedoes
EndUndoRedoHistory
UndoRedoHistory
Layer: 1
Undoes
EndUndoes
Redoes
EndRedoes
EndUndoRedoHistory
Fore
SplineSet
504 874 m 1,0,1
 523 858 523 858 535.5 834.5 c 128,-1,2
 548 811 548 811 548 789 c 0,3,4
 548 771 548 771 539.5 758 c 128,-1,5
 531 745 531 745 519.5 738 c 128,-1,6
 508 731 508 731 489.5 727 c 0,7,8
 471 724 471 724 456 722 c 2,9,-1
 421 718 l 1,10,-1
 412 718 l 1,11,-1
 253 707 l 1,12,-1
 240 763 l 1,13,-1
 504 874 l 1,0,1
168 0 m 1,14,-1
 45 0 l 1,15,-1
 45 660 l 1,16,-1
 378 660 l 1,17,-1
 552 153 l 1,18,-1
 552 660 l 1,19,-1
 675 660 l 1,20,-1
 675 0 l 1,21,-1
 341 0 l 1,22,-1
 168 507 l 1,23,-1
 168 0 l 1,14,-1
EndSplineSet
Validated: 8912897
Substitution2: "'locl' Localized Forms in Latin lookup 13 subtable" Nacute.loclPLK
Substitution2: "'aalt' Access All Alternates lookup 0 subtable" Nacute.loclPLK
Position2: "'cpsp' Capital Spacing lookup 3 subtable" dx=5 dy=0 dh=10 dv=0
EndChar

StartChar: Ncaron
Encoding: 327 327 80
Width: 719
Flags: MW
HStem: 507 153<168 168> 640 20G<45 378 378 378 552 675 675 675>
VStem: 45 123<0 507> 552 123<153 660 0 660>
LayerCount: 2
UndoRedoHistory
Layer: 0
Undoes
EndUndoes
Redoes
EndRedoes
EndUndoRedoHistory
UndoRedoHistory
Layer: 1
Undoes
EndUndoes
Redoes
EndRedoes
EndUndoRedoHistory
Fore
SplineSet
559 812 m 1,0,-1
 414 690 l 1,1,-1
 311 690 l 1,2,-1
 163 812 l 1,3,-1
 207 864 l 1,4,-1
 361 812 l 1,5,-1
 514 864 l 1,6,-1
 559 812 l 1,0,-1
168 0 m 1,7,-1
 45 0 l 1,8,-1
 45 660 l 1,9,-1
 378 660 l 1,10,-1
 552 153 l 1,11,-1
 552 660 l 1,12,-1
 675 660 l 1,13,-1
 675 0 l 1,14,-1
 341 0 l 1,15,-1
 168 507 l 1,16,-1
 168 0 l 1,7,-1
EndSplineSet
Validated: 8388609
Position2: "'cpsp' Capital Spacing lookup 3 subtable" dx=5 dy=0 dh=10 dv=0
EndChar

StartChar: Ncommaaccent
Encoding: 325 325 81
Width: 719
Flags: MW
HStem: 507 153<168 168> 640 20G<45 378 378 378 552 675 675 675>
VStem: 45 123<0 507> 284 155<-172 -145> 552 123<153 660 0 660>
LayerCount: 2
UndoRedoHistory
Layer: 0
Undoes
EndUndoes
Redoes
EndRedoes
EndUndoRedoHistory
UndoRedoHistory
Layer: 1
Undoes
EndUndoes
Redoes
EndRedoes
EndUndoRedoHistory
Fore
SplineSet
168 0 m 1,0,-1
 45 0 l 1,1,-1
 45 660 l 1,2,-1
 378 660 l 1,3,-1
 552 153 l 1,4,-1
 552 660 l 1,5,-1
 675 660 l 1,6,-1
 675 0 l 1,7,-1
 341 0 l 1,8,-1
 168 507 l 1,9,-1
 168 0 l 1,0,-1
333 -52 m 0,10,11
 390 -52 390 -52 414.5 -71.5 c 128,-1,12
 439 -91 439 -91 439 -136 c 0,13,14
 439 -191 439 -191 394 -230 c 128,-1,15
 349 -269 349 -269 282 -269 c 0,16,17
 275 -269 275 -269 239 -266 c 1,18,19
 284 -212 284 -212 284 -161 c 0,20,21
 284 -111 284 -111 259 -68 c 1,22,23
 267 -62 267 -62 289.5 -57 c 128,-1,24
 312 -52 312 -52 333 -52 c 0,10,11
EndSplineSet
Validated: 8388609
Position2: "'cpsp' Capital Spacing lookup 3 subtable" dx=5 dy=0 dh=10 dv=0
EndChar

StartChar: Ndotaccent
Encoding: 7748 7748 82
Width: 719
Flags: MW
HStem: 507 153<168 168> 640 20G<45 378 378 378 552 675 675 675> 735 170<323 388>
VStem: 45 123<0 507> 552 123<153 660 0 660>
LayerCount: 2
UndoRedoHistory
Layer: 0
Undoes
EndUndoes
Redoes
EndRedoes
EndUndoRedoHistory
UndoRedoHistory
Layer: 1
Undoes
EndUndoes
Redoes
EndRedoes
EndUndoRedoHistory
Fore
SplineSet
358 905 m 0,0,1
 410 905 410 905 442 882 c 128,-1,2
 474 859 474 859 474 819 c 128,-1,3
 474 779 474 779 440.5 757 c 128,-1,4
 407 735 407 735 353 735 c 0,5,6
 300 735 300 735 267 756.5 c 128,-1,7
 234 778 234 778 234 817 c 0,8,9
 234 857 234 857 269 881 c 128,-1,10
 304 905 304 905 358 905 c 0,0,1
168 0 m 1,11,-1
 45 0 l 1,12,-1
 45 660 l 1,13,-1
 378 660 l 1,14,-1
 552 153 l 1,15,-1
 552 660 l 1,16,-1
 675 660 l 1,17,-1
 675 0 l 1,18,-1
 341 0 l 1,19,-1
 168 507 l 1,20,-1
 168 0 l 1,11,-1
EndSplineSet
Validated: 8388609
Position2: "'cpsp' Capital Spacing lookup 3 subtable" dx=5 dy=0 dh=10 dv=0
EndChar

StartChar: Eng
Encoding: 330 330 83
Width: 719
Flags: MW
HStem: -209 20G 513 147<168 168> 640 20G<45 378 378 378 552 675 675 675>
VStem: 45 123<0 513 0 660> 552 123<147 660>
LayerCount: 2
UndoRedoHistory
Layer: 0
Undoes
EndUndoes
Redoes
EndRedoes
EndUndoRedoHistory
UndoRedoHistory
Layer: 1
Undoes
EndUndoes
Redoes
EndRedoes
EndUndoRedoHistory
Fore
SplineSet
675 64 m 1,0,-1
 675 20 l 2,1,2
 675 -15 675 -15 674 -39 c 128,-1,3
 673 -63 673 -63 669.5 -94 c 128,-1,4
 666 -125 666 -125 658 -145.5 c 128,-1,5
 650 -166 650 -166 637.5 -185 c 128,-1,6
 625 -204 625 -204 604 -213 c 128,-1,7
 583 -222 583 -222 556 -222 c 0,8,9
 503 -222 503 -222 467 -189 c 1,10,11
 484 -186 484 -186 497 -178 c 128,-1,12
 510 -170 510 -170 518 -159 c 128,-1,13
 526 -148 526 -148 532.5 -134.5 c 128,-1,14
 539 -121 539 -121 541.5 -105 c 128,-1,15
 544 -89 544 -89 546 -71.5 c 128,-1,16
 548 -54 548 -54 548 -36 c 128,-1,17
 548 -18 548 -18 548 0 c 1,18,-1
 341 0 l 1,19,-1
 168 513 l 1,20,-1
 168 0 l 1,21,-1
 45 0 l 1,22,-1
 45 660 l 1,23,-1
 378 660 l 1,24,-1
 552 147 l 1,25,-1
 552 660 l 1,26,-1
 675 660 l 1,27,-1
 675 64 l 1,0,-1
EndSplineSet
Validated: 8388609
Position2: "'cpsp' Capital Spacing lookup 3 subtable" dx=5 dy=0 dh=10 dv=0
EndChar

StartChar: Nj
Encoding: 459 459 84
Width: 1051
Flags: MW
HStem: 490 20G<765 1005 1005 1005> 507 153<168 168> 585 170<853 918> 640 20G<45 378 378 378 552 675 675 675>
VStem: 45 123<0 507> 552 123<153 660 0 660> 765 240<-3 29 29 52 52 510>
LayerCount: 2
UndoRedoHistory
Layer: 0
Undoes
EndUndoes
Redoes
EndRedoes
EndUndoRedoHistory
UndoRedoHistory
Layer: 1
Undoes
EndUndoes
Redoes
EndRedoes
EndUndoRedoHistory
Fore
SplineSet
888 755 m 0,0,1
 940 755 940 755 972 732 c 128,-1,2
 1004 709 1004 709 1004 669 c 128,-1,3
 1004 629 1004 629 970.5 607 c 128,-1,4
 937 585 937 585 883 585 c 0,5,6
 830 585 830 585 797 606.5 c 128,-1,7
 764 628 764 628 764 667 c 0,8,9
 764 707 764 707 799 731 c 128,-1,10
 834 755 834 755 888 755 c 0,0,1
168 0 m 1,11,-1
 45 0 l 1,12,-1
 45 660 l 1,13,-1
 378 660 l 1,14,-1
 552 153 l 1,15,-1
 552 660 l 1,16,-1
 675 660 l 1,17,-1
 675 0 l 1,18,-1
 341 0 l 1,19,-1
 168 507 l 1,20,-1
 168 0 l 1,11,-1
1005 52 m 2,21,22
 1005 8 1005 8 1000.5 -28 c 128,-1,23
 996 -64 996 -64 984 -97 c 128,-1,24
 972 -130 972 -130 953 -152 c 128,-1,25
 934 -174 934 -174 903 -187 c 128,-1,26
 872 -200 872 -200 831 -200 c 0,27,28
 726 -200 726 -200 693 -147 c 1,29,30
 710 -144 710 -144 722 -136.5 c 128,-1,31
 734 -129 734 -129 742 -117.5 c 128,-1,32
 750 -106 750 -106 754.5 -94.5 c 128,-1,33
 759 -83 759 -83 761.5 -66.5 c 128,-1,34
 764 -50 764 -50 764.5 -36 c 128,-1,35
 765 -22 765 -22 765 -3 c 2,36,-1
 765 29 l 1,37,-1
 765 510 l 1,38,-1
 1005 510 l 1,39,-1
 1005 52 l 2,21,22
EndSplineSet
Validated: 8388609
Position2: "'cpsp' Capital Spacing lookup 3 subtable" dx=5 dy=0 dh=10 dv=0
EndChar

StartChar: Ntilde
Encoding: 209 209 85
Width: 719
Flags: MW
HStem: 507 153<168 168> 640 20G<45 378 378 378 552 675 675 675> 706 114<462 498> 724 114<227 262>
VStem: 45 123<0 507> 552 123<153 660 0 660>
LayerCount: 2
UndoRedoHistory
Layer: 0
Undoes
EndUndoes
Redoes
EndRedoes
EndUndoRedoHistory
UndoRedoHistory
Layer: 1
Undoes
EndUndoes
Redoes
EndRedoes
EndUndoRedoHistory
Fore
SplineSet
565 843 m 1,0,1
 586 807 586 807 586 778 c 0,2,3
 586 756 586 756 576.5 740.5 c 128,-1,4
 567 725 567 725 549 718 c 128,-1,5
 531 711 531 711 512 708.5 c 128,-1,6
 493 706 493 706 466 706 c 0,7,8
 436 706 436 706 349 715 c 128,-1,9
 262 724 262 724 230 724 c 0,10,11
 182 724 182 724 160 701 c 1,12,13
 139 737 139 737 139 766 c 0,14,15
 139 788 139 788 148.5 803.5 c 128,-1,16
 158 819 158 819 175.5 826 c 128,-1,17
 193 833 193 833 212 835.5 c 128,-1,18
 231 838 231 838 259 838 c 0,19,20
 289 838 289 838 375.5 829 c 128,-1,21
 462 820 462 820 495 820 c 0,22,23
 543 820 543 820 565 843 c 1,0,1
168 0 m 1,24,-1
 45 0 l 1,25,-1
 45 660 l 1,26,-1
 378 660 l 1,27,-1
 552 153 l 1,28,-1
 552 660 l 1,29,-1
 675 660 l 1,30,-1
 675 0 l 1,31,-1
 341 0 l 1,32,-1
 168 507 l 1,33,-1
 168 0 l 1,24,-1
EndSplineSet
Validated: 8388609
Position2: "'cpsp' Capital Spacing lookup 3 subtable" dx=5 dy=0 dh=10 dv=0
EndChar

StartChar: O
Encoding: 79 79 86
Width: 715
Flags: MW
HStem: -22 76<329 388 329 467> 604 76<328 389>
VStem: 12 284<279 390 279 438> 419 284<279 390>
LayerCount: 2
UndoRedoHistory
Layer: 0
Undoes
EndUndoes
Redoes
EndRedoes
EndUndoRedoHistory
UndoRedoHistory
Layer: 1
Undoes
EndUndoes
Redoes
EndRedoes
EndUndoRedoHistory
Fore
SplineSet
358 680 m 0,0,1
 528 680 528 680 615.5 594 c 128,-1,2
 703 508 703 508 703 339 c 0,3,4
 703 173 703 173 612 75.5 c 128,-1,5
 521 -22 521 -22 358 -22 c 0,6,7
 201 -22 201 -22 106.5 73 c 128,-1,8
 12 168 12 168 12 325 c 0,9,10
 12 496 12 496 100.5 588 c 128,-1,11
 189 680 189 680 358 680 c 0,0,1
358 54 m 128,-1,13
 372 54 372 54 383 66.5 c 128,-1,14
 394 79 394 79 400 103 c 128,-1,15
 406 127 406 127 410.5 152 c 128,-1,16
 415 177 415 177 416.5 213.5 c 128,-1,17
 418 250 418 250 418.5 274.5 c 128,-1,18
 419 299 419 299 419 334 c 2,19,-1
 419 368 l 2,20,21
 419 380 419 380 418.5 404 c 128,-1,22
 418 428 418 428 417.5 442 c 128,-1,23
 417 456 417 456 415.5 477 c 128,-1,24
 414 498 414 498 411.5 511 c 128,-1,25
 409 524 409 524 406 540.5 c 128,-1,26
 403 557 403 557 398.5 567 c 128,-1,27
 394 577 394 577 388 586.5 c 128,-1,28
 382 596 382 596 374.5 600 c 128,-1,29
 367 604 367 604 358 604 c 0,30,31
 343 604 343 604 332 592.5 c 128,-1,32
 321 581 321 581 314.5 557.5 c 128,-1,33
 308 534 308 534 304 511.5 c 128,-1,34
 300 489 300 489 298.5 452.5 c 128,-1,35
 297 416 297 416 296.5 393.5 c 128,-1,36
 296 371 296 371 296 334 c 0,37,38
 296 300 296 300 296.5 274.5 c 128,-1,39
 297 249 297 249 299 213.5 c 128,-1,40
 301 178 301 178 305 152.5 c 128,-1,41
 309 127 309 127 315.5 103 c 128,-1,42
 322 79 322 79 333 66.5 c 128,-1,12
 344 54 344 54 358 54 c 128,-1,13
EndSplineSet
Validated: 1
Substitution2: "Single Substitution lookup 21 subtable" ordmasculine
Substitution2: "'aalt' Access All Alternates lookup 0 subtable" ordmasculine
Position2: "'cpsp' Capital Spacing lookup 3 subtable" dx=5 dy=0 dh=10 dv=0
EndChar

StartChar: Oacute
Encoding: 211 211 87
Width: 715
Flags: MW
HStem: -22 76<329 388 329 467> 604 76<328 389>
VStem: 12 284<279 390 279 438> 419 284<279 390>
LayerCount: 2
UndoRedoHistory
Layer: 0
Undoes
EndUndoes
Redoes
EndRedoes
EndUndoRedoHistory
UndoRedoHistory
Layer: 1
Undoes
EndUndoes
Redoes
EndRedoes
EndUndoRedoHistory
Fore
SplineSet
501 874 m 1,0,1
 520 858 520 858 532.5 834.5 c 128,-1,2
 545 811 545 811 545 789 c 0,3,4
 545 771 545 771 536.5 758 c 128,-1,5
 528 745 528 745 516.5 738 c 128,-1,6
 505 731 505 731 486.5 727 c 0,7,8
 468 724 468 724 453 722 c 2,9,-1
 418 718 l 1,10,-1
 409 718 l 1,11,-1
 250 707 l 1,12,-1
 237 763 l 1,13,-1
 501 874 l 1,0,1
358 680 m 0,14,15
 528 680 528 680 615.5 594 c 128,-1,16
 703 508 703 508 703 339 c 0,17,18
 703 173 703 173 612 75.5 c 128,-1,19
 521 -22 521 -22 358 -22 c 0,20,21
 201 -22 201 -22 106.5 73 c 128,-1,22
 12 168 12 168 12 325 c 0,23,24
 12 496 12 496 100.5 588 c 128,-1,25
 189 680 189 680 358 680 c 0,14,15
358 54 m 128,-1,27
 372 54 372 54 383 66.5 c 128,-1,28
 394 79 394 79 400 103 c 128,-1,29
 406 127 406 127 410.5 152 c 128,-1,30
 415 177 415 177 416.5 213.5 c 128,-1,31
 418 250 418 250 418.5 274.5 c 128,-1,32
 419 299 419 299 419 334 c 2,33,-1
 419 368 l 2,34,35
 419 380 419 380 418.5 404 c 128,-1,36
 418 428 418 428 417.5 442 c 128,-1,37
 417 456 417 456 415.5 477 c 128,-1,38
 414 498 414 498 411.5 511 c 128,-1,39
 409 524 409 524 406 540.5 c 128,-1,40
 403 557 403 557 398.5 567 c 128,-1,41
 394 577 394 577 388 586.5 c 128,-1,42
 382 596 382 596 374.5 600 c 128,-1,43
 367 604 367 604 358 604 c 0,44,45
 343 604 343 604 332 592.5 c 128,-1,46
 321 581 321 581 314.5 557.5 c 128,-1,47
 308 534 308 534 304 511.5 c 128,-1,48
 300 489 300 489 298.5 452.5 c 128,-1,49
 297 416 297 416 296.5 393.5 c 128,-1,50
 296 371 296 371 296 334 c 0,51,52
 296 300 296 300 296.5 274.5 c 128,-1,53
 297 249 297 249 299 213.5 c 128,-1,54
 301 178 301 178 305 152.5 c 128,-1,55
 309 127 309 127 315.5 103 c 128,-1,56
 322 79 322 79 333 66.5 c 128,-1,26
 344 54 344 54 358 54 c 128,-1,27
EndSplineSet
Validated: 524289
Substitution2: "'locl' Localized Forms in Latin lookup 13 subtable" Oacute.loclPLK
Substitution2: "'aalt' Access All Alternates lookup 0 subtable" Oacute.loclPLK
Position2: "'cpsp' Capital Spacing lookup 3 subtable" dx=5 dy=0 dh=10 dv=0
EndChar

StartChar: Obreve
Encoding: 334 334 88
Width: 715
Flags: MW
HStem: -22 76<329 388 329 467> 604 76<328 389> 699 52<339 376 339 434>
VStem: 12 284<279 390 279 438> 153 169<809 835 809 835> 394 168<809 835> 419 284<279 390>
LayerCount: 2
UndoRedoHistory
Layer: 0
Undoes
EndUndoes
Redoes
EndRedoes
EndUndoRedoHistory
UndoRedoHistory
Layer: 1
Undoes
EndUndoes
Redoes
EndRedoes
EndUndoRedoHistory
Fore
SplineSet
562 835 m 1,0,1
 562 699 562 699 358 699 c 0,2,3
 153 699 153 699 153 835 c 1,4,-1
 322 835 l 1,5,-1
 322 831 l 1,6,-1
 322 802 l 2,7,8
 322 794 322 794 324 781.5 c 128,-1,9
 326 769 326 769 329.5 764 c 128,-1,10
 333 759 333 759 340 755 c 128,-1,11
 347 751 347 751 358 751 c 0,12,13
 375 751 375 751 383.5 762 c 128,-1,14
 392 773 392 773 393 786 c 128,-1,15
 394 799 394 799 394 831 c 0,16,17
 394 833 394 833 394 835 c 1,18,-1
 562 835 l 1,0,1
358 680 m 0,19,20
 528 680 528 680 615.5 594 c 128,-1,21
 703 508 703 508 703 339 c 0,22,23
 703 173 703 173 612 75.5 c 128,-1,24
 521 -22 521 -22 358 -22 c 0,25,26
 201 -22 201 -22 106.5 73 c 128,-1,27
 12 168 12 168 12 325 c 0,28,29
 12 496 12 496 100.5 588 c 128,-1,30
 189 680 189 680 358 680 c 0,19,20
358 54 m 128,-1,32
 372 54 372 54 383 66.5 c 128,-1,33
 394 79 394 79 400 103 c 128,-1,34
 406 127 406 127 410.5 152 c 128,-1,35
 415 177 415 177 416.5 213.5 c 128,-1,36
 418 250 418 250 418.5 274.5 c 128,-1,37
 419 299 419 299 419 334 c 2,38,-1
 419 368 l 2,39,40
 419 380 419 380 418.5 404 c 128,-1,41
 418 428 418 428 417.5 442 c 128,-1,42
 417 456 417 456 415.5 477 c 128,-1,43
 414 498 414 498 411.5 511 c 128,-1,44
 409 524 409 524 406 540.5 c 128,-1,45
 403 557 403 557 398.5 567 c 128,-1,46
 394 577 394 577 388 586.5 c 128,-1,47
 382 596 382 596 374.5 600 c 128,-1,48
 367 604 367 604 358 604 c 0,49,50
 343 604 343 604 332 592.5 c 128,-1,51
 321 581 321 581 314.5 557.5 c 128,-1,52
 308 534 308 534 304 511.5 c 128,-1,53
 300 489 300 489 298.5 452.5 c 128,-1,54
 297 416 297 416 296.5 393.5 c 128,-1,55
 296 371 296 371 296 334 c 0,56,57
 296 300 296 300 296.5 274.5 c 128,-1,58
 297 249 297 249 299 213.5 c 128,-1,59
 301 178 301 178 305 152.5 c 128,-1,60
 309 127 309 127 315.5 103 c 128,-1,61
 322 79 322 79 333 66.5 c 128,-1,31
 344 54 344 54 358 54 c 128,-1,32
EndSplineSet
Validated: 8388609
Position2: "'cpsp' Capital Spacing lookup 3 subtable" dx=5 dy=0 dh=10 dv=0
EndChar

StartChar: Ocircumflex
Encoding: 212 212 89
Width: 715
Flags: MW
HStem: -22 76<329 388 329 467> 604 76<328 389>
VStem: 12 284<279 390 279 438> 419 284<279 390>
LayerCount: 2
UndoRedoHistory
Layer: 0
Undoes
EndUndoes
Redoes
EndRedoes
EndUndoRedoHistory
UndoRedoHistory
Layer: 1
Undoes
EndUndoes
Redoes
EndRedoes
EndUndoRedoHistory
Fore
SplineSet
173 745 m 1,0,-1
 338 857 l 1,1,-1
 381 857 l 1,2,-1
 549 745 l 1,3,-1
 505 693 l 1,4,-1
 361 725 l 1,5,-1
 218 693 l 1,6,-1
 173 745 l 1,0,-1
358 680 m 0,7,8
 528 680 528 680 615.5 594 c 128,-1,9
 703 508 703 508 703 339 c 0,10,11
 703 173 703 173 612 75.5 c 128,-1,12
 521 -22 521 -22 358 -22 c 0,13,14
 201 -22 201 -22 106.5 73 c 128,-1,15
 12 168 12 168 12 325 c 0,16,17
 12 496 12 496 100.5 588 c 128,-1,18
 189 680 189 680 358 680 c 0,7,8
358 54 m 128,-1,20
 372 54 372 54 383 66.5 c 128,-1,21
 394 79 394 79 400 103 c 128,-1,22
 406 127 406 127 410.5 152 c 128,-1,23
 415 177 415 177 416.5 213.5 c 128,-1,24
 418 250 418 250 418.5 274.5 c 128,-1,25
 419 299 419 299 419 334 c 2,26,-1
 419 368 l 2,27,28
 419 380 419 380 418.5 404 c 128,-1,29
 418 428 418 428 417.5 442 c 128,-1,30
 417 456 417 456 415.5 477 c 128,-1,31
 414 498 414 498 411.5 511 c 128,-1,32
 409 524 409 524 406 540.5 c 128,-1,33
 403 557 403 557 398.5 567 c 128,-1,34
 394 577 394 577 388 586.5 c 128,-1,35
 382 596 382 596 374.5 600 c 128,-1,36
 367 604 367 604 358 604 c 0,37,38
 343 604 343 604 332 592.5 c 128,-1,39
 321 581 321 581 314.5 557.5 c 128,-1,40
 308 534 308 534 304 511.5 c 128,-1,41
 300 489 300 489 298.5 452.5 c 128,-1,42
 297 416 297 416 296.5 393.5 c 128,-1,43
 296 371 296 371 296 334 c 0,44,45
 296 300 296 300 296.5 274.5 c 128,-1,46
 297 249 297 249 299 213.5 c 128,-1,47
 301 178 301 178 305 152.5 c 128,-1,48
 309 127 309 127 315.5 103 c 128,-1,49
 322 79 322 79 333 66.5 c 128,-1,19
 344 54 344 54 358 54 c 128,-1,20
EndSplineSet
Validated: 1
Position2: "'cpsp' Capital Spacing lookup 3 subtable" dx=5 dy=0 dh=10 dv=0
EndChar

StartChar: Odieresis
Encoding: 214 214 90
Width: 715
Flags: MW
HStem: -22 76<329 388 329 467> 604 76<328 389> 707 170<212 277 462 527>
VStem: 12 284<279 390 279 438> 419 284<279 390>
LayerCount: 2
UndoRedoHistory
Layer: 0
Undoes
EndUndoes
Redoes
EndRedoes
EndUndoRedoHistory
UndoRedoHistory
Layer: 1
Undoes
EndUndoes
Redoes
EndRedoes
EndUndoRedoHistory
Fore
SplineSet
247 877 m 0,0,1
 299 877 299 877 331 854 c 128,-1,2
 363 831 363 831 363 791 c 128,-1,3
 363 751 363 751 329.5 729 c 128,-1,4
 296 707 296 707 242 707 c 0,5,6
 189 707 189 707 156 728.5 c 128,-1,7
 123 750 123 750 123 789 c 0,8,9
 123 829 123 829 158 853 c 128,-1,10
 193 877 193 877 247 877 c 0,0,1
497 877 m 0,11,12
 549 877 549 877 581 854 c 128,-1,13
 613 831 613 831 613 791 c 128,-1,14
 613 751 613 751 579.5 729 c 128,-1,15
 546 707 546 707 492 707 c 0,16,17
 439 707 439 707 406 728.5 c 128,-1,18
 373 750 373 750 373 789 c 0,19,20
 373 829 373 829 408 853 c 128,-1,21
 443 877 443 877 497 877 c 0,11,12
358 680 m 0,22,23
 528 680 528 680 615.5 594 c 128,-1,24
 703 508 703 508 703 339 c 0,25,26
 703 173 703 173 612 75.5 c 128,-1,27
 521 -22 521 -22 358 -22 c 0,28,29
 201 -22 201 -22 106.5 73 c 128,-1,30
 12 168 12 168 12 325 c 0,31,32
 12 496 12 496 100.5 588 c 128,-1,33
 189 680 189 680 358 680 c 0,22,23
358 54 m 128,-1,35
 372 54 372 54 383 66.5 c 128,-1,36
 394 79 394 79 400 103 c 128,-1,37
 406 127 406 127 410.5 152 c 128,-1,38
 415 177 415 177 416.5 213.5 c 128,-1,39
 418 250 418 250 418.5 274.5 c 128,-1,40
 419 299 419 299 419 334 c 2,41,-1
 419 368 l 2,42,43
 419 380 419 380 418.5 404 c 128,-1,44
 418 428 418 428 417.5 442 c 128,-1,45
 417 456 417 456 415.5 477 c 128,-1,46
 414 498 414 498 411.5 511 c 128,-1,47
 409 524 409 524 406 540.5 c 128,-1,48
 403 557 403 557 398.5 567 c 128,-1,49
 394 577 394 577 388 586.5 c 128,-1,50
 382 596 382 596 374.5 600 c 128,-1,51
 367 604 367 604 358 604 c 0,52,53
 343 604 343 604 332 592.5 c 128,-1,54
 321 581 321 581 314.5 557.5 c 128,-1,55
 308 534 308 534 304 511.5 c 128,-1,56
 300 489 300 489 298.5 452.5 c 128,-1,57
 297 416 297 416 296.5 393.5 c 128,-1,58
 296 371 296 371 296 334 c 0,59,60
 296 300 296 300 296.5 274.5 c 128,-1,61
 297 249 297 249 299 213.5 c 128,-1,62
 301 178 301 178 305 152.5 c 128,-1,63
 309 127 309 127 315.5 103 c 128,-1,64
 322 79 322 79 333 66.5 c 128,-1,34
 344 54 344 54 358 54 c 128,-1,35
EndSplineSet
Validated: 1
Position2: "'cpsp' Capital Spacing lookup 3 subtable" dx=5 dy=0 dh=10 dv=0
EndChar

StartChar: Odotbelow
Encoding: 7884 7884 91
Width: 715
Flags: MW
HStem: -202 170<329 394> -22 76<329 388 329 467> 604 76<328 389>
VStem: 12 284<279 390 279 438> 419 284<279 390>
LayerCount: 2
UndoRedoHistory
Layer: 0
Undoes
EndUndoes
Redoes
EndRedoes
EndUndoRedoHistory
UndoRedoHistory
Layer: 1
Undoes
EndUndoes
Redoes
EndRedoes
EndUndoRedoHistory
Fore
SplineSet
358 680 m 0,0,1
 528 680 528 680 615.5 594 c 128,-1,2
 703 508 703 508 703 339 c 0,3,4
 703 173 703 173 612 75.5 c 128,-1,5
 521 -22 521 -22 358 -22 c 0,6,7
 201 -22 201 -22 106.5 73 c 128,-1,8
 12 168 12 168 12 325 c 0,9,10
 12 496 12 496 100.5 588 c 128,-1,11
 189 680 189 680 358 680 c 0,0,1
358 54 m 128,-1,13
 372 54 372 54 383 66.5 c 128,-1,14
 394 79 394 79 400 103 c 128,-1,15
 406 127 406 127 410.5 152 c 128,-1,16
 415 177 415 177 416.5 213.5 c 128,-1,17
 418 250 418 250 418.5 274.5 c 128,-1,18
 419 299 419 299 419 334 c 2,19,-1
 419 368 l 2,20,21
 419 380 419 380 418.5 404 c 128,-1,22
 418 428 418 428 417.5 442 c 128,-1,23
 417 456 417 456 415.5 477 c 128,-1,24
 414 498 414 498 411.5 511 c 128,-1,25
 409 524 409 524 406 540.5 c 128,-1,26
 403 557 403 557 398.5 567 c 128,-1,27
 394 577 394 577 388 586.5 c 128,-1,28
 382 596 382 596 374.5 600 c 128,-1,29
 367 604 367 604 358 604 c 0,30,31
 343 604 343 604 332 592.5 c 128,-1,32
 321 581 321 581 314.5 557.5 c 128,-1,33
 308 534 308 534 304 511.5 c 128,-1,34
 300 489 300 489 298.5 452.5 c 128,-1,35
 297 416 297 416 296.5 393.5 c 128,-1,36
 296 371 296 371 296 334 c 0,37,38
 296 300 296 300 296.5 274.5 c 128,-1,39
 297 249 297 249 299 213.5 c 128,-1,40
 301 178 301 178 305 152.5 c 128,-1,41
 309 127 309 127 315.5 103 c 128,-1,42
 322 79 322 79 333 66.5 c 128,-1,12
 344 54 344 54 358 54 c 128,-1,13
364 -32 m 0,43,44
 416 -32 416 -32 448 -55 c 128,-1,45
 480 -78 480 -78 480 -118 c 128,-1,46
 480 -158 480 -158 446.5 -180 c 128,-1,47
 413 -202 413 -202 359 -202 c 0,48,49
 306 -202 306 -202 273 -180.5 c 128,-1,50
 240 -159 240 -159 240 -120 c 0,51,52
 240 -80 240 -80 275 -56 c 128,-1,53
 310 -32 310 -32 364 -32 c 0,43,44
EndSplineSet
Validated: 1
Position2: "'cpsp' Capital Spacing lookup 3 subtable" dx=5 dy=0 dh=10 dv=0
EndChar

StartChar: Ograve
Encoding: 210 210 92
Width: 715
Flags: MW
HStem: -22 76<329 388 329 467> 604 76<328 389>
VStem: 12 284<279 390 279 438> 419 284<279 390>
LayerCount: 2
UndoRedoHistory
Layer: 0
Undoes
EndUndoes
Redoes
EndRedoes
EndUndoRedoHistory
UndoRedoHistory
Layer: 1
Undoes
EndUndoes
Redoes
EndRedoes
EndUndoRedoHistory
Fore
SplineSet
307 720 m 2,0,1
 246 724 246 724 225 730 c 0,2,3
 171 745 171 745 171 791 c 0,4,5
 171 812 171 812 183.5 836 c 128,-1,6
 196 860 196 860 214 876 c 1,7,-1
 479 765 l 1,8,-1
 466 709 l 1,9,-1
 307 720 l 2,0,1
358 680 m 0,10,11
 528 680 528 680 615.5 594 c 128,-1,12
 703 508 703 508 703 339 c 0,13,14
 703 173 703 173 612 75.5 c 128,-1,15
 521 -22 521 -22 358 -22 c 0,16,17
 201 -22 201 -22 106.5 73 c 128,-1,18
 12 168 12 168 12 325 c 0,19,20
 12 496 12 496 100.5 588 c 128,-1,21
 189 680 189 680 358 680 c 0,10,11
358 54 m 128,-1,23
 372 54 372 54 383 66.5 c 128,-1,24
 394 79 394 79 400 103 c 128,-1,25
 406 127 406 127 410.5 152 c 128,-1,26
 415 177 415 177 416.5 213.5 c 128,-1,27
 418 250 418 250 418.5 274.5 c 128,-1,28
 419 299 419 299 419 334 c 2,29,-1
 419 368 l 2,30,31
 419 380 419 380 418.5 404 c 128,-1,32
 418 428 418 428 417.5 442 c 128,-1,33
 417 456 417 456 415.5 477 c 128,-1,34
 414 498 414 498 411.5 511 c 128,-1,35
 409 524 409 524 406 540.5 c 128,-1,36
 403 557 403 557 398.5 567 c 128,-1,37
 394 577 394 577 388 586.5 c 128,-1,38
 382 596 382 596 374.5 600 c 128,-1,39
 367 604 367 604 358 604 c 0,40,41
 343 604 343 604 332 592.5 c 128,-1,42
 321 581 321 581 314.5 557.5 c 128,-1,43
 308 534 308 534 304 511.5 c 128,-1,44
 300 489 300 489 298.5 452.5 c 128,-1,45
 297 416 297 416 296.5 393.5 c 128,-1,46
 296 371 296 371 296 334 c 0,47,48
 296 300 296 300 296.5 274.5 c 128,-1,49
 297 249 297 249 299 213.5 c 128,-1,50
 301 178 301 178 305 152.5 c 128,-1,51
 309 127 309 127 315.5 103 c 128,-1,52
 322 79 322 79 333 66.5 c 128,-1,22
 344 54 344 54 358 54 c 128,-1,23
EndSplineSet
Validated: 1
Position2: "'cpsp' Capital Spacing lookup 3 subtable" dx=5 dy=0 dh=10 dv=0
EndChar

StartChar: Ohungarumlaut
Encoding: 336 336 93
Width: 715
Flags: MW
HStem: -22 76<329 388 329 467> 604 76<328 389>
VStem: 12 284<279 390 279 438> 419 284<279 390>
LayerCount: 2
UndoRedoHistory
Layer: 0
Undoes
EndUndoes
Redoes
EndRedoes
EndUndoRedoHistory
UndoRedoHistory
Layer: 1
Undoes
EndUndoes
Redoes
EndRedoes
EndUndoRedoHistory
Fore
SplineSet
377 869 m 1,0,1
 423 840 423 840 423 802 c 0,2,3
 423 726 423 726 334 715 c 1,4,-1
 213 698 l 1,5,-1
 191 760 l 1,6,-1
 377 869 l 1,0,1
597 869 m 1,7,8
 643 840 643 840 643 802 c 0,9,10
 643 765 643 765 621.5 743 c 128,-1,11
 600 721 600 721 554 715 c 2,12,-1
 441 698 l 1,13,-1
 419 760 l 1,14,-1
 597 869 l 1,7,8
358 680 m 0,15,16
 528 680 528 680 615.5 594 c 128,-1,17
 703 508 703 508 703 339 c 0,18,19
 703 173 703 173 612 75.5 c 128,-1,20
 521 -22 521 -22 358 -22 c 0,21,22
 201 -22 201 -22 106.5 73 c 128,-1,23
 12 168 12 168 12 325 c 0,24,25
 12 496 12 496 100.5 588 c 128,-1,26
 189 680 189 680 358 680 c 0,15,16
358 54 m 128,-1,28
 372 54 372 54 383 66.5 c 128,-1,29
 394 79 394 79 400 103 c 128,-1,30
 406 127 406 127 410.5 152 c 128,-1,31
 415 177 415 177 416.5 213.5 c 128,-1,32
 418 250 418 250 418.5 274.5 c 128,-1,33
 419 299 419 299 419 334 c 2,34,-1
 419 368 l 2,35,36
 419 380 419 380 418.5 404 c 128,-1,37
 418 428 418 428 417.5 442 c 128,-1,38
 417 456 417 456 415.5 477 c 128,-1,39
 414 498 414 498 411.5 511 c 128,-1,40
 409 524 409 524 406 540.5 c 128,-1,41
 403 557 403 557 398.5 567 c 128,-1,42
 394 577 394 577 388 586.5 c 128,-1,43
 382 596 382 596 374.5 600 c 128,-1,44
 367 604 367 604 358 604 c 0,45,46
 343 604 343 604 332 592.5 c 128,-1,47
 321 581 321 581 314.5 557.5 c 128,-1,48
 308 534 308 534 304 511.5 c 128,-1,49
 300 489 300 489 298.5 452.5 c 128,-1,50
 297 416 297 416 296.5 393.5 c 128,-1,51
 296 371 296 371 296 334 c 0,52,53
 296 300 296 300 296.5 274.5 c 128,-1,54
 297 249 297 249 299 213.5 c 128,-1,55
 301 178 301 178 305 152.5 c 128,-1,56
 309 127 309 127 315.5 103 c 128,-1,57
 322 79 322 79 333 66.5 c 128,-1,27
 344 54 344 54 358 54 c 128,-1,28
EndSplineSet
Validated: 1
Position2: "'cpsp' Capital Spacing lookup 3 subtable" dx=5 dy=0 dh=10 dv=0
EndChar

StartChar: Omacron
Encoding: 332 332 94
Width: 715
Flags: MW
HStem: -22 76<329 388 329 467> 604 76<328 389> 770 97<258 466 208 513>
VStem: 12 284<279 390 279 438> 419 284<279 390>
LayerCount: 2
UndoRedoHistory
Layer: 0
Undoes
EndUndoes
Redoes
EndRedoes
EndUndoRedoHistory
UndoRedoHistory
Layer: 1
Undoes
EndUndoes
Redoes
EndRedoes
EndUndoRedoHistory
Fore
SplineSet
513 867 m 1,0,1
 522 854 522 854 522 828 c 128,-1,2
 522 802 522 802 506 786 c 128,-1,3
 490 770 490 770 466 770 c 2,4,-1
 208 770 l 1,5,6
 198 784 198 784 198 811 c 0,7,8
 198 836 198 836 214.5 851.5 c 128,-1,9
 231 867 231 867 258 867 c 2,10,-1
 513 867 l 1,0,1
358 680 m 0,11,12
 528 680 528 680 615.5 594 c 128,-1,13
 703 508 703 508 703 339 c 0,14,15
 703 173 703 173 612 75.5 c 128,-1,16
 521 -22 521 -22 358 -22 c 0,17,18
 201 -22 201 -22 106.5 73 c 128,-1,19
 12 168 12 168 12 325 c 0,20,21
 12 496 12 496 100.5 588 c 128,-1,22
 189 680 189 680 358 680 c 0,11,12
358 54 m 128,-1,24
 372 54 372 54 383 66.5 c 128,-1,25
 394 79 394 79 400 103 c 128,-1,26
 406 127 406 127 410.5 152 c 128,-1,27
 415 177 415 177 416.5 213.5 c 128,-1,28
 418 250 418 250 418.5 274.5 c 128,-1,29
 419 299 419 299 419 334 c 2,30,-1
 419 368 l 2,31,32
 419 380 419 380 418.5 404 c 128,-1,33
 418 428 418 428 417.5 442 c 128,-1,34
 417 456 417 456 415.5 477 c 128,-1,35
 414 498 414 498 411.5 511 c 128,-1,36
 409 524 409 524 406 540.5 c 128,-1,37
 403 557 403 557 398.5 567 c 128,-1,38
 394 577 394 577 388 586.5 c 128,-1,39
 382 596 382 596 374.5 600 c 128,-1,40
 367 604 367 604 358 604 c 0,41,42
 343 604 343 604 332 592.5 c 128,-1,43
 321 581 321 581 314.5 557.5 c 128,-1,44
 308 534 308 534 304 511.5 c 128,-1,45
 300 489 300 489 298.5 452.5 c 128,-1,46
 297 416 297 416 296.5 393.5 c 128,-1,47
 296 371 296 371 296 334 c 0,48,49
 296 300 296 300 296.5 274.5 c 128,-1,50
 297 249 297 249 299 213.5 c 128,-1,51
 301 178 301 178 305 152.5 c 128,-1,52
 309 127 309 127 315.5 103 c 128,-1,53
 322 79 322 79 333 66.5 c 128,-1,23
 344 54 344 54 358 54 c 128,-1,24
EndSplineSet
Validated: 1
Position2: "'cpsp' Capital Spacing lookup 3 subtable" dx=5 dy=0 dh=10 dv=0
EndChar

StartChar: Oogonek
Encoding: 490 490 95
Width: 715
Flags: MW
HStem: -284 102<370 461> -22 76<329 358 358 366> 604 76<328 389>
VStem: 12 284<279 390 279 438> 254 138<-154 -139> 419 284<279 390>
LayerCount: 2
UndoRedoHistory
Layer: 0
Undoes
EndUndoes
Redoes
EndRedoes
EndUndoRedoHistory
UndoRedoHistory
Layer: 1
Undoes
EndUndoes
Redoes
EndRedoes
EndUndoRedoHistory
Fore
SplineSet
491 -1 m 1,0,1
 392 -67 392 -67 392 -135 c 0,2,3
 392 -162 392 -162 407 -172 c 128,-1,4
 422 -182 422 -182 452 -182 c 0,5,6
 470 -182 470 -182 489 -175 c 128,-1,7
 508 -168 508 -168 515 -155 c 1,8,9
 547 -177 547 -177 547 -210 c 0,10,11
 547 -229 547 -229 531.5 -244 c 128,-1,12
 516 -259 516 -259 493 -267.5 c 128,-1,13
 470 -276 470 -276 447 -280 c 128,-1,14
 424 -284 424 -284 405 -284 c 0,15,16
 383 -284 383 -284 362 -281 c 128,-1,17
 341 -278 341 -278 321 -271 c 128,-1,18
 301 -264 301 -264 286.5 -252.5 c 128,-1,19
 272 -241 272 -241 263 -223 c 128,-1,20
 254 -205 254 -205 254 -181 c 0,21,22
 254 -121 254 -121 283.5 -83 c 128,-1,23
 313 -45 313 -45 366 -22 c 1,24,-1
 358 -22 l 2,25,26
 201 -22 201 -22 106.5 73 c 128,-1,27
 12 168 12 168 12 325 c 0,28,29
 12 496 12 496 100 588 c 128,-1,30
 188 680 188 680 358 680 c 128,-1,31
 528 680 528 680 615.5 594 c 128,-1,32
 703 508 703 508 703 339 c 0,33,34
 703 211 703 211 648 122.5 c 128,-1,35
 593 34 593 34 491 -1 c 1,0,1
296 334 m 0,36,37
 296 300 296 300 296.5 274.5 c 128,-1,38
 297 249 297 249 299 213.5 c 128,-1,39
 301 178 301 178 305 152.5 c 128,-1,40
 309 127 309 127 315.5 103 c 128,-1,41
 322 79 322 79 333 66.5 c 128,-1,42
 344 54 344 54 358 54 c 128,-1,43
 372 54 372 54 383 66.5 c 128,-1,44
 394 79 394 79 400 103 c 128,-1,45
 406 127 406 127 410.5 152 c 128,-1,46
 415 177 415 177 416.5 213.5 c 128,-1,47
 418 250 418 250 418.5 274.5 c 128,-1,48
 419 299 419 299 419 334 c 2,49,-1
 419 368 l 2,50,51
 419 380 419 380 418.5 404 c 128,-1,52
 418 428 418 428 417.5 442 c 128,-1,53
 417 456 417 456 415.5 477 c 128,-1,54
 414 498 414 498 411.5 511 c 128,-1,55
 409 524 409 524 406 540.5 c 128,-1,56
 403 557 403 557 398.5 567 c 128,-1,57
 394 577 394 577 388 586.5 c 128,-1,58
 382 596 382 596 374.5 600 c 128,-1,59
 367 604 367 604 358 604 c 0,60,61
 343 604 343 604 332 592.5 c 128,-1,62
 321 581 321 581 314.5 557.5 c 128,-1,63
 308 534 308 534 304 511.5 c 128,-1,64
 300 489 300 489 298.5 452.5 c 128,-1,65
 297 416 297 416 296.5 393.5 c 128,-1,66
 296 371 296 371 296 334 c 0,36,37
EndSplineSet
Validated: 8388609
Position2: "'cpsp' Capital Spacing lookup 3 subtable" dx=5 dy=0 dh=10 dv=0
EndChar

StartChar: Oslash
Encoding: 216 216 96
Width: 715
Flags: MW
HStem: -22 76<339 388 339 467> 604 76<332 369> 647 20G<477 477>
VStem: 12 284<381 381 381 438> 419 284<334 393 393 393>
LayerCount: 2
UndoRedoHistory
Layer: 0
Undoes
EndUndoes
Redoes
EndRedoes
EndUndoRedoHistory
UndoRedoHistory
Layer: 1
Undoes
EndUndoes
Redoes
EndRedoes
EndUndoRedoHistory
Fore
SplineSet
569 630 m 1,0,1
 703 548 703 548 703 339 c 0,2,3
 703 173 703 173 612 75.5 c 128,-1,4
 521 -22 521 -22 358 -22 c 0,5,6
 259 -22 259 -22 182 18 c 1,7,-1
 133 -59 l 1,8,9
 130 -59 130 -59 127 -59 c 0,10,11
 97 -59 97 -59 78 -49 c 0,12,13
 57 -38 57 -38 57 -14 c 0,14,15
 57 3 57 3 74 29 c 2,16,-1
 104 76 l 1,17,18
 12 171 12 171 12 325 c 0,19,20
 12 496 12 496 100 588 c 128,-1,21
 188 680 188 680 358 680 c 0,22,23
 423 680 423 680 477 667 c 1,24,-1
 513 724 l 1,25,26
 516 724 516 724 519 724 c 0,27,28
 549 724 549 724 568 714 c 0,29,30
 589 703 589 703 589 679 c 0,31,32
 589 662 589 662 572 636 c 1,33,-1
 569 630 l 1,0,1
403 550 m 1,34,35
 389 604 389 604 358 604 c 0,36,37
 343 604 343 604 331.5 590.5 c 128,-1,38
 320 577 320 577 313.5 556 c 128,-1,39
 307 535 307 535 303 504 c 128,-1,40
 299 473 299 473 297.5 445 c 128,-1,41
 296 417 296 417 296 381 c 1,42,-1
 403 550 l 1,34,35
299 205 m 1,43,44
 310 54 310 54 358 54 c 0,45,46
 372 54 372 54 383 66.5 c 128,-1,47
 394 79 394 79 400 103 c 128,-1,48
 406 127 406 127 410.5 152 c 128,-1,49
 415 177 415 177 416.5 213.5 c 128,-1,50
 418 250 418 250 418.5 274.5 c 128,-1,51
 419 299 419 299 419 334 c 2,52,-1
 419 393 l 1,53,-1
 299 205 l 1,43,44
EndSplineSet
Validated: 8388609
Position2: "'cpsp' Capital Spacing lookup 3 subtable" dx=5 dy=0 dh=10 dv=0
EndChar

StartChar: Oslashacute
Encoding: 510 510 97
Width: 715
Flags: MW
HStem: -22 76<339 388 339 467> 604 76<332 369> 647 20G<477 477>
VStem: 12 284<381 381 381 438> 419 284<334 393 393 393>
LayerCount: 2
UndoRedoHistory
Layer: 0
Undoes
EndUndoes
Redoes
EndRedoes
EndUndoRedoHistory
UndoRedoHistory
Layer: 1
Undoes
EndUndoes
Redoes
EndRedoes
EndUndoRedoHistory
Fore
SplineSet
494 876 m 1,0,1
 513 860 513 860 525.5 836.5 c 128,-1,2
 538 813 538 813 538 791 c 0,3,4
 538 773 538 773 530 760.5 c 128,-1,5
 522 748 522 748 510 740.5 c 128,-1,6
 498 733 498 733 480.5 729 c 128,-1,7
 463 725 463 725 446.5 723.5 c 128,-1,8
 430 722 430 722 412 721 c 0,9,10
 411 721 411 721 410 721 c 2,11,-1
 408 721 l 2,12,13
 406 721 406 721 404.5 720.5 c 128,-1,14
 403 720 403 720 402 720 c 2,15,-1
 243 709 l 1,16,-1
 230 765 l 1,17,-1
 494 876 l 1,0,1
569 630 m 1,18,19
 703 548 703 548 703 339 c 0,20,21
 703 173 703 173 612 75.5 c 128,-1,22
 521 -22 521 -22 358 -22 c 0,23,24
 259 -22 259 -22 182 18 c 1,25,-1
 133 -59 l 1,26,27
 130 -59 130 -59 127 -59 c 0,28,29
 97 -59 97 -59 78 -49 c 0,30,31
 57 -38 57 -38 57 -14 c 0,32,33
 57 3 57 3 74 29 c 2,34,-1
 104 76 l 1,35,36
 12 171 12 171 12 325 c 0,37,38
 12 496 12 496 100 588 c 128,-1,39
 188 680 188 680 358 680 c 0,40,41
 423 680 423 680 477 667 c 1,42,-1
 513 724 l 1,43,44
 516 724 516 724 519 724 c 0,45,46
 549 724 549 724 568 714 c 0,47,48
 589 703 589 703 589 679 c 0,49,50
 589 662 589 662 572 636 c 1,51,-1
 569 630 l 1,18,19
403 550 m 1,52,53
 389 604 389 604 358 604 c 0,54,55
 343 604 343 604 331.5 590.5 c 128,-1,56
 320 577 320 577 313.5 556 c 128,-1,57
 307 535 307 535 303 504 c 128,-1,58
 299 473 299 473 297.5 445 c 128,-1,59
 296 417 296 417 296 381 c 1,60,-1
 403 550 l 1,52,53
299 205 m 1,61,62
 310 54 310 54 358 54 c 0,63,64
 372 54 372 54 383 66.5 c 128,-1,65
 394 79 394 79 400 103 c 128,-1,66
 406 127 406 127 410.5 152 c 128,-1,67
 415 177 415 177 416.5 213.5 c 128,-1,68
 418 250 418 250 418.5 274.5 c 128,-1,69
 419 299 419 299 419 334 c 2,70,-1
 419 393 l 1,71,-1
 299 205 l 1,61,62
EndSplineSet
Validated: 8388609
Position2: "'cpsp' Capital Spacing lookup 3 subtable" dx=5 dy=0 dh=10 dv=0
EndChar

StartChar: Otilde
Encoding: 213 213 98
Width: 715
Flags: MW
HStem: -22 76<329 388 329 467> 604 76<328 389> 706 114<459 495> 724 114<224 259>
VStem: 12 284<279 390 279 438> 419 284<279 390>
LayerCount: 2
UndoRedoHistory
Layer: 0
Undoes
EndUndoes
Redoes
EndRedoes
EndUndoRedoHistory
UndoRedoHistory
Layer: 1
Undoes
EndUndoes
Redoes
EndRedoes
EndUndoRedoHistory
Fore
SplineSet
562 843 m 1,0,1
 583 807 583 807 583 778 c 0,2,3
 583 756 583 756 573.5 740.5 c 128,-1,4
 564 725 564 725 546 718 c 128,-1,5
 528 711 528 711 509 708.5 c 128,-1,6
 490 706 490 706 463 706 c 0,7,8
 433 706 433 706 346 715 c 128,-1,9
 259 724 259 724 227 724 c 0,10,11
 179 724 179 724 157 701 c 1,12,13
 136 737 136 737 136 766 c 0,14,15
 136 788 136 788 145.5 803.5 c 128,-1,16
 155 819 155 819 172.5 826 c 128,-1,17
 190 833 190 833 209.5 835.5 c 128,-1,18
 229 838 229 838 256 838 c 0,19,20
 286 838 286 838 372.5 829 c 128,-1,21
 459 820 459 820 492 820 c 0,22,23
 540 820 540 820 562 843 c 1,0,1
358 680 m 0,24,25
 528 680 528 680 615.5 594 c 128,-1,26
 703 508 703 508 703 339 c 0,27,28
 703 173 703 173 612 75.5 c 128,-1,29
 521 -22 521 -22 358 -22 c 0,30,31
 201 -22 201 -22 106.5 73 c 128,-1,32
 12 168 12 168 12 325 c 0,33,34
 12 496 12 496 100.5 588 c 128,-1,35
 189 680 189 680 358 680 c 0,24,25
358 54 m 128,-1,37
 372 54 372 54 383 66.5 c 128,-1,38
 394 79 394 79 400 103 c 128,-1,39
 406 127 406 127 410.5 152 c 128,-1,40
 415 177 415 177 416.5 213.5 c 128,-1,41
 418 250 418 250 418.5 274.5 c 128,-1,42
 419 299 419 299 419 334 c 2,43,-1
 419 368 l 2,44,45
 419 380 419 380 418.5 404 c 128,-1,46
 418 428 418 428 417.5 442 c 128,-1,47
 417 456 417 456 415.5 477 c 128,-1,48
 414 498 414 498 411.5 511 c 128,-1,49
 409 524 409 524 406 540.5 c 128,-1,50
 403 557 403 557 398.5 567 c 128,-1,51
 394 577 394 577 388 586.5 c 128,-1,52
 382 596 382 596 374.5 600 c 128,-1,53
 367 604 367 604 358 604 c 0,54,55
 343 604 343 604 332 592.5 c 128,-1,56
 321 581 321 581 314.5 557.5 c 128,-1,57
 308 534 308 534 304 511.5 c 128,-1,58
 300 489 300 489 298.5 452.5 c 128,-1,59
 297 416 297 416 296.5 393.5 c 128,-1,60
 296 371 296 371 296 334 c 0,61,62
 296 300 296 300 296.5 274.5 c 128,-1,63
 297 249 297 249 299 213.5 c 128,-1,64
 301 178 301 178 305 152.5 c 128,-1,65
 309 127 309 127 315.5 103 c 128,-1,66
 322 79 322 79 333 66.5 c 128,-1,36
 344 54 344 54 358 54 c 128,-1,37
EndSplineSet
Validated: 8388609
Position2: "'cpsp' Capital Spacing lookup 3 subtable" dx=5 dy=0 dh=10 dv=0
EndChar

StartChar: OE
Encoding: 338 338 99
Width: 833
Flags: MW
HStem: -22 76<329 383> 0 89<666 840> 294 90<666 803 666 803> 571 89<666 833 666 666> 604 76<328 389>
VStem: 12 284<279 390 279 438> 422 244<279 294 384 390>
LayerCount: 2
UndoRedoHistory
Layer: 0
Undoes
EndUndoes
Redoes
EndRedoes
EndUndoRedoHistory
UndoRedoHistory
Layer: 1
Undoes
EndUndoes
Redoes
EndRedoes
EndUndoRedoHistory
Fore
SplineSet
840 0 m 1,0,-1
 494 0 l 1,1,2
 431 -22 431 -22 358 -22 c 0,3,4
 201 -22 201 -22 106.5 73 c 128,-1,5
 12 168 12 168 12 325 c 0,6,7
 12 496 12 496 100 588 c 128,-1,8
 188 680 188 680 358 680 c 0,9,10
 455 680 455 680 523 660 c 1,11,-1
 833 660 l 1,12,-1
 833 571 l 1,13,-1
 666 571 l 1,14,-1
 666 384 l 1,15,-1
 803 384 l 1,16,-1
 803 294 l 1,17,-1
 666 294 l 1,18,-1
 666 89 l 1,19,-1
 849 89 l 1,20,-1
 840 0 l 1,0,-1
358 54 m 128,-1,22
 372 54 372 54 383 66.5 c 128,-1,23
 394 79 394 79 401 102.5 c 128,-1,24
 408 126 408 126 412.5 152 c 128,-1,25
 417 178 417 178 418.5 213 c 128,-1,26
 420 248 420 248 421 274.5 c 128,-1,27
 422 301 422 301 422 334 c 0,28,29
 422 368 422 368 421.5 393 c 128,-1,30
 421 418 421 418 419 452.5 c 128,-1,31
 417 487 417 487 412.5 511 c 128,-1,32
 408 535 408 535 401.5 558 c 128,-1,33
 395 581 395 581 384 592.5 c 128,-1,34
 373 604 373 604 358 604 c 128,-1,35
 343 604 343 604 332 592.5 c 128,-1,36
 321 581 321 581 314.5 557.5 c 128,-1,37
 308 534 308 534 304 511.5 c 128,-1,38
 300 489 300 489 298.5 452.5 c 128,-1,39
 297 416 297 416 296.5 393.5 c 128,-1,40
 296 371 296 371 296 334 c 0,41,42
 296 300 296 300 296.5 274.5 c 128,-1,43
 297 249 297 249 299 213.5 c 128,-1,44
 301 178 301 178 305 152.5 c 128,-1,45
 309 127 309 127 315.5 103 c 128,-1,46
 322 79 322 79 333 66.5 c 128,-1,21
 344 54 344 54 358 54 c 128,-1,22
EndSplineSet
Validated: 8388609
Position2: "'cpsp' Capital Spacing lookup 3 subtable" dx=5 dy=0 dh=10 dv=0
EndChar

StartChar: P
Encoding: 80 80 100
Width: 679
Flags: MW
HStem: 254 89<330 517> 589 77<334 371>
VStem: 45 264<0 583 0 648 0 648> 408 256<422 490>
LayerCount: 2
UndoRedoHistory
Layer: 0
Undoes
EndUndoes
Redoes
EndRedoes
EndUndoRedoHistory
UndoRedoHistory
Layer: 1
Undoes
EndUndoes
Redoes
EndRedoes
EndUndoRedoHistory
Fore
SplineSet
45 648 m 1,0,1
 202 666 202 666 335 666 c 0,2,3
 390 666 390 666 435 661 c 128,-1,4
 480 656 480 656 524 642.5 c 128,-1,5
 568 629 568 629 597.5 606.5 c 128,-1,6
 627 584 627 584 645.5 547 c 128,-1,7
 664 510 664 510 664 460 c 0,8,9
 664 367 664 367 606 310.5 c 128,-1,10
 548 254 548 254 455 254 c 0,11,12
 330 254 330 254 330 343 c 1,13,14
 356 343 356 343 372 350.5 c 128,-1,15
 388 358 388 358 395.5 374.5 c 128,-1,16
 403 391 403 391 405.5 409.5 c 128,-1,17
 408 428 408 428 408 458 c 0,18,19
 408 487 408 487 406 506.5 c 128,-1,20
 404 526 404 526 397.5 546.5 c 128,-1,21
 391 567 391 567 376.5 578 c 128,-1,22
 362 589 362 589 339 589 c 0,23,24
 322 589 322 589 309 583 c 1,25,-1
 309 0 l 1,26,-1
 45 0 l 1,27,-1
 45 648 l 1,0,1
EndSplineSet
Validated: 1
Position2: "'cpsp' Capital Spacing lookup 3 subtable" dx=5 dy=0 dh=10 dv=0
EndChar

StartChar: Thorn
Encoding: 222 222 101
Width: 679
Flags: MW
HStem: 0 214<45 355> 460 76<334 371> 640 20G<45 309 309 309>
VStem: 45 264<0 454 536 660 0 660 0 660> 408 256<293 361>
LayerCount: 2
UndoRedoHistory
Layer: 0
Undoes
EndUndoes
Redoes
EndRedoes
EndUndoRedoHistory
UndoRedoHistory
Layer: 1
Undoes
EndUndoes
Redoes
EndRedoes
EndUndoRedoHistory
Fore
SplineSet
309 536 m 1,0,-1
 383 536 l 2,1,2
 438 536 438 536 478.5 531 c 128,-1,3
 519 526 519 526 555.5 513 c 128,-1,4
 592 500 592 500 615 477.5 c 128,-1,5
 638 455 638 455 651 418 c 128,-1,6
 664 381 664 381 664 331 c 0,7,8
 664 238 664 238 606 181.5 c 128,-1,9
 548 125 548 125 455 125 c 0,10,11
 405 125 405 125 367.5 152.5 c 128,-1,12
 330 180 330 180 330 214 c 1,13,14
 368 214 368 214 388 244.5 c 128,-1,15
 408 275 408 275 408 329 c 0,16,17
 408 358 408 358 406 377.5 c 128,-1,18
 404 397 404 397 397.5 417.5 c 128,-1,19
 391 438 391 438 376.5 449 c 128,-1,20
 362 460 362 460 339 460 c 0,21,22
 322 460 322 460 309 454 c 1,23,-1
 309 0 l 1,24,-1
 45 0 l 1,25,-1
 45 660 l 1,26,-1
 309 660 l 1,27,-1
 309 536 l 1,0,-1
EndSplineSet
Validated: 1
Position2: "'cpsp' Capital Spacing lookup 3 subtable" dx=5 dy=0 dh=10 dv=0
EndChar

StartChar: Q
Encoding: 81 81 102
Width: 715
Flags: MW
HStem: -213 160<522 570 522 611> -115 122 -35 20G -22 76<359 359> 604 76<328 389>
VStem: 12 284<279 390 279 438> 419 284<279 390>
LayerCount: 2
UndoRedoHistory
Layer: 0
Undoes
EndUndoes
Redoes
EndRedoes
EndUndoRedoHistory
UndoRedoHistory
Layer: 1
Undoes
EndUndoes
Redoes
EndRedoes
EndUndoRedoHistory
Fore
SplineSet
358 680 m 0,0,1
 528 680 528 680 615.5 594 c 128,-1,2
 703 508 703 508 703 339 c 0,3,4
 703 276 703 276 683 219 c 128,-1,5
 663 162 663 162 628.5 119 c 128,-1,6
 594 76 594 76 550 44 c 128,-1,7
 506 12 506 12 457 -4.5 c 128,-1,8
 408 -21 408 -21 359 -22 c 1,9,10
 479 -53 479 -53 551 -53 c 0,11,12
 585 -53 585 -53 609.5 -45.5 c 128,-1,13
 634 -38 634 -38 657 -15 c 1,14,15
 672 -43 672 -43 679 -63.5 c 128,-1,16
 686 -84 686 -84 686 -110 c 0,17,18
 686 -213 686 -213 581 -213 c 0,19,20
 547 -213 547 -213 507.5 -203 c 128,-1,21
 468 -193 468 -193 432 -178.5 c 128,-1,22
 396 -164 396 -164 358.5 -149.5 c 128,-1,23
 321 -135 321 -135 280 -125 c 128,-1,24
 239 -115 239 -115 202 -115 c 0,25,26
 136 -115 136 -115 109 -129 c 1,27,28
 84 -103 84 -103 84 -69 c 0,29,30
 84 -50 84 -50 90.5 -36 c 128,-1,31
 97 -22 97 -22 107 -14 c 128,-1,32
 117 -6 117 -6 134 -1.5 c 128,-1,33
 151 3 151 3 166.5 4.5 c 128,-1,34
 182 6 182 6 205 7 c 1,35,36
 116 49 116 49 64 131.5 c 128,-1,37
 12 214 12 214 12 325 c 0,38,39
 12 496 12 496 100.5 588 c 128,-1,40
 189 680 189 680 358 680 c 0,0,1
358 604 m 0,41,42
 343 604 343 604 332 592.5 c 128,-1,43
 321 581 321 581 314.5 557.5 c 128,-1,44
 308 534 308 534 304 511.5 c 128,-1,45
 300 489 300 489 298.5 452.5 c 128,-1,46
 297 416 297 416 296.5 393.5 c 128,-1,47
 296 371 296 371 296 334 c 0,48,49
 296 300 296 300 296.5 274.5 c 128,-1,50
 297 249 297 249 299 213.5 c 128,-1,51
 301 178 301 178 305 152.5 c 128,-1,52
 309 127 309 127 315.5 103 c 128,-1,53
 322 79 322 79 333 66.5 c 128,-1,54
 344 54 344 54 358 54 c 128,-1,55
 372 54 372 54 383 66.5 c 128,-1,56
 394 79 394 79 400 103 c 128,-1,57
 406 127 406 127 410.5 152 c 128,-1,58
 415 177 415 177 416.5 213.5 c 128,-1,59
 418 250 418 250 418.5 274.5 c 128,-1,60
 419 299 419 299 419 334 c 2,61,-1
 419 368 l 2,62,63
 419 380 419 380 418.5 404 c 128,-1,64
 418 428 418 428 417.5 442 c 128,-1,65
 417 456 417 456 415.5 477 c 128,-1,66
 414 498 414 498 411.5 511 c 128,-1,67
 409 524 409 524 406 540.5 c 128,-1,68
 403 557 403 557 398.5 567 c 128,-1,69
 394 577 394 577 388 586.5 c 128,-1,70
 382 596 382 596 374.5 600 c 128,-1,71
 367 604 367 604 358 604 c 0,41,42
EndSplineSet
Validated: 8388609
Position2: "'cpsp' Capital Spacing lookup 3 subtable" dx=5 dy=0 dh=10 dv=0
EndChar

StartChar: R
Encoding: 82 82 103
Width: 668
Flags: MW
HStem: 589 77<334 365>
VStem: 45 264<0 583 0 648 0 648> 393 256<432 496>
LayerCount: 2
UndoRedoHistory
Layer: 0
Undoes
EndUndoes
Redoes
EndRedoes
EndUndoRedoHistory
UndoRedoHistory
Layer: 1
Undoes
EndUndoes
Redoes
EndRedoes
EndUndoRedoHistory
Fore
SplineSet
45 648 m 1,0,1
 202 666 202 666 335 666 c 0,2,3
 392 666 392 666 435.5 661.5 c 128,-1,4
 479 657 479 657 520.5 643.5 c 128,-1,5
 562 630 562 630 589 607.5 c 128,-1,6
 616 585 616 585 632.5 547 c 128,-1,7
 649 509 649 509 649 457 c 0,8,9
 649 391 649 391 620.5 342.5 c 128,-1,10
 592 294 592 294 540 269 c 1,11,-1
 691 0 l 1,12,-1
 425 0 l 1,13,-1
 340 288 l 2,14,15
 330 322 330 322 330 338 c 1,16,17
 343 338 343 338 353.5 341.5 c 128,-1,18
 364 345 364 345 370.5 349.5 c 128,-1,19
 377 354 377 354 381.5 364.5 c 128,-1,20
 386 375 386 375 388.5 382 c 128,-1,21
 391 389 391 389 392 404.5 c 128,-1,22
 393 420 393 420 393 428 c 2,23,-1
 393 456 l 1,24,-1
 393 467 l 2,25,26
 393 488 393 488 392.5 502 c 128,-1,27
 392 516 392 516 389 534.5 c 128,-1,28
 386 553 386 553 380.5 563.5 c 128,-1,29
 375 574 375 574 364.5 581.5 c 128,-1,30
 354 589 354 589 339 589 c 0,31,32
 322 589 322 589 309 583 c 1,33,-1
 309 0 l 1,34,-1
 45 0 l 1,35,-1
 45 648 l 1,0,1
EndSplineSet
Validated: 1
Position2: "'cpsp' Capital Spacing lookup 3 subtable" dx=5 dy=0 dh=10 dv=0
EndChar

StartChar: Racute
Encoding: 340 340 104
Width: 668
Flags: MW
HStem: 589 77<334 364>
VStem: 45 264<0 583 0 648 0 648> 393 256<437 501>
LayerCount: 2
UndoRedoHistory
Layer: 0
Undoes
EndUndoes
Redoes
EndRedoes
EndUndoRedoHistory
UndoRedoHistory
Layer: 1
Undoes
EndUndoes
Redoes
EndRedoes
EndUndoRedoHistory
Fore
SplineSet
478 874 m 1,0,1
 497 858 497 858 509.5 834.5 c 128,-1,2
 522 811 522 811 522 789 c 0,3,4
 522 771 522 771 513.5 758 c 128,-1,5
 505 745 505 745 493.5 738 c 128,-1,6
 482 731 482 731 463.5 727 c 128,-1,7
 445 723 445 723 430 721.5 c 128,-1,8
 415 720 415 720 396 718 c 1,9,-1
 386 718 l 1,10,-1
 227 707 l 1,11,-1
 214 763 l 1,12,-1
 478 874 l 1,0,1
45 648 m 1,13,14
 202 666 202 666 335 666 c 0,15,16
 392 666 392 666 435.5 661.5 c 128,-1,17
 479 657 479 657 520.5 643.5 c 128,-1,18
 562 630 562 630 589 607.5 c 128,-1,19
 616 585 616 585 632.5 547 c 128,-1,20
 649 509 649 509 649 457 c 0,21,22
 649 391 649 391 620.5 342.5 c 128,-1,23
 592 294 592 294 540 269 c 1,24,-1
 691 0 l 1,25,-1
 425 0 l 1,26,-1
 340 288 l 2,27,28
 330 322 330 322 330 338 c 1,29,30
 349 338 349 338 361.5 345 c 128,-1,31
 374 352 374 352 380 360 c 128,-1,32
 386 368 386 368 389.5 387.5 c 0,33,34
 393 406 393 406 393 418 c 2,35,-1
 393 457 l 1,36,-1
 393 473 l 2,37,38
 393 493 393 493 392.5 507 c 128,-1,39
 392 521 392 521 388.5 538 c 128,-1,40
 385 555 385 555 379.5 565 c 128,-1,41
 374 575 374 575 363.5 582 c 128,-1,42
 353 589 353 589 339 589 c 0,43,44
 322 589 322 589 309 583 c 1,45,-1
 309 0 l 1,46,-1
 45 0 l 1,47,-1
 45 648 l 1,13,14
EndSplineSet
Validated: 524289
Position2: "'cpsp' Capital Spacing lookup 3 subtable" dx=5 dy=0 dh=10 dv=0
EndChar

StartChar: Rcaron
Encoding: 344 344 105
Width: 668
Flags: MW
HStem: 589 77<334 364>
VStem: 45 264<0 583 0 648 0 648> 393 256<437 501>
LayerCount: 2
UndoRedoHistory
Layer: 0
Undoes
EndUndoes
Redoes
EndRedoes
EndUndoRedoHistory
UndoRedoHistory
Layer: 1
Undoes
EndUndoes
Redoes
EndRedoes
EndUndoRedoHistory
Fore
SplineSet
533 812 m 1,0,-1
 388 690 l 1,1,-1
 285 690 l 1,2,-1
 137 812 l 1,3,-1
 181 864 l 1,4,-1
 335 812 l 1,5,-1
 488 864 l 1,6,-1
 533 812 l 1,0,-1
45 648 m 1,7,8
 202 666 202 666 335 666 c 0,9,10
 392 666 392 666 435.5 661.5 c 128,-1,11
 479 657 479 657 520.5 643.5 c 128,-1,12
 562 630 562 630 589 607.5 c 128,-1,13
 616 585 616 585 632.5 547 c 128,-1,14
 649 509 649 509 649 457 c 0,15,16
 649 391 649 391 620.5 342.5 c 128,-1,17
 592 294 592 294 540 269 c 1,18,-1
 691 0 l 1,19,-1
 425 0 l 1,20,-1
 340 288 l 2,21,22
 330 322 330 322 330 338 c 1,23,24
 349 338 349 338 361.5 345 c 128,-1,25
 374 352 374 352 380 360 c 128,-1,26
 386 368 386 368 389.5 387.5 c 0,27,28
 393 406 393 406 393 418 c 2,29,-1
 393 457 l 1,30,-1
 393 473 l 2,31,32
 393 493 393 493 392.5 507 c 128,-1,33
 392 521 392 521 388.5 538 c 128,-1,34
 385 555 385 555 379.5 565 c 128,-1,35
 374 575 374 575 363.5 582 c 128,-1,36
 353 589 353 589 339 589 c 0,37,38
 322 589 322 589 309 583 c 1,39,-1
 309 0 l 1,40,-1
 45 0 l 1,41,-1
 45 648 l 1,7,8
EndSplineSet
Validated: 524289
Position2: "'cpsp' Capital Spacing lookup 3 subtable" dx=5 dy=0 dh=10 dv=0
EndChar

StartChar: Rcommaaccent
Encoding: 342 342 106
Width: 668
Flags: MW
HStem: 589 77<334 364>
VStem: 45 264<0 583 0 648 0 648> 286 155<-172 -145> 393 256<437 501>
LayerCount: 2
UndoRedoHistory
Layer: 0
Undoes
EndUndoes
Redoes
EndRedoes
EndUndoRedoHistory
UndoRedoHistory
Layer: 1
Undoes
EndUndoes
Redoes
EndRedoes
EndUndoRedoHistory
Fore
SplineSet
45 648 m 1,0,1
 202 666 202 666 335 666 c 0,2,3
 392 666 392 666 435.5 661.5 c 128,-1,4
 479 657 479 657 520.5 643.5 c 128,-1,5
 562 630 562 630 589 607.5 c 128,-1,6
 616 585 616 585 632.5 547 c 128,-1,7
 649 509 649 509 649 457 c 0,8,9
 649 391 649 391 620.5 342.5 c 128,-1,10
 592 294 592 294 540 269 c 1,11,-1
 691 0 l 1,12,-1
 425 0 l 1,13,-1
 340 288 l 2,14,15
 330 322 330 322 330 338 c 1,16,17
 349 338 349 338 361.5 345 c 128,-1,18
 374 352 374 352 380 360 c 128,-1,19
 386 368 386 368 389.5 387.5 c 0,20,21
 393 406 393 406 393 418 c 2,22,-1
 393 457 l 1,23,-1
 393 473 l 2,24,25
 393 493 393 493 392.5 507 c 128,-1,26
 392 521 392 521 388.5 538 c 128,-1,27
 385 555 385 555 379.5 565 c 128,-1,28
 374 575 374 575 363.5 582 c 128,-1,29
 353 589 353 589 339 589 c 0,30,31
 322 589 322 589 309 583 c 1,32,-1
 309 0 l 1,33,-1
 45 0 l 1,34,-1
 45 648 l 1,0,1
335 -52 m 0,35,36
 392 -52 392 -52 416.5 -71.5 c 128,-1,37
 441 -91 441 -91 441 -136 c 0,38,39
 441 -191 441 -191 396 -230 c 128,-1,40
 351 -269 351 -269 284 -269 c 0,41,42
 278 -269 278 -269 241 -266 c 1,43,44
 286 -212 286 -212 286 -161 c 128,-1,45
 286 -110 286 -110 261 -68 c 1,46,47
 269 -62 269 -62 291.5 -57 c 128,-1,48
 314 -52 314 -52 335 -52 c 0,35,36
EndSplineSet
Validated: 8912897
Position2: "'cpsp' Capital Spacing lookup 3 subtable" dx=5 dy=0 dh=10 dv=0
EndChar

StartChar: Rdotbelow
Encoding: 7770 7770 107
Width: 668
Flags: MW
HStem: -202 170<334 399> 589 77<334 364>
VStem: 45 264<0 583 0 648 0 648> 393 256<437 501>
LayerCount: 2
UndoRedoHistory
Layer: 0
Undoes
EndUndoes
Redoes
EndRedoes
EndUndoRedoHistory
UndoRedoHistory
Layer: 1
Undoes
EndUndoes
Redoes
EndRedoes
EndUndoRedoHistory
Fore
SplineSet
45 648 m 1,0,1
 202 666 202 666 335 666 c 0,2,3
 392 666 392 666 435.5 661.5 c 128,-1,4
 479 657 479 657 520.5 643.5 c 128,-1,5
 562 630 562 630 589 607.5 c 128,-1,6
 616 585 616 585 632.5 547 c 128,-1,7
 649 509 649 509 649 457 c 0,8,9
 649 391 649 391 620.5 342.5 c 128,-1,10
 592 294 592 294 540 269 c 1,11,-1
 691 0 l 1,12,-1
 425 0 l 1,13,-1
 340 288 l 2,14,15
 330 322 330 322 330 338 c 1,16,17
 349 338 349 338 361.5 345 c 128,-1,18
 374 352 374 352 380 360 c 128,-1,19
 386 368 386 368 389.5 387.5 c 0,20,21
 393 406 393 406 393 418 c 2,22,-1
 393 457 l 1,23,-1
 393 473 l 2,24,25
 393 493 393 493 392.5 507 c 128,-1,26
 392 521 392 521 388.5 538 c 128,-1,27
 385 555 385 555 379.5 565 c 128,-1,28
 374 575 374 575 363.5 582 c 128,-1,29
 353 589 353 589 339 589 c 0,30,31
 322 589 322 589 309 583 c 1,32,-1
 309 0 l 1,33,-1
 45 0 l 1,34,-1
 45 648 l 1,0,1
369 -32 m 0,35,36
 421 -32 421 -32 453 -55 c 128,-1,37
 485 -78 485 -78 485 -118 c 128,-1,38
 485 -158 485 -158 451.5 -180 c 128,-1,39
 418 -202 418 -202 364 -202 c 0,40,41
 311 -202 311 -202 278 -180.5 c 128,-1,42
 245 -159 245 -159 245 -120 c 0,43,44
 245 -80 245 -80 280 -56 c 128,-1,45
 315 -32 315 -32 369 -32 c 0,35,36
EndSplineSet
Validated: 524289
Position2: "'cpsp' Capital Spacing lookup 3 subtable" dx=5 dy=0 dh=10 dv=0
EndChar

StartChar: S
Encoding: 83 83 108
Width: 596
Flags: MW
HStem: -22 78<250 306 250 352> 602 78<289 329>
VStem: 11 196<145 150> 21 229<456 534> 354 229<120 209> 367 196<520 545>
LayerCount: 2
UndoRedoHistory
Layer: 0
Undoes
EndUndoes
Redoes
EndRedoes
EndUndoRedoHistory
UndoRedoHistory
Layer: 1
Undoes
EndUndoes
Redoes
EndRedoes
EndUndoRedoHistory
Fore
SplineSet
323 680 m 0,0,1
 353 680 353 680 384 677 c 128,-1,2
 415 674 415 674 447.5 665.5 c 128,-1,3
 480 657 480 657 505.5 644.5 c 128,-1,4
 531 632 531 632 547 610.5 c 128,-1,5
 563 589 563 589 563 563 c 0,6,7
 563 532 563 532 551 509 c 128,-1,8
 539 486 539 486 518 473 c 128,-1,9
 497 460 497 460 471 454 c 128,-1,10
 445 448 445 448 414 448 c 0,11,12
 398 448 398 448 362 450 c 1,13,14
 367 497 367 497 367 523 c 0,15,16
 367 602 367 602 306 602 c 0,17,18
 280 602 280 602 265 585 c 128,-1,19
 250 568 250 568 250 541 c 128,-1,20
 250 514 250 514 261.5 492.5 c 128,-1,21
 273 471 273 471 292.5 456.5 c 128,-1,22
 312 442 312 442 336.5 430 c 128,-1,23
 361 418 361 418 389 407 c 128,-1,24
 417 396 417 396 444.5 385 c 128,-1,25
 472 374 472 374 496.5 358 c 128,-1,26
 521 342 521 342 540.5 322 c 128,-1,27
 560 302 560 302 571.5 272 c 128,-1,28
 583 242 583 242 583 205 c 0,29,30
 583 155 583 155 566 116 c 128,-1,31
 549 77 549 77 520.5 51 c 128,-1,32
 492 25 492 25 451.5 8.5 c 128,-1,33
 411 -8 411 -8 365 -15 c 128,-1,34
 319 -22 319 -22 266 -22 c 0,35,36
 230 -22 230 -22 198 -19 c 128,-1,37
 166 -16 166 -16 130.5 -7.5 c 128,-1,38
 95 1 95 1 69.5 15 c 128,-1,39
 44 29 44 29 27.5 52.5 c 128,-1,40
 11 76 11 76 11 107 c 0,41,42
 11 169 11 169 54 203 c 128,-1,43
 97 237 97 237 160 237 c 0,44,45
 178 237 178 237 212 235 c 1,46,47
 207 197 207 197 207 178 c 0,48,49
 207 151 207 151 210 131 c 128,-1,50
 213 111 213 111 221 93 c 128,-1,51
 229 75 229 75 244.5 65.5 c 128,-1,52
 260 56 260 56 283 56 c 0,53,54
 317 56 317 56 335.5 73.5 c 128,-1,55
 354 91 354 91 354 124 c 0,56,57
 354 151 354 151 342.5 172.5 c 128,-1,58
 331 194 331 194 311.5 208.5 c 128,-1,59
 292 223 292 223 267.5 235 c 128,-1,60
 243 247 243 247 215.5 258 c 128,-1,61
 188 269 188 269 160 280.5 c 128,-1,62
 132 292 132 292 107.5 307.5 c 128,-1,63
 83 323 83 323 63.5 343 c 128,-1,64
 44 363 44 363 32.5 393 c 128,-1,65
 21 423 21 423 21 460 c 0,66,67
 21 513 21 513 47.5 556 c 128,-1,68
 74 599 74 599 117.5 625.5 c 128,-1,69
 161 652 161 652 213.5 666 c 128,-1,70
 266 680 266 680 323 680 c 0,0,1
EndSplineSet
Validated: 8388609
Position2: "'cpsp' Capital Spacing lookup 3 subtable" dx=5 dy=0 dh=10 dv=0
EndChar

StartChar: Sacute
Encoding: 346 346 109
Width: 596
Flags: MW
HStem: -22 78<250 306 250 352> 602 78<289 329>
VStem: 11 196<145 150> 21 229<456 534> 354 229<120 209> 367 196<520 545>
LayerCount: 2
UndoRedoHistory
Layer: 0
Undoes
EndUndoes
Redoes
EndRedoes
EndUndoRedoHistory
UndoRedoHistory
Layer: 1
Undoes
EndUndoes
Redoes
EndRedoes
EndUndoRedoHistory
Fore
SplineSet
450 875 m 1,0,1
 469 859 469 859 481.5 835.5 c 128,-1,2
 494 812 494 812 494 790 c 0,3,4
 494 772 494 772 486 759.5 c 128,-1,5
 478 747 478 747 466 739.5 c 128,-1,6
 454 732 454 732 436.5 728 c 128,-1,7
 419 724 419 724 402.5 722.5 c 128,-1,8
 386 721 386 721 368 720 c 0,9,10
 367 720 367 720 366 720 c 2,11,-1
 364 720 l 2,12,13
 362 720 362 720 360.5 719.5 c 128,-1,14
 359 719 359 719 358 719 c 2,15,-1
 199 708 l 1,16,-1
 186 764 l 1,17,-1
 450 875 l 1,0,1
323 680 m 0,18,19
 353 680 353 680 384 677 c 128,-1,20
 415 674 415 674 447.5 665.5 c 128,-1,21
 480 657 480 657 505.5 644.5 c 128,-1,22
 531 632 531 632 547 610.5 c 128,-1,23
 563 589 563 589 563 563 c 0,24,25
 563 532 563 532 551 509 c 128,-1,26
 539 486 539 486 518 473 c 128,-1,27
 497 460 497 460 471 454 c 128,-1,28
 445 448 445 448 414 448 c 0,29,30
 398 448 398 448 362 450 c 1,31,32
 367 497 367 497 367 523 c 0,33,34
 367 602 367 602 306 602 c 0,35,36
 280 602 280 602 265 585 c 128,-1,37
 250 568 250 568 250 541 c 128,-1,38
 250 514 250 514 261.5 492.5 c 128,-1,39
 273 471 273 471 292.5 456.5 c 128,-1,40
 312 442 312 442 336.5 430 c 128,-1,41
 361 418 361 418 389 407 c 128,-1,42
 417 396 417 396 444.5 385 c 128,-1,43
 472 374 472 374 496.5 358 c 128,-1,44
 521 342 521 342 540.5 322 c 128,-1,45
 560 302 560 302 571.5 272 c 128,-1,46
 583 242 583 242 583 205 c 0,47,48
 583 155 583 155 566 116 c 128,-1,49
 549 77 549 77 520.5 51 c 128,-1,50
 492 25 492 25 451.5 8.5 c 128,-1,51
 411 -8 411 -8 365 -15 c 128,-1,52
 319 -22 319 -22 266 -22 c 0,53,54
 230 -22 230 -22 198 -19 c 128,-1,55
 166 -16 166 -16 130.5 -7.5 c 128,-1,56
 95 1 95 1 69.5 15 c 128,-1,57
 44 29 44 29 27.5 52.5 c 128,-1,58
 11 76 11 76 11 107 c 0,59,60
 11 169 11 169 54 203 c 128,-1,61
 97 237 97 237 160 237 c 0,62,63
 178 237 178 237 212 235 c 1,64,65
 207 197 207 197 207 178 c 0,66,67
 207 151 207 151 210 131 c 128,-1,68
 213 111 213 111 221 93 c 128,-1,69
 229 75 229 75 244.5 65.5 c 128,-1,70
 260 56 260 56 283 56 c 0,71,72
 317 56 317 56 335.5 73.5 c 128,-1,73
 354 91 354 91 354 124 c 0,74,75
 354 151 354 151 342.5 172.5 c 128,-1,76
 331 194 331 194 311.5 208.5 c 128,-1,77
 292 223 292 223 267.5 235 c 128,-1,78
 243 247 243 247 215.5 258 c 128,-1,79
 188 269 188 269 160 280.5 c 128,-1,80
 132 292 132 292 107.5 307.5 c 128,-1,81
 83 323 83 323 63.5 343 c 128,-1,82
 44 363 44 363 32.5 393 c 128,-1,83
 21 423 21 423 21 460 c 0,84,85
 21 513 21 513 47.5 556 c 128,-1,86
 74 599 74 599 117.5 625.5 c 128,-1,87
 161 652 161 652 213.5 666 c 128,-1,88
 266 680 266 680 323 680 c 0,18,19
EndSplineSet
Validated: 8388609
Substitution2: "'locl' Localized Forms in Latin lookup 13 subtable" Sacute.loclPLK
Substitution2: "'aalt' Access All Alternates lookup 0 subtable" Sacute.loclPLK
Position2: "'cpsp' Capital Spacing lookup 3 subtable" dx=5 dy=0 dh=10 dv=0
EndChar

StartChar: Scaron
Encoding: 352 352 110
Width: 596
Flags: MW
HStem: -22 78<250 306 250 352> 602 78<289 329>
VStem: 11 196<145 150> 21 229<456 534> 354 229<120 209> 367 196<520 545>
LayerCount: 2
UndoRedoHistory
Layer: 0
Undoes
EndUndoes
Redoes
EndRedoes
EndUndoRedoHistory
UndoRedoHistory
Layer: 1
Undoes
EndUndoes
Redoes
EndRedoes
EndUndoRedoHistory
Fore
SplineSet
505 813 m 1,0,-1
 360 691 l 1,1,-1
 257 691 l 1,2,-1
 109 813 l 1,3,-1
 153 865 l 1,4,-1
 307 813 l 1,5,-1
 460 865 l 1,6,-1
 505 813 l 1,0,-1
323 680 m 0,7,8
 353 680 353 680 384 677 c 128,-1,9
 415 674 415 674 447.5 665.5 c 128,-1,10
 480 657 480 657 505.5 644.5 c 128,-1,11
 531 632 531 632 547 610.5 c 128,-1,12
 563 589 563 589 563 563 c 0,13,14
 563 532 563 532 551 509 c 128,-1,15
 539 486 539 486 518 473 c 128,-1,16
 497 460 497 460 471 454 c 128,-1,17
 445 448 445 448 414 448 c 0,18,19
 398 448 398 448 362 450 c 1,20,21
 367 497 367 497 367 523 c 0,22,23
 367 602 367 602 306 602 c 0,24,25
 280 602 280 602 265 585 c 128,-1,26
 250 568 250 568 250 541 c 128,-1,27
 250 514 250 514 261.5 492.5 c 128,-1,28
 273 471 273 471 292.5 456.5 c 128,-1,29
 312 442 312 442 336.5 430 c 128,-1,30
 361 418 361 418 389 407 c 128,-1,31
 417 396 417 396 444.5 385 c 128,-1,32
 472 374 472 374 496.5 358 c 128,-1,33
 521 342 521 342 540.5 322 c 128,-1,34
 560 302 560 302 571.5 272 c 128,-1,35
 583 242 583 242 583 205 c 0,36,37
 583 155 583 155 566 116 c 128,-1,38
 549 77 549 77 520.5 51 c 128,-1,39
 492 25 492 25 451.5 8.5 c 128,-1,40
 411 -8 411 -8 365 -15 c 128,-1,41
 319 -22 319 -22 266 -22 c 0,42,43
 230 -22 230 -22 198 -19 c 128,-1,44
 166 -16 166 -16 130.5 -7.5 c 128,-1,45
 95 1 95 1 69.5 15 c 128,-1,46
 44 29 44 29 27.5 52.5 c 128,-1,47
 11 76 11 76 11 107 c 0,48,49
 11 169 11 169 54 203 c 128,-1,50
 97 237 97 237 160 237 c 0,51,52
 178 237 178 237 212 235 c 1,53,54
 207 197 207 197 207 178 c 0,55,56
 207 151 207 151 210 131 c 128,-1,57
 213 111 213 111 221 93 c 128,-1,58
 229 75 229 75 244.5 65.5 c 128,-1,59
 260 56 260 56 283 56 c 0,60,61
 317 56 317 56 335.5 73.5 c 128,-1,62
 354 91 354 91 354 124 c 0,63,64
 354 151 354 151 342.5 172.5 c 128,-1,65
 331 194 331 194 311.5 208.5 c 128,-1,66
 292 223 292 223 267.5 235 c 128,-1,67
 243 247 243 247 215.5 258 c 128,-1,68
 188 269 188 269 160 280.5 c 128,-1,69
 132 292 132 292 107.5 307.5 c 128,-1,70
 83 323 83 323 63.5 343 c 128,-1,71
 44 363 44 363 32.5 393 c 128,-1,72
 21 423 21 423 21 460 c 0,73,74
 21 513 21 513 47.5 556 c 128,-1,75
 74 599 74 599 117.5 625.5 c 128,-1,76
 161 652 161 652 213.5 666 c 128,-1,77
 266 680 266 680 323 680 c 0,7,8
EndSplineSet
Validated: 8388609
Position2: "'cpsp' Capital Spacing lookup 3 subtable" dx=5 dy=0 dh=10 dv=0
EndChar

StartChar: Scedilla
Encoding: 350 350 111
Width: 596
Flags: MW
HStem: -261 81<226 228 198 282> -109 56 602 78<289 329>
VStem: 11 196<145 150> 21 229<456 534> 252 146<-157 -130> 354 229<123 209> 367 196<520 545>
LayerCount: 2
UndoRedoHistory
Layer: 0
Undoes
EndUndoes
Redoes
EndRedoes
EndUndoRedoHistory
UndoRedoHistory
Layer: 1
Undoes
EndUndoes
Redoes
EndRedoes
EndUndoRedoHistory
Fore
SplineSet
191 -18 m 1,0,1
 154 -14 154 -14 124 -6 c 128,-1,2
 94 2 94 2 67.5 16.5 c 128,-1,3
 41 31 41 31 26 54 c 128,-1,4
 11 77 11 77 11 107 c 0,5,6
 11 169 11 169 54 203 c 128,-1,7
 97 237 97 237 160 237 c 0,8,9
 178 237 178 237 212 235 c 1,10,11
 207 197 207 197 207 178 c 0,12,13
 207 151 207 151 210 131 c 128,-1,14
 213 111 213 111 221 93 c 128,-1,15
 229 75 229 75 244.5 65.5 c 128,-1,16
 260 56 260 56 283 56 c 0,17,18
 317 56 317 56 335.5 73.5 c 128,-1,19
 354 91 354 91 354 124 c 0,20,21
 354 151 354 151 342.5 172.5 c 128,-1,22
 331 194 331 194 311.5 208.5 c 128,-1,23
 292 223 292 223 267.5 235 c 128,-1,24
 243 247 243 247 215.5 258 c 128,-1,25
 188 269 188 269 160 280.5 c 128,-1,26
 132 292 132 292 107.5 307.5 c 128,-1,27
 83 323 83 323 63.5 343 c 128,-1,28
 44 363 44 363 32.5 393 c 128,-1,29
 21 423 21 423 21 460 c 0,30,31
 21 513 21 513 47.5 556 c 128,-1,32
 74 599 74 599 117.5 625.5 c 128,-1,33
 161 652 161 652 214 666 c 128,-1,34
 267 680 267 680 323 680 c 0,35,36
 353 680 353 680 384 677 c 128,-1,37
 415 674 415 674 447.5 665.5 c 128,-1,38
 480 657 480 657 505.5 644.5 c 128,-1,39
 531 632 531 632 547 610.5 c 128,-1,40
 563 589 563 589 563 563 c 0,41,42
 563 532 563 532 551 509 c 128,-1,43
 539 486 539 486 518 473 c 128,-1,44
 497 460 497 460 471 454 c 128,-1,45
 445 448 445 448 414 448 c 0,46,47
 398 448 398 448 362 450 c 1,48,49
 367 497 367 497 367 523 c 0,50,51
 367 602 367 602 306 602 c 0,52,53
 280 602 280 602 265 585 c 128,-1,54
 250 568 250 568 250 541 c 128,-1,55
 250 514 250 514 261.5 492.5 c 128,-1,56
 273 471 273 471 292.5 456.5 c 128,-1,57
 312 442 312 442 336.5 430 c 128,-1,58
 361 418 361 418 389 407 c 128,-1,59
 417 396 417 396 444.5 385 c 128,-1,60
 472 374 472 374 496.5 358 c 128,-1,61
 521 342 521 342 540.5 322 c 128,-1,62
 560 302 560 302 571.5 272 c 128,-1,63
 583 242 583 242 583 205 c 0,64,65
 583 157 583 157 567.5 119 c 128,-1,66
 552 81 552 81 525 55 c 128,-1,67
 498 29 498 29 459.5 12 c 128,-1,68
 421 -5 421 -5 377.5 -13 c 128,-1,69
 334 -21 334 -21 283 -22 c 1,70,-1
 271 -53 l 1,71,72
 329 -54 329 -54 363.5 -78 c 128,-1,73
 398 -102 398 -102 398 -154 c 0,74,75
 398 -188 398 -188 374.5 -213 c 128,-1,76
 351 -238 351 -238 317 -249.5 c 128,-1,77
 283 -261 283 -261 245 -261 c 0,78,79
 227 -261 227 -261 210.5 -258.5 c 128,-1,80
 194 -256 194 -256 174.5 -250 c 128,-1,81
 155 -244 155 -244 143.5 -230 c 128,-1,82
 132 -216 132 -216 132 -197 c 0,83,84
 132 -165 132 -165 145 -146 c 1,85,86
 167 -180 167 -180 219 -180 c 0,87,88
 233 -180 233 -180 242.5 -171 c 128,-1,89
 252 -162 252 -162 252 -145 c 0,90,91
 252 -125 252 -125 235.5 -117 c 128,-1,92
 219 -109 219 -109 196 -109 c 0,93,94
 184 -109 184 -109 157 -111 c 1,95,-1
 191 -18 l 1,0,1
EndSplineSet
Validated: 8388609
Substitution2: "'locl' Localized Forms in Latin lookup 12 subtable" Scommaaccent
Substitution2: "'locl' Localized Forms in Latin lookup 11 subtable" Scommaaccent
Substitution2: "'aalt' Access All Alternates lookup 0 subtable" Scommaaccent
Position2: "'cpsp' Capital Spacing lookup 3 subtable" dx=5 dy=0 dh=10 dv=0
EndChar

StartChar: Scircumflex
Encoding: 348 348 112
Width: 596
Flags: MW
HStem: -22 78<250 306 250 352> 602 78<289 329>
VStem: 11 196<145 150> 21 229<456 534> 354 229<120 209> 367 196<520 545>
LayerCount: 2
UndoRedoHistory
Layer: 0
Undoes
EndUndoes
Redoes
EndRedoes
EndUndoRedoHistory
UndoRedoHistory
Layer: 1
Undoes
EndUndoes
Redoes
EndRedoes
EndUndoRedoHistory
Fore
SplineSet
122 746 m 1,0,-1
 287 858 l 1,1,-1
 330 858 l 1,2,-1
 498 746 l 1,3,-1
 454 694 l 1,4,-1
 310 726 l 1,5,-1
 167 694 l 1,6,-1
 122 746 l 1,0,-1
323 680 m 0,7,8
 353 680 353 680 384 677 c 128,-1,9
 415 674 415 674 447.5 665.5 c 128,-1,10
 480 657 480 657 505.5 644.5 c 128,-1,11
 531 632 531 632 547 610.5 c 128,-1,12
 563 589 563 589 563 563 c 0,13,14
 563 532 563 532 551 509 c 128,-1,15
 539 486 539 486 518 473 c 128,-1,16
 497 460 497 460 471 454 c 128,-1,17
 445 448 445 448 414 448 c 0,18,19
 398 448 398 448 362 450 c 1,20,21
 367 497 367 497 367 523 c 0,22,23
 367 602 367 602 306 602 c 0,24,25
 280 602 280 602 265 585 c 128,-1,26
 250 568 250 568 250 541 c 128,-1,27
 250 514 250 514 261.5 492.5 c 128,-1,28
 273 471 273 471 292.5 456.5 c 128,-1,29
 312 442 312 442 336.5 430 c 128,-1,30
 361 418 361 418 389 407 c 128,-1,31
 417 396 417 396 444.5 385 c 128,-1,32
 472 374 472 374 496.5 358 c 128,-1,33
 521 342 521 342 540.5 322 c 128,-1,34
 560 302 560 302 571.5 272 c 128,-1,35
 583 242 583 242 583 205 c 0,36,37
 583 155 583 155 566 116 c 128,-1,38
 549 77 549 77 520.5 51 c 128,-1,39
 492 25 492 25 451.5 8.5 c 128,-1,40
 411 -8 411 -8 365 -15 c 128,-1,41
 319 -22 319 -22 266 -22 c 0,42,43
 230 -22 230 -22 198 -19 c 128,-1,44
 166 -16 166 -16 130.5 -7.5 c 128,-1,45
 95 1 95 1 69.5 15 c 128,-1,46
 44 29 44 29 27.5 52.5 c 128,-1,47
 11 76 11 76 11 107 c 0,48,49
 11 169 11 169 54 203 c 128,-1,50
 97 237 97 237 160 237 c 0,51,52
 178 237 178 237 212 235 c 1,53,54
 207 197 207 197 207 178 c 0,55,56
 207 151 207 151 210 131 c 128,-1,57
 213 111 213 111 221 93 c 128,-1,58
 229 75 229 75 244.5 65.5 c 128,-1,59
 260 56 260 56 283 56 c 0,60,61
 317 56 317 56 335.5 73.5 c 128,-1,62
 354 91 354 91 354 124 c 0,63,64
 354 151 354 151 342.5 172.5 c 128,-1,65
 331 194 331 194 311.5 208.5 c 128,-1,66
 292 223 292 223 267.5 235 c 128,-1,67
 243 247 243 247 215.5 258 c 128,-1,68
 188 269 188 269 160 280.5 c 128,-1,69
 132 292 132 292 107.5 307.5 c 128,-1,70
 83 323 83 323 63.5 343 c 128,-1,71
 44 363 44 363 32.5 393 c 128,-1,72
 21 423 21 423 21 460 c 0,73,74
 21 513 21 513 47.5 556 c 128,-1,75
 74 599 74 599 117.5 625.5 c 128,-1,76
 161 652 161 652 213.5 666 c 128,-1,77
 266 680 266 680 323 680 c 0,7,8
EndSplineSet
Validated: 8388609
Position2: "'cpsp' Capital Spacing lookup 3 subtable" dx=5 dy=0 dh=10 dv=0
EndChar

StartChar: Scommaaccent
Encoding: 536 536 113
Width: 596
Flags: MW
HStem: -22 78<250 306 250 352> 602 78<289 329>
VStem: 11 196<145 150> 21 229<456 534> 184 155<-172 -145> 354 229<120 209> 367 196<520 545>
LayerCount: 2
UndoRedoHistory
Layer: 0
Undoes
EndUndoes
Redoes
EndRedoes
EndUndoRedoHistory
UndoRedoHistory
Layer: 1
Undoes
EndUndoes
Redoes
EndRedoes
EndUndoRedoHistory
Fore
SplineSet
323 680 m 0,0,1
 353 680 353 680 384 677 c 128,-1,2
 415 674 415 674 447.5 665.5 c 128,-1,3
 480 657 480 657 505.5 644.5 c 128,-1,4
 531 632 531 632 547 610.5 c 128,-1,5
 563 589 563 589 563 563 c 0,6,7
 563 532 563 532 551 509 c 128,-1,8
 539 486 539 486 518 473 c 128,-1,9
 497 460 497 460 471 454 c 128,-1,10
 445 448 445 448 414 448 c 0,11,12
 398 448 398 448 362 450 c 1,13,14
 367 497 367 497 367 523 c 0,15,16
 367 602 367 602 306 602 c 0,17,18
 280 602 280 602 265 585 c 128,-1,19
 250 568 250 568 250 541 c 128,-1,20
 250 514 250 514 261.5 492.5 c 128,-1,21
 273 471 273 471 292.5 456.5 c 128,-1,22
 312 442 312 442 336.5 430 c 128,-1,23
 361 418 361 418 389 407 c 128,-1,24
 417 396 417 396 444.5 385 c 128,-1,25
 472 374 472 374 496.5 358 c 128,-1,26
 521 342 521 342 540.5 322 c 128,-1,27
 560 302 560 302 571.5 272 c 128,-1,28
 583 242 583 242 583 205 c 0,29,30
 583 155 583 155 566 116 c 128,-1,31
 549 77 549 77 520.5 51 c 128,-1,32
 492 25 492 25 451.5 8.5 c 128,-1,33
 411 -8 411 -8 365 -15 c 128,-1,34
 319 -22 319 -22 266 -22 c 0,35,36
 230 -22 230 -22 198 -19 c 128,-1,37
 166 -16 166 -16 130.5 -7.5 c 128,-1,38
 95 1 95 1 69.5 15 c 128,-1,39
 44 29 44 29 27.5 52.5 c 128,-1,40
 11 76 11 76 11 107 c 0,41,42
 11 169 11 169 54 203 c 128,-1,43
 97 237 97 237 160 237 c 0,44,45
 178 237 178 237 212 235 c 1,46,47
 207 197 207 197 207 178 c 0,48,49
 207 151 207 151 210 131 c 128,-1,50
 213 111 213 111 221 93 c 128,-1,51
 229 75 229 75 244.5 65.5 c 128,-1,52
 260 56 260 56 283 56 c 0,53,54
 317 56 317 56 335.5 73.5 c 128,-1,55
 354 91 354 91 354 124 c 0,56,57
 354 151 354 151 342.5 172.5 c 128,-1,58
 331 194 331 194 311.5 208.5 c 128,-1,59
 292 223 292 223 267.5 235 c 128,-1,60
 243 247 243 247 215.5 258 c 128,-1,61
 188 269 188 269 160 280.5 c 128,-1,62
 132 292 132 292 107.5 307.5 c 128,-1,63
 83 323 83 323 63.5 343 c 128,-1,64
 44 363 44 363 32.5 393 c 128,-1,65
 21 423 21 423 21 460 c 0,66,67
 21 513 21 513 47.5 556 c 128,-1,68
 74 599 74 599 117.5 625.5 c 128,-1,69
 161 652 161 652 213.5 666 c 128,-1,70
 266 680 266 680 323 680 c 0,0,1
233 -52 m 0,71,72
 290 -52 290 -52 314.5 -71.5 c 128,-1,73
 339 -91 339 -91 339 -136 c 0,74,75
 339 -191 339 -191 294 -230 c 128,-1,76
 249 -269 249 -269 182 -269 c 0,77,78
 176 -269 176 -269 139 -266 c 1,79,80
 184 -212 184 -212 184 -161 c 128,-1,81
 184 -110 184 -110 159 -68 c 1,82,83
 167 -62 167 -62 189.5 -57 c 128,-1,84
 212 -52 212 -52 233 -52 c 0,71,72
EndSplineSet
Validated: 8388609
Position2: "'cpsp' Capital Spacing lookup 3 subtable" dx=5 dy=0 dh=10 dv=0
EndChar

StartChar: Sdotbelow
Encoding: 7778 7778 114
Width: 596
Flags: MW
HStem: -202 170<232 297> -22 78<250 306 250 352> 602 78<289 329>
VStem: 11 196<145 150> 21 229<456 534> 354 229<120 209> 367 196<520 545>
LayerCount: 2
UndoRedoHistory
Layer: 0
Undoes
EndUndoes
Redoes
EndRedoes
EndUndoRedoHistory
UndoRedoHistory
Layer: 1
Undoes
EndUndoes
Redoes
EndRedoes
EndUndoRedoHistory
Fore
SplineSet
323 680 m 0,0,1
 353 680 353 680 384 677 c 128,-1,2
 415 674 415 674 447.5 665.5 c 128,-1,3
 480 657 480 657 505.5 644.5 c 128,-1,4
 531 632 531 632 547 610.5 c 128,-1,5
 563 589 563 589 563 563 c 0,6,7
 563 532 563 532 551 509 c 128,-1,8
 539 486 539 486 518 473 c 128,-1,9
 497 460 497 460 471 454 c 128,-1,10
 445 448 445 448 414 448 c 0,11,12
 398 448 398 448 362 450 c 1,13,14
 367 497 367 497 367 523 c 0,15,16
 367 602 367 602 306 602 c 0,17,18
 280 602 280 602 265 585 c 128,-1,19
 250 568 250 568 250 541 c 128,-1,20
 250 514 250 514 261.5 492.5 c 128,-1,21
 273 471 273 471 292.5 456.5 c 128,-1,22
 312 442 312 442 336.5 430 c 128,-1,23
 361 418 361 418 389 407 c 128,-1,24
 417 396 417 396 444.5 385 c 128,-1,25
 472 374 472 374 496.5 358 c 128,-1,26
 521 342 521 342 540.5 322 c 128,-1,27
 560 302 560 302 571.5 272 c 128,-1,28
 583 242 583 242 583 205 c 0,29,30
 583 155 583 155 566 116 c 128,-1,31
 549 77 549 77 520.5 51 c 128,-1,32
 492 25 492 25 451.5 8.5 c 128,-1,33
 411 -8 411 -8 365 -15 c 128,-1,34
 319 -22 319 -22 266 -22 c 0,35,36
 230 -22 230 -22 198 -19 c 128,-1,37
 166 -16 166 -16 130.5 -7.5 c 128,-1,38
 95 1 95 1 69.5 15 c 128,-1,39
 44 29 44 29 27.5 52.5 c 128,-1,40
 11 76 11 76 11 107 c 0,41,42
 11 169 11 169 54 203 c 128,-1,43
 97 237 97 237 160 237 c 0,44,45
 178 237 178 237 212 235 c 1,46,47
 207 197 207 197 207 178 c 0,48,49
 207 151 207 151 210 131 c 128,-1,50
 213 111 213 111 221 93 c 128,-1,51
 229 75 229 75 244.5 65.5 c 128,-1,52
 260 56 260 56 283 56 c 0,53,54
 317 56 317 56 335.5 73.5 c 128,-1,55
 354 91 354 91 354 124 c 0,56,57
 354 151 354 151 342.5 172.5 c 128,-1,58
 331 194 331 194 311.5 208.5 c 128,-1,59
 292 223 292 223 267.5 235 c 128,-1,60
 243 247 243 247 215.5 258 c 128,-1,61
 188 269 188 269 160 280.5 c 128,-1,62
 132 292 132 292 107.5 307.5 c 128,-1,63
 83 323 83 323 63.5 343 c 128,-1,64
 44 363 44 363 32.5 393 c 128,-1,65
 21 423 21 423 21 460 c 0,66,67
 21 513 21 513 47.5 556 c 128,-1,68
 74 599 74 599 117.5 625.5 c 128,-1,69
 161 652 161 652 213.5 666 c 128,-1,70
 266 680 266 680 323 680 c 0,0,1
267 -32 m 0,71,72
 319 -32 319 -32 351 -55 c 128,-1,73
 383 -78 383 -78 383 -118 c 128,-1,74
 383 -158 383 -158 349.5 -180 c 128,-1,75
 316 -202 316 -202 262 -202 c 0,76,77
 209 -202 209 -202 176 -180.5 c 128,-1,78
 143 -159 143 -159 143 -120 c 0,79,80
 143 -80 143 -80 178 -56 c 128,-1,81
 213 -32 213 -32 267 -32 c 0,71,72
EndSplineSet
Validated: 8388609
Position2: "'cpsp' Capital Spacing lookup 3 subtable" dx=5 dy=0 dh=10 dv=0
EndChar

StartChar: uni1E9E
Encoding: 7838 7838 115
Width: 815
Flags: MW
HStem: -22 52<532 560 532 607> 0 151<35 464> 602 78<379 452>
VStem: 35 268<0 315 315 315> 328 182<80 101> 378 196<401 429> 586 211<79 133>
LayerCount: 2
UndoRedoHistory
Layer: 0
Undoes
EndUndoes
Redoes
EndRedoes
EndUndoRedoHistory
UndoRedoHistory
Layer: 1
Undoes
EndUndoes
Redoes
EndRedoes
EndUndoRedoHistory
Fore
SplineSet
35 315 m 2,0,1
 35 503 35 503 131.5 591.5 c 128,-1,2
 228 680 228 680 420 680 c 0,3,4
 521 680 521 680 594 652.5 c 128,-1,5
 667 625 667 625 717 553 c 1,6,7
 682 551 682 551 651 540.5 c 128,-1,8
 620 530 620 530 597 507.5 c 128,-1,9
 574 485 574 485 574 454 c 0,10,11
 574 433 574 433 586.5 410.5 c 128,-1,12
 599 388 599 388 618.5 368.5 c 128,-1,13
 638 349 638 349 662 328.5 c 128,-1,14
 686 308 686 308 709.5 286.5 c 128,-1,15
 733 265 733 265 752.5 243.5 c 128,-1,16
 772 222 772 222 784.5 196 c 128,-1,17
 797 170 797 170 797 144 c 0,18,19
 797 106 797 106 783 76.5 c 128,-1,20
 769 47 769 47 745.5 29 c 128,-1,21
 722 11 722 11 688 -1 c 128,-1,22
 654 -13 654 -13 618.5 -17.5 c 128,-1,23
 583 -22 583 -22 542 -22 c 0,24,25
 514 -22 514 -22 488.5 -20.5 c 128,-1,26
 463 -19 463 -19 432.5 -13 c 128,-1,27
 402 -7 402 -7 380 2.5 c 128,-1,28
 358 12 358 12 343 29 c 128,-1,29
 328 46 328 46 328 69 c 0,30,31
 328 91 328 91 339.5 108 c 128,-1,32
 351 125 351 125 370 134 c 128,-1,33
 389 143 389 143 411.5 147 c 128,-1,34
 434 151 434 151 459 151 c 0,35,36
 500 151 500 151 512 146 c 1,37,38
 512 138 512 138 511 121 c 128,-1,39
 510 104 510 104 510 96 c 0,40,41
 510 66 510 66 517.5 48 c 128,-1,42
 525 30 525 30 548 30 c 0,43,44
 565 30 565 30 575.5 44.5 c 128,-1,45
 586 59 586 59 586 78 c 0,46,47
 586 108 586 108 564.5 140.5 c 128,-1,48
 543 173 543 173 512.5 201 c 128,-1,49
 482 229 482 229 451.5 257.5 c 128,-1,50
 421 286 421 286 399.5 319 c 128,-1,51
 378 352 378 352 378 383 c 0,52,53
 378 416 378 416 391 444.5 c 128,-1,54
 404 473 404 473 427.5 493.5 c 128,-1,55
 451 514 451 514 476.5 528.5 c 128,-1,56
 502 543 502 543 532 553 c 1,57,58
 490 602 490 602 425 602 c 0,59,60
 379 602 379 602 353 576 c 128,-1,61
 327 550 327 550 315.5 493 c 128,-1,62
 304 436 304 436 303 332 c 1,63,-1
 303 0 l 1,64,-1
 35 0 l 1,65,-1
 35 315 l 2,0,1
EndSplineSet
Validated: 8388609
Position2: "'cpsp' Capital Spacing lookup 3 subtable" dx=5 dy=0 dh=10 dv=0
EndChar

StartChar: Schwa
Encoding: 399 399 116
Width: 688
Flags: MW
HStem: -22 78<300 355 300 422> 302 60 516 167<232 290>
VStem: 12 235<134 208 134 248> 394 282<264 302>
LayerCount: 2
UndoRedoHistory
Layer: 0
Undoes
EndUndoes
Redoes
EndRedoes
EndUndoRedoHistory
UndoRedoHistory
Layer: 1
Undoes
EndUndoes
Redoes
EndRedoes
EndUndoRedoHistory
Fore
SplineSet
297 683 m 0,0,1
 476 683 476 683 576 588.5 c 128,-1,2
 676 494 676 494 676 320 c 0,3,4
 676 142 676 142 581.5 60 c 128,-1,5
 487 -22 487 -22 303 -22 c 0,6,7
 261 -22 261 -22 222.5 -17 c 128,-1,8
 184 -12 184 -12 144.5 1.5 c 128,-1,9
 105 15 105 15 76.5 35 c 128,-1,10
 48 55 48 55 30 87.5 c 128,-1,11
 12 120 12 120 12 161 c 0,12,13
 12 211 12 211 27 248 c 128,-1,14
 42 285 42 285 66.5 306.5 c 128,-1,15
 91 328 91 328 130 341 c 128,-1,16
 169 354 169 354 209.5 358 c 128,-1,17
 250 362 250 362 304 362 c 0,18,19
 361 362 361 362 393 358 c 1,20,21
 387 429 387 429 349 472.5 c 128,-1,22
 311 516 311 516 242 516 c 0,23,24
 194 516 194 516 145.5 488.5 c 128,-1,25
 97 461 97 461 75 419 c 1,26,27
 57 427 57 427 45 450.5 c 128,-1,28
 33 474 33 474 33 496 c 0,29,30
 33 544 33 544 56 581 c 128,-1,31
 79 618 79 618 117 639.5 c 128,-1,32
 155 661 155 661 200.5 672 c 128,-1,33
 246 683 246 683 297 683 c 0,0,1
320 56 m 0,34,35
 394 56 394 56 394 302 c 1,36,37
 321 298 321 298 284 264 c 128,-1,38
 247 230 247 230 247 158 c 0,39,40
 247 121 247 121 269 88.5 c 128,-1,41
 291 56 291 56 320 56 c 0,34,35
EndSplineSet
Validated: 1
Position2: "'cpsp' Capital Spacing lookup 3 subtable" dx=5 dy=0 dh=10 dv=0
EndChar

StartChar: T
Encoding: 84 84 117
Width: 559
Flags: MW
HStem: 571 89<19 148 19 542 412 534 412 412>
VStem: 148 264<0 571 0 571>
LayerCount: 2
UndoRedoHistory
Layer: 0
Undoes
EndUndoes
Redoes
EndRedoes
EndUndoRedoHistory
UndoRedoHistory
Layer: 1
Undoes
EndUndoes
Redoes
EndRedoes
EndUndoRedoHistory
Fore
SplineSet
534 571 m 1,0,-1
 412 571 l 1,1,-1
 412 0 l 1,2,-1
 148 0 l 1,3,-1
 148 571 l 1,4,-1
 19 571 l 1,5,-1
 19 660 l 1,6,-1
 542 660 l 1,7,-1
 534 571 l 1,0,-1
EndSplineSet
Validated: 1
Position2: "'cpsp' Capital Spacing lookup 3 subtable" dx=5 dy=0 dh=10 dv=0
EndChar

StartChar: Tbar
Encoding: 358 358 118
Width: 559
Flags: MW
HStem: 276 103<93 148 93 148 18 148 412 460> 571 89<19 148 19 542 412 412 412 534>
VStem: 148 264<0 276 0 276 379 571>
LayerCount: 2
UndoRedoHistory
Layer: 0
Undoes
EndUndoes
Redoes
EndRedoes
EndUndoRedoHistory
UndoRedoHistory
Layer: 1
Undoes
EndUndoes
Redoes
EndRedoes
EndUndoRedoHistory
Fore
SplineSet
534 379 m 1,0,1
 535 375 535 375 535 352 c 0,2,3
 535 314 535 314 514.5 295 c 128,-1,4
 494 276 494 276 460 276 c 2,5,-1
 412 276 l 1,6,-1
 412 0 l 1,7,-1
 148 0 l 1,8,-1
 148 276 l 1,9,-1
 18 276 l 1,10,11
 16 282 16 282 16 304 c 0,12,13
 16 342 16 342 36.5 360.5 c 128,-1,14
 57 379 57 379 93 379 c 2,15,-1
 148 379 l 1,16,-1
 148 571 l 1,17,-1
 19 571 l 1,18,-1
 19 660 l 1,19,-1
 542 660 l 1,20,-1
 534 571 l 1,21,-1
 412 571 l 1,22,-1
 412 379 l 1,23,-1
 534 379 l 1,0,1
EndSplineSet
Validated: 1
Position2: "'cpsp' Capital Spacing lookup 3 subtable" dx=5 dy=0 dh=10 dv=0
EndChar

StartChar: Tcaron
Encoding: 356 356 119
Width: 559
Flags: MW
HStem: 571 89<19 148 19 542 412 534 412 412>
VStem: 148 264<0 571 0 571>
LayerCount: 2
UndoRedoHistory
Layer: 0
Undoes
EndUndoes
Redoes
EndRedoes
EndUndoRedoHistory
UndoRedoHistory
Layer: 1
Undoes
EndUndoes
Redoes
EndRedoes
EndUndoRedoHistory
Fore
SplineSet
479 812 m 1,0,-1
 334 690 l 1,1,-1
 231 690 l 1,2,-1
 83 812 l 1,3,-1
 127 864 l 1,4,-1
 281 812 l 1,5,-1
 434 864 l 1,6,-1
 479 812 l 1,0,-1
412 571 m 1,7,-1
 412 0 l 1,8,-1
 148 0 l 1,9,-1
 148 571 l 1,10,-1
 19 571 l 1,11,-1
 19 660 l 1,12,-1
 542 660 l 1,13,-1
 534 571 l 1,14,-1
 412 571 l 1,7,-1
EndSplineSet
Validated: 1
Position2: "'cpsp' Capital Spacing lookup 3 subtable" dx=5 dy=0 dh=10 dv=0
EndChar

StartChar: Tcedilla
Encoding: 354 354 120
Width: 559
Flags: MW
HStem: -261 81<245 247 217 300> -109 56 571 89<19 148 19 542 412 412 412 534>
VStem: 148 264<0 571 0 571> 271 146<-157 -130>
LayerCount: 2
UndoRedoHistory
Layer: 0
Undoes
EndUndoes
Redoes
EndRedoes
EndUndoRedoHistory
UndoRedoHistory
Layer: 1
Undoes
EndUndoes
Redoes
EndRedoes
EndUndoRedoHistory
Fore
SplineSet
311 0 m 1,0,-1
 290 -53 l 1,1,2
 348 -54 348 -54 382.5 -78 c 128,-1,3
 417 -102 417 -102 417 -154 c 0,4,5
 417 -188 417 -188 393.5 -213 c 128,-1,6
 370 -238 370 -238 336 -249.5 c 128,-1,7
 302 -261 302 -261 264 -261 c 0,8,9
 246 -261 246 -261 229.5 -258.5 c 128,-1,10
 213 -256 213 -256 193.5 -250 c 128,-1,11
 174 -244 174 -244 162.5 -230 c 128,-1,12
 151 -216 151 -216 151 -197 c 0,13,14
 151 -165 151 -165 164 -146 c 1,15,16
 175 -163 175 -163 191.5 -171.5 c 128,-1,17
 208 -180 208 -180 238 -180 c 0,18,19
 252 -180 252 -180 261.5 -171 c 128,-1,20
 271 -162 271 -162 271 -145 c 0,21,22
 271 -125 271 -125 254.5 -117 c 128,-1,23
 238 -109 238 -109 215 -109 c 0,24,25
 202 -109 202 -109 176 -111 c 1,26,-1
 216 0 l 1,27,-1
 148 0 l 1,28,-1
 148 571 l 1,29,-1
 19 571 l 1,30,-1
 19 660 l 1,31,-1
 542 660 l 1,32,-1
 534 571 l 1,33,-1
 412 571 l 1,34,-1
 412 0 l 1,35,-1
 311 0 l 1,0,-1
EndSplineSet
Validated: 8388609
Substitution2: "'locl' Localized Forms in Latin lookup 12 subtable" uni021A
Substitution2: "'locl' Localized Forms in Latin lookup 11 subtable" uni021A
Substitution2: "'aalt' Access All Alternates lookup 0 subtable" uni021A
Position2: "'cpsp' Capital Spacing lookup 3 subtable" dx=5 dy=0 dh=10 dv=0
EndChar

StartChar: uni021A
Encoding: 538 538 121
Width: 559
Flags: MW
HStem: 571 89<19 148 19 542 412 534 412 412>
VStem: 148 264<0 571 0 571> 203 155<-172 -145>
LayerCount: 2
UndoRedoHistory
Layer: 0
Undoes
EndUndoes
Redoes
EndRedoes
EndUndoRedoHistory
UndoRedoHistory
Layer: 1
Undoes
EndUndoes
Redoes
EndRedoes
EndUndoRedoHistory
Fore
SplineSet
412 571 m 1,0,-1
 412 0 l 1,1,-1
 148 0 l 1,2,-1
 148 571 l 1,3,-1
 19 571 l 1,4,-1
 19 660 l 1,5,-1
 542 660 l 1,6,-1
 534 571 l 1,7,-1
 412 571 l 1,0,-1
252 -52 m 0,8,9
 309 -52 309 -52 333.5 -71.5 c 128,-1,10
 358 -91 358 -91 358 -136 c 0,11,12
 358 -191 358 -191 313 -230 c 128,-1,13
 268 -269 268 -269 201 -269 c 0,14,15
 195 -269 195 -269 158 -266 c 1,16,17
 203 -212 203 -212 203 -161 c 128,-1,18
 203 -110 203 -110 178 -68 c 1,19,20
 186 -62 186 -62 208.5 -57 c 128,-1,21
 231 -52 231 -52 252 -52 c 0,8,9
EndSplineSet
Validated: 8388609
Position2: "'cpsp' Capital Spacing lookup 3 subtable" dx=5 dy=0 dh=10 dv=0
EndChar

StartChar: Tdotbelow
Encoding: 7788 7788 122
Width: 559
Flags: MW
HStem: -202 170<251 316> 571 89<19 148 19 542 412 534 412 412>
VStem: 148 264<0 571 0 571>
LayerCount: 2
UndoRedoHistory
Layer: 0
Undoes
EndUndoes
Redoes
EndRedoes
EndUndoRedoHistory
UndoRedoHistory
Layer: 1
Undoes
EndUndoes
Redoes
EndRedoes
EndUndoRedoHistory
Fore
SplineSet
412 571 m 1,0,-1
 412 0 l 1,1,-1
 148 0 l 1,2,-1
 148 571 l 1,3,-1
 19 571 l 1,4,-1
 19 660 l 1,5,-1
 542 660 l 1,6,-1
 534 571 l 1,7,-1
 412 571 l 1,0,-1
286 -32 m 0,8,9
 338 -32 338 -32 370 -55 c 128,-1,10
 402 -78 402 -78 402 -118 c 128,-1,11
 402 -158 402 -158 368.5 -180 c 128,-1,12
 335 -202 335 -202 281 -202 c 0,13,14
 228 -202 228 -202 195 -180.5 c 128,-1,15
 162 -159 162 -159 162 -120 c 0,16,17
 162 -80 162 -80 197 -56 c 128,-1,18
 232 -32 232 -32 286 -32 c 0,8,9
EndSplineSet
Validated: 1
Position2: "'cpsp' Capital Spacing lookup 3 subtable" dx=5 dy=0 dh=10 dv=0
EndChar

StartChar: U
Encoding: 85 85 123
Width: 642
Flags: MW
HStem: -22 92<338 390 338 435> 640 20G<35 299 299 299 431 608 608 608>
VStem: 35 264<241 252 252 660> 431 177<263 274 274 660>
LayerCount: 2
UndoRedoHistory
Layer: 0
Undoes
EndUndoes
Redoes
EndRedoes
EndUndoRedoHistory
UndoRedoHistory
Layer: 1
Undoes
EndUndoes
Redoes
EndRedoes
EndUndoRedoHistory
Fore
SplineSet
608 274 m 2,0,1
 608 124 608 124 544 51 c 128,-1,2
 480 -22 480 -22 336 -22 c 0,3,4
 188 -22 188 -22 111.5 40.5 c 128,-1,5
 35 103 35 103 35 241 c 2,6,-1
 35 660 l 1,7,-1
 299 660 l 1,8,-1
 299 252 l 2,9,10
 299 149 299 149 312.5 109.5 c 128,-1,11
 326 70 326 70 364 70 c 0,12,13
 403 70 403 70 417 110.5 c 128,-1,14
 431 151 431 151 431 263 c 2,15,-1
 431 660 l 1,16,-1
 608 660 l 1,17,-1
 608 274 l 2,0,1
EndSplineSet
Validated: 1
Position2: "'cpsp' Capital Spacing lookup 3 subtable" dx=5 dy=0 dh=10 dv=0
EndChar

StartChar: Uacute
Encoding: 218 218 124
Width: 642
Flags: MW
HStem: -22 92<338 390 338 435> 640 20G<35 299 299 299 431 608 608 608>
VStem: 35 264<241 252 252 660> 431 177<263 274 274 660>
LayerCount: 2
UndoRedoHistory
Layer: 0
Undoes
EndUndoes
Redoes
EndRedoes
EndUndoRedoHistory
UndoRedoHistory
Layer: 1
Undoes
EndUndoes
Redoes
EndRedoes
EndUndoRedoHistory
Fore
SplineSet
467 874 m 1,0,1
 486 858 486 858 498.5 834.5 c 128,-1,2
 511 811 511 811 511 789 c 0,3,4
 511 771 511 771 503 758 c 128,-1,5
 495 745 495 745 483 738 c 128,-1,6
 471 731 471 731 452.5 727 c 0,7,8
 434 724 434 724 419 722 c 2,9,-1
 384 718 l 1,10,-1
 375 718 l 1,11,-1
 216 707 l 1,12,-1
 203 763 l 1,13,-1
 467 874 l 1,0,1
608 274 m 2,14,15
 608 124 608 124 544 51 c 128,-1,16
 480 -22 480 -22 336 -22 c 0,17,18
 188 -22 188 -22 111.5 40.5 c 128,-1,19
 35 103 35 103 35 241 c 2,20,-1
 35 660 l 1,21,-1
 299 660 l 1,22,-1
 299 252 l 2,23,24
 299 149 299 149 312.5 109.5 c 128,-1,25
 326 70 326 70 364 70 c 0,26,27
 403 70 403 70 417 110.5 c 128,-1,28
 431 151 431 151 431 263 c 2,29,-1
 431 660 l 1,30,-1
 608 660 l 1,31,-1
 608 274 l 2,14,15
EndSplineSet
Validated: 524289
Position2: "'cpsp' Capital Spacing lookup 3 subtable" dx=5 dy=0 dh=10 dv=0
EndChar

StartChar: Ubreve
Encoding: 364 364 125
Width: 642
Flags: MW
HStem: -22 92<338 390 338 435> 640 20G<35 299 299 299 431 608 608 608> 699 52<306 342 306 400>
VStem: 35 264<241 252 252 660> 119 169<809 835 809 835> 360 168<809 835> 431 177<263 274 274 660>
LayerCount: 2
UndoRedoHistory
Layer: 0
Undoes
EndUndoes
Redoes
EndRedoes
EndUndoRedoHistory
UndoRedoHistory
Layer: 1
Undoes
EndUndoes
Redoes
EndRedoes
EndUndoRedoHistory
Fore
SplineSet
528 835 m 1,0,1
 528 699 528 699 324 699 c 0,2,3
 119 699 119 699 119 835 c 1,4,-1
 288 835 l 1,5,-1
 288 831 l 2,6,7
 288 811 288 811 288.5 802.5 c 128,-1,8
 289 794 289 794 290.5 781.5 c 128,-1,9
 292 769 292 769 296 764 c 128,-1,10
 300 759 300 759 306.5 755 c 128,-1,11
 313 751 313 751 324 751 c 128,-1,12
 335 751 335 751 342 755 c 128,-1,13
 349 759 349 759 352.5 764 c 128,-1,14
 356 769 356 769 357.5 781 c 128,-1,15
 359 793 359 793 359.5 801.5 c 128,-1,16
 360 810 360 810 360 829 c 2,17,-1
 360 835 l 1,18,-1
 528 835 l 1,0,1
608 274 m 2,19,20
 608 124 608 124 544 51 c 128,-1,21
 480 -22 480 -22 336 -22 c 0,22,23
 188 -22 188 -22 111.5 40.5 c 128,-1,24
 35 103 35 103 35 241 c 2,25,-1
 35 660 l 1,26,-1
 299 660 l 1,27,-1
 299 252 l 2,28,29
 299 149 299 149 312.5 109.5 c 128,-1,30
 326 70 326 70 364 70 c 0,31,32
 403 70 403 70 417 110.5 c 128,-1,33
 431 151 431 151 431 263 c 2,34,-1
 431 660 l 1,35,-1
 608 660 l 1,36,-1
 608 274 l 2,19,20
EndSplineSet
Validated: 8388609
Position2: "'cpsp' Capital Spacing lookup 3 subtable" dx=5 dy=0 dh=10 dv=0
EndChar

StartChar: Ucircumflex
Encoding: 219 219 126
Width: 642
Flags: MW
HStem: -22 92<338 390 338 435> 640 20G<35 299 299 299 431 608 608 608>
VStem: 35 264<241 252 252 660> 431 177<263 274 274 660>
LayerCount: 2
UndoRedoHistory
Layer: 0
Undoes
EndUndoes
Redoes
EndRedoes
EndUndoRedoHistory
UndoRedoHistory
Layer: 1
Undoes
EndUndoes
Redoes
EndRedoes
EndUndoRedoHistory
Fore
SplineSet
140 745 m 1,0,-1
 305 857 l 1,1,-1
 348 857 l 1,2,-1
 516 745 l 1,3,-1
 472 693 l 1,4,-1
 328 725 l 1,5,-1
 185 693 l 1,6,-1
 140 745 l 1,0,-1
608 274 m 2,7,8
 608 124 608 124 544 51 c 128,-1,9
 480 -22 480 -22 336 -22 c 0,10,11
 188 -22 188 -22 111.5 40.5 c 128,-1,12
 35 103 35 103 35 241 c 2,13,-1
 35 660 l 1,14,-1
 299 660 l 1,15,-1
 299 252 l 2,16,17
 299 149 299 149 312.5 109.5 c 128,-1,18
 326 70 326 70 364 70 c 0,19,20
 403 70 403 70 417 110.5 c 128,-1,21
 431 151 431 151 431 263 c 2,22,-1
 431 660 l 1,23,-1
 608 660 l 1,24,-1
 608 274 l 2,7,8
EndSplineSet
Validated: 1
Position2: "'cpsp' Capital Spacing lookup 3 subtable" dx=5 dy=0 dh=10 dv=0
EndChar

StartChar: Udieresis
Encoding: 220 220 127
Width: 642
Flags: MW
HStem: -22 92<338 390 338 435> 640 20G<35 299 299 299 431 608 608 608> 707 170<178 243 428 493>
VStem: 35 264<241 252 252 660> 431 177<263 274 274 660>
LayerCount: 2
UndoRedoHistory
Layer: 0
Undoes
EndUndoes
Redoes
EndRedoes
EndUndoRedoHistory
UndoRedoHistory
Layer: 1
Undoes
EndUndoes
Redoes
EndRedoes
EndUndoRedoHistory
Fore
SplineSet
213 877 m 0,0,1
 265 877 265 877 297 854 c 128,-1,2
 329 831 329 831 329 791 c 128,-1,3
 329 751 329 751 295.5 729 c 128,-1,4
 262 707 262 707 208 707 c 0,5,6
 155 707 155 707 122 728.5 c 128,-1,7
 89 750 89 750 89 789 c 0,8,9
 89 829 89 829 124 853 c 128,-1,10
 159 877 159 877 213 877 c 0,0,1
463 877 m 0,11,12
 515 877 515 877 547 854 c 128,-1,13
 579 831 579 831 579 791 c 128,-1,14
 579 751 579 751 545.5 729 c 128,-1,15
 512 707 512 707 458 707 c 0,16,17
 405 707 405 707 372 728.5 c 128,-1,18
 339 750 339 750 339 789 c 0,19,20
 339 829 339 829 374 853 c 128,-1,21
 409 877 409 877 463 877 c 0,11,12
608 274 m 2,22,23
 608 124 608 124 544 51 c 128,-1,24
 480 -22 480 -22 336 -22 c 0,25,26
 188 -22 188 -22 111.5 40.5 c 128,-1,27
 35 103 35 103 35 241 c 2,28,-1
 35 660 l 1,29,-1
 299 660 l 1,30,-1
 299 252 l 2,31,32
 299 149 299 149 312.5 109.5 c 128,-1,33
 326 70 326 70 364 70 c 0,34,35
 403 70 403 70 417 110.5 c 128,-1,36
 431 151 431 151 431 263 c 2,37,-1
 431 660 l 1,38,-1
 608 660 l 1,39,-1
 608 274 l 2,22,23
EndSplineSet
Validated: 1
Position2: "'cpsp' Capital Spacing lookup 3 subtable" dx=5 dy=0 dh=10 dv=0
EndChar

StartChar: Udotbelow
Encoding: 7908 7908 128
Width: 642
Flags: MW
HStem: -202 170<329 394> -22 92<338 390 338 435> 640 20G<35 299 299 299 431 608 608 608>
VStem: 35 264<241 252 252 660> 431 177<263 274 274 660>
LayerCount: 2
UndoRedoHistory
Layer: 0
Undoes
EndUndoes
Redoes
EndRedoes
EndUndoRedoHistory
UndoRedoHistory
Layer: 1
Undoes
EndUndoes
Redoes
EndRedoes
EndUndoRedoHistory
Fore
SplineSet
608 274 m 2,0,1
 608 124 608 124 544 51 c 128,-1,2
 480 -22 480 -22 336 -22 c 0,3,4
 188 -22 188 -22 111.5 40.5 c 128,-1,5
 35 103 35 103 35 241 c 2,6,-1
 35 660 l 1,7,-1
 299 660 l 1,8,-1
 299 252 l 2,9,10
 299 149 299 149 312.5 109.5 c 128,-1,11
 326 70 326 70 364 70 c 0,12,13
 403 70 403 70 417 110.5 c 128,-1,14
 431 151 431 151 431 263 c 2,15,-1
 431 660 l 1,16,-1
 608 660 l 1,17,-1
 608 274 l 2,0,1
364 -32 m 0,18,19
 416 -32 416 -32 448 -55 c 128,-1,20
 480 -78 480 -78 480 -118 c 128,-1,21
 480 -158 480 -158 446.5 -180 c 128,-1,22
 413 -202 413 -202 359 -202 c 0,23,24
 306 -202 306 -202 273 -180.5 c 128,-1,25
 240 -159 240 -159 240 -120 c 0,26,27
 240 -80 240 -80 275 -56 c 128,-1,28
 310 -32 310 -32 364 -32 c 0,18,19
EndSplineSet
Validated: 1
Position2: "'cpsp' Capital Spacing lookup 3 subtable" dx=5 dy=0 dh=10 dv=0
EndChar

StartChar: Ugrave
Encoding: 217 217 129
Width: 642
Flags: MW
HStem: -22 92<338 390 338 435> 640 20G<35 299 299 299 431 608 608 608>
VStem: 35 264<241 252 252 660> 431 177<263 274 274 660>
LayerCount: 2
UndoRedoHistory
Layer: 0
Undoes
EndUndoes
Redoes
EndRedoes
EndUndoRedoHistory
UndoRedoHistory
Layer: 1
Undoes
EndUndoes
Redoes
EndRedoes
EndUndoRedoHistory
Fore
SplineSet
273 720 m 2,0,1
 212 724 212 724 191 730 c 0,2,3
 137 745 137 745 137 791 c 0,4,5
 137 812 137 812 149.5 836 c 128,-1,6
 162 860 162 860 180 876 c 1,7,-1
 445 765 l 1,8,-1
 432 709 l 1,9,-1
 273 720 l 2,0,1
608 274 m 2,10,11
 608 124 608 124 544 51 c 128,-1,12
 480 -22 480 -22 336 -22 c 0,13,14
 188 -22 188 -22 111.5 40.5 c 128,-1,15
 35 103 35 103 35 241 c 2,16,-1
 35 660 l 1,17,-1
 299 660 l 1,18,-1
 299 252 l 2,19,20
 299 149 299 149 312.5 109.5 c 128,-1,21
 326 70 326 70 364 70 c 0,22,23
 403 70 403 70 417 110.5 c 128,-1,24
 431 151 431 151 431 263 c 2,25,-1
 431 660 l 1,26,-1
 608 660 l 1,27,-1
 608 274 l 2,10,11
EndSplineSet
Validated: 1
Position2: "'cpsp' Capital Spacing lookup 3 subtable" dx=5 dy=0 dh=10 dv=0
EndChar

StartChar: Uhungarumlaut
Encoding: 368 368 130
Width: 642
Flags: MW
HStem: -22 92<338 390 338 435> 640 20G<35 299 299 299 431 608 608 608>
VStem: 35 264<241 252 252 660> 431 177<263 274 274 660>
LayerCount: 2
UndoRedoHistory
Layer: 0
Undoes
EndUndoes
Redoes
EndRedoes
EndUndoRedoHistory
UndoRedoHistory
Layer: 1
Undoes
EndUndoes
Redoes
EndRedoes
EndUndoRedoHistory
Fore
SplineSet
343 869 m 1,0,1
 389 840 389 840 389 802 c 0,2,3
 389 726 389 726 300 715 c 1,4,-1
 179 698 l 1,5,-1
 157 760 l 1,6,-1
 343 869 l 1,0,1
563 869 m 1,7,8
 609 840 609 840 609 802 c 0,9,10
 609 765 609 765 587.5 743 c 128,-1,11
 566 721 566 721 520 715 c 2,12,-1
 407 698 l 1,13,-1
 385 760 l 1,14,-1
 563 869 l 1,7,8
608 274 m 2,15,16
 608 124 608 124 544 51 c 128,-1,17
 480 -22 480 -22 336 -22 c 0,18,19
 188 -22 188 -22 111.5 40.5 c 128,-1,20
 35 103 35 103 35 241 c 2,21,-1
 35 660 l 1,22,-1
 299 660 l 1,23,-1
 299 252 l 2,24,25
 299 149 299 149 312.5 109.5 c 128,-1,26
 326 70 326 70 364 70 c 0,27,28
 403 70 403 70 417 110.5 c 128,-1,29
 431 151 431 151 431 263 c 2,30,-1
 431 660 l 1,31,-1
 608 660 l 1,32,-1
 608 274 l 2,15,16
EndSplineSet
Validated: 1
Position2: "'cpsp' Capital Spacing lookup 3 subtable" dx=5 dy=0 dh=10 dv=0
EndChar

StartChar: Umacron
Encoding: 362 362 131
Width: 642
Flags: MW
HStem: -22 92<338 390 338 435> 640 20G<35 299 299 299 431 608 608 608> 770 97<225 433 175 480>
VStem: 35 264<241 252 252 660> 431 177<263 274 274 660>
LayerCount: 2
UndoRedoHistory
Layer: 0
Undoes
EndUndoes
Redoes
EndRedoes
EndUndoRedoHistory
UndoRedoHistory
Layer: 1
Undoes
EndUndoes
Redoes
EndRedoes
EndUndoRedoHistory
Fore
SplineSet
480 867 m 1,0,1
 489 854 489 854 489 828 c 128,-1,2
 489 802 489 802 473.5 786 c 128,-1,3
 458 770 458 770 433 770 c 2,4,-1
 175 770 l 1,5,6
 165 784 165 784 165 811 c 0,7,8
 165 836 165 836 181.5 851.5 c 128,-1,9
 198 867 198 867 225 867 c 2,10,-1
 480 867 l 1,0,1
608 274 m 2,11,12
 608 124 608 124 544 51 c 128,-1,13
 480 -22 480 -22 336 -22 c 0,14,15
 188 -22 188 -22 111.5 40.5 c 128,-1,16
 35 103 35 103 35 241 c 2,17,-1
 35 660 l 1,18,-1
 299 660 l 1,19,-1
 299 252 l 2,20,21
 299 149 299 149 312.5 109.5 c 128,-1,22
 326 70 326 70 364 70 c 0,23,24
 403 70 403 70 417 110.5 c 128,-1,25
 431 151 431 151 431 263 c 2,26,-1
 431 660 l 1,27,-1
 608 660 l 1,28,-1
 608 274 l 2,11,12
EndSplineSet
Validated: 1
Position2: "'cpsp' Capital Spacing lookup 3 subtable" dx=5 dy=0 dh=10 dv=0
EndChar

StartChar: Uogonek
Encoding: 370 370 132
Width: 642
Flags: MW
HStem: -274 102<366 458> -22 92<241 390 338 342> 640 20G<35 299 299 299 431 608 608 608>
VStem: 35 264<241 252 252 660> 250 138<-144 -133> 431 177<263 274 274 660>
LayerCount: 2
UndoRedoHistory
Layer: 0
Undoes
EndUndoes
Redoes
EndRedoes
EndUndoRedoHistory
UndoRedoHistory
Layer: 1
Undoes
EndUndoes
Redoes
EndRedoes
EndUndoRedoHistory
Fore
SplineSet
608 274 m 2,0,1
 608 169 608 169 577.5 102.5 c 128,-1,2
 547 36 547 36 481 5 c 1,3,4
 388 -59 388 -59 388 -125 c 0,5,6
 388 -152 388 -152 403 -162 c 128,-1,7
 418 -172 418 -172 448 -172 c 0,8,9
 466 -172 466 -172 485.5 -165.5 c 128,-1,10
 505 -159 505 -159 511 -145 c 1,11,12
 543 -167 543 -167 543 -200 c 0,13,14
 543 -219 543 -219 527.5 -234.5 c 128,-1,15
 512 -250 512 -250 489 -258 c 128,-1,16
 466 -266 466 -266 443 -270 c 128,-1,17
 420 -274 420 -274 401 -274 c 0,18,19
 379 -274 379 -274 358 -271 c 128,-1,20
 337 -268 337 -268 317 -260.5 c 128,-1,21
 297 -253 297 -253 282.5 -242 c 128,-1,22
 268 -231 268 -231 259 -212.5 c 128,-1,23
 250 -194 250 -194 250 -171 c 0,24,25
 250 -71 250 -71 342 -22 c 1,26,-1
 336 -22 l 2,27,28
 188 -22 188 -22 111.5 40.5 c 128,-1,29
 35 103 35 103 35 241 c 2,30,-1
 35 660 l 1,31,-1
 299 660 l 1,32,-1
 299 252 l 2,33,34
 299 149 299 149 312.5 109.5 c 128,-1,35
 326 70 326 70 364 70 c 0,36,37
 403 70 403 70 417 110.5 c 128,-1,38
 431 151 431 151 431 263 c 2,39,-1
 431 660 l 1,40,-1
 608 660 l 1,41,-1
 608 274 l 2,0,1
EndSplineSet
Validated: 8388609
Position2: "'cpsp' Capital Spacing lookup 3 subtable" dx=5 dy=0 dh=10 dv=0
EndChar

StartChar: Uring
Encoding: 366 366 133
Width: 642
Flags: MW
HStem: -22 92<338 390 338 435> 640 20G<35 299 299 299 431 608 608 608> 697 44<307 340 307 360> 859 43<308 340>
VStem: 35 264<241 252 252 660> 201 76<784 817 784 834> 370 77<784 817> 431 177<263 274 274 660>
LayerCount: 2
UndoRedoHistory
Layer: 0
Undoes
EndUndoes
Redoes
EndRedoes
EndUndoRedoHistory
UndoRedoHistory
Layer: 1
Undoes
EndUndoes
Redoes
EndRedoes
EndUndoRedoHistory
Fore
SplineSet
324.5 697 m 128,-1,1
 270 697 270 697 235.5 725 c 128,-1,2
 201 753 201 753 201 801 c 128,-1,3
 201 849 201 849 234.5 875.5 c 128,-1,4
 268 902 268 902 324 902 c 128,-1,5
 380 902 380 902 413.5 875.5 c 128,-1,6
 447 849 447 849 447 801 c 0,7,8
 447 754 447 754 413 725.5 c 128,-1,0
 379 697 379 697 324.5 697 c 128,-1,1
324 741 m 0,9,10
 347 741 347 741 358.5 757 c 128,-1,11
 370 773 370 773 370 801 c 0,12,13
 370 827 370 827 358.5 843 c 128,-1,14
 347 859 347 859 324 859 c 0,15,16
 300 859 300 859 288.5 843 c 128,-1,17
 277 827 277 827 277 801 c 0,18,19
 277 741 277 741 324 741 c 0,9,10
608 274 m 2,20,21
 608 124 608 124 544 51 c 128,-1,22
 480 -22 480 -22 336 -22 c 0,23,24
 188 -22 188 -22 111.5 40.5 c 128,-1,25
 35 103 35 103 35 241 c 2,26,-1
 35 660 l 1,27,-1
 299 660 l 1,28,-1
 299 252 l 2,29,30
 299 149 299 149 312.5 109.5 c 128,-1,31
 326 70 326 70 364 70 c 0,32,33
 403 70 403 70 417 110.5 c 128,-1,34
 431 151 431 151 431 263 c 2,35,-1
 431 660 l 1,36,-1
 608 660 l 1,37,-1
 608 274 l 2,20,21
EndSplineSet
Validated: 8388609
Position2: "'cpsp' Capital Spacing lookup 3 subtable" dx=5 dy=0 dh=10 dv=0
EndChar

StartChar: Utilde
Encoding: 360 360 134
Width: 642
Flags: MW
HStem: -22 92<338 390 338 435> 640 20G<35 299 299 299 431 608 608 608> 706 114<425 461> 724 114<190 225>
VStem: 35 264<241 252 252 660> 431 177<263 274 274 660>
LayerCount: 2
UndoRedoHistory
Layer: 0
Undoes
EndUndoes
Redoes
EndRedoes
EndUndoRedoHistory
UndoRedoHistory
Layer: 1
Undoes
EndUndoes
Redoes
EndRedoes
EndUndoRedoHistory
Fore
SplineSet
528 843 m 1,0,1
 549 807 549 807 549 778 c 0,2,3
 549 756 549 756 539.5 740.5 c 128,-1,4
 530 725 530 725 512.5 718 c 128,-1,5
 495 711 495 711 476 708.5 c 128,-1,6
 457 706 457 706 429 706 c 0,7,8
 399 706 399 706 312 715 c 128,-1,9
 225 724 225 724 193 724 c 0,10,11
 145 724 145 724 123 701 c 1,12,13
 102 737 102 737 102 766 c 0,14,15
 102 788 102 788 111.5 803.5 c 128,-1,16
 121 819 121 819 139 826 c 128,-1,17
 157 833 157 833 176 835.5 c 128,-1,18
 195 838 195 838 222 838 c 0,19,20
 252 838 252 838 338.5 829 c 128,-1,21
 425 820 425 820 458 820 c 0,22,23
 506 820 506 820 528 843 c 1,0,1
608 274 m 2,24,25
 608 124 608 124 544 51 c 128,-1,26
 480 -22 480 -22 336 -22 c 0,27,28
 188 -22 188 -22 111.5 40.5 c 128,-1,29
 35 103 35 103 35 241 c 2,30,-1
 35 660 l 1,31,-1
 299 660 l 1,32,-1
 299 252 l 2,33,34
 299 149 299 149 312.5 109.5 c 128,-1,35
 326 70 326 70 364 70 c 0,36,37
 403 70 403 70 417 110.5 c 128,-1,38
 431 151 431 151 431 263 c 2,39,-1
 431 660 l 1,40,-1
 608 660 l 1,41,-1
 608 274 l 2,24,25
EndSplineSet
Validated: 8388609
Position2: "'cpsp' Capital Spacing lookup 3 subtable" dx=5 dy=0 dh=10 dv=0
EndChar

StartChar: V
Encoding: 86 86 135
Width: 637
Flags: MW
HStem: 640 20G<7 278 278 278 475 657 657 657>
VStem: 7 650<660 660>
LayerCount: 2
UndoRedoHistory
Layer: 0
Undoes
EndUndoes
Redoes
EndRedoes
EndUndoRedoHistory
UndoRedoHistory
Layer: 1
Undoes
EndUndoes
Redoes
EndRedoes
EndUndoRedoHistory
Fore
SplineSet
470 0 m 1,0,-1
 161 0 l 1,1,-1
 7 660 l 1,2,-1
 278 660 l 1,3,-1
 379 146 l 1,4,-1
 475 660 l 1,5,-1
 657 660 l 1,6,-1
 470 0 l 1,0,-1
EndSplineSet
Validated: 1
Position2: "'cpsp' Capital Spacing lookup 3 subtable" dx=5 dy=0 dh=10 dv=0
EndChar

StartChar: W
Encoding: 87 87 136
Width: 1051
Flags: MW
HStem: 640 20G<7 278 278 278 490 677 677 677 888 1071 1071 1071>
VStem: 7 1064<660 660>
LayerCount: 2
UndoRedoHistory
Layer: 0
Undoes
EndUndoes
Redoes
EndRedoes
EndUndoRedoHistory
UndoRedoHistory
Layer: 1
Undoes
EndUndoes
Redoes
EndRedoes
EndUndoRedoHistory
Fore
SplineSet
876 0 m 1,0,-1
 567 0 l 1,1,-1
 519 254 l 1,2,-1
 478 0 l 1,3,-1
 169 0 l 1,4,-1
 7 660 l 1,5,-1
 278 660 l 1,6,-1
 386 146 l 1,7,-1
 490 660 l 1,8,-1
 677 660 l 1,9,-1
 785 146 l 1,10,-1
 888 660 l 1,11,-1
 1071 660 l 1,12,-1
 876 0 l 1,0,-1
EndSplineSet
Validated: 1
Position2: "'cpsp' Capital Spacing lookup 3 subtable" dx=5 dy=0 dh=10 dv=0
EndChar

StartChar: Wacute
Encoding: 7810 7810 137
Width: 1051
Flags: MW
HStem: 640 20G<7 278 278 278 490 677 677 677 888 1071 1071 1071>
VStem: 7 1064<660 660>
LayerCount: 2
UndoRedoHistory
Layer: 0
Undoes
EndUndoes
Redoes
EndRedoes
EndUndoRedoHistory
UndoRedoHistory
Layer: 1
Undoes
EndUndoes
Redoes
EndRedoes
EndUndoRedoHistory
Fore
SplineSet
696 874 m 1,0,1
 715 858 715 858 727.5 834.5 c 128,-1,2
 740 811 740 811 740 789 c 0,3,4
 740 771 740 771 732 758 c 128,-1,5
 724 745 724 745 712 738 c 128,-1,6
 700 731 700 731 681.5 727 c 0,7,8
 663 724 663 724 648 722 c 2,9,-1
 613 718 l 1,10,-1
 610 718 l 1,11,-1
 607 718 l 1,12,-1
 604 718 l 1,13,-1
 445 707 l 1,14,-1
 432 763 l 1,15,-1
 696 874 l 1,0,1
567 0 m 1,16,-1
 519 254 l 1,17,-1
 478 0 l 1,18,-1
 169 0 l 1,19,-1
 7 660 l 1,20,-1
 278 660 l 1,21,-1
 386 146 l 1,22,-1
 490 660 l 1,23,-1
 677 660 l 1,24,-1
 785 146 l 1,25,-1
 888 660 l 1,26,-1
 1071 660 l 1,27,-1
 876 0 l 1,28,-1
 567 0 l 1,16,-1
EndSplineSet
Validated: 524289
Position2: "'cpsp' Capital Spacing lookup 3 subtable" dx=5 dy=0 dh=10 dv=0
EndChar

StartChar: Wcircumflex
Encoding: 372 372 138
Width: 1051
Flags: MW
HStem: 640 20G<7 278 278 278 490 677 677 677 888 1071 1071 1071>
VStem: 7 1064<660 660>
LayerCount: 2
UndoRedoHistory
Layer: 0
Undoes
EndUndoes
Redoes
EndRedoes
EndUndoRedoHistory
UndoRedoHistory
Layer: 1
Undoes
EndUndoes
Redoes
EndRedoes
EndUndoRedoHistory
Fore
SplineSet
369 745 m 1,0,-1
 534 857 l 1,1,-1
 577 857 l 1,2,-1
 745 745 l 1,3,-1
 701 693 l 1,4,-1
 557 725 l 1,5,-1
 414 693 l 1,6,-1
 369 745 l 1,0,-1
567 0 m 1,7,-1
 519 254 l 1,8,-1
 478 0 l 1,9,-1
 169 0 l 1,10,-1
 7 660 l 1,11,-1
 278 660 l 1,12,-1
 386 146 l 1,13,-1
 490 660 l 1,14,-1
 677 660 l 1,15,-1
 785 146 l 1,16,-1
 888 660 l 1,17,-1
 1071 660 l 1,18,-1
 876 0 l 1,19,-1
 567 0 l 1,7,-1
EndSplineSet
Validated: 1
Position2: "'cpsp' Capital Spacing lookup 3 subtable" dx=5 dy=0 dh=10 dv=0
EndChar

